<?xml version="1.0" encoding="UTF-8" standalone="no"?>
<svg
   xmlns:dc="http://purl.org/dc/elements/1.1/"
   xmlns:cc="http://creativecommons.org/ns#"
   xmlns:rdf="http://www.w3.org/1999/02/22-rdf-syntax-ns#"
   xmlns:svg="http://www.w3.org/2000/svg"
   xmlns="http://www.w3.org/2000/svg"
   xmlns:sodipodi="http://sodipodi.sourceforge.net/DTD/sodipodi-0.dtd"
   xmlns:inkscape="http://www.inkscape.org/namespaces/inkscape"
   inkscape:version="1.0 (4035a4fb49, 2020-05-01)"
   height="74.5"
   width="56"
   sodipodi:docname="rank-icon.svg"
   version="1.1"
   x="0px"
   y="0px"
   viewBox="0 0 56 74.499999"
   enable-background="new 0 0 100 100"
   xml:space="preserve"
   id="svg102"><sodipodi:namedview
     inkscape:current-layer="svg102"
     inkscape:window-maximized="0"
     inkscape:window-y="0"
     inkscape:window-x="0"
     inkscape:cy="60.2"
     inkscape:cx="27.8"
     inkscape:zoom="6.744"
     lock-margins="false"
     fit-margin-bottom="0"
     fit-margin-right="0"
     fit-margin-left="0"
     fit-margin-top="0"
     showgrid="false"
     id="namedview11"
     inkscape:window-height="1007"
     inkscape:window-width="1374"
     inkscape:pageshadow="2"
     inkscape:pageopacity="0"
     guidetolerance="10"
     gridtolerance="10"
     objecttolerance="10"
     borderopacity="1"
     bordercolor="#666666"
     pagecolor="#ffffff"
     inkscape:document-rotation="0" /><metadata
     id="metadata108"><rdf:RDF><cc:Work
         rdf:about=""><dc:format>image/svg+xml</dc:format><dc:type
           rdf:resource="http://purl.org/dc/dcmitype/StillImage" /><dc:title></dc:title></cc:Work></rdf:RDF></metadata><defs
     id="defs106" /><g
     style="stroke-width:2;stroke-miterlimit:4;stroke-dasharray:none"
     transform="translate(-22.2,-2.3)"
     id="g92"><path
       style="stroke:#000000;stroke-width:2;stroke-miterlimit:4;stroke-dasharray:none;stroke-opacity:1"
       d="m 50.2,75.8 c -0.2,0 -0.3,0 -0.5,-0.1 L 23.7,60.8 C 23.4,60.6 23.2,60.3 23.2,59.9 V 45.1 c 0,-0.4 0.2,-0.7 0.5,-0.9 0.3,-0.2 0.7,-0.2 1,0 L 50.2,58.8 75.7,44.2 c 0.3,-0.2 0.7,-0.2 1,0 0.3,0.2 0.5,0.5 0.5,0.9 V 60 c 0,0.4 -0.2,0.7 -0.5,0.9 l -26,14.9 c -0.1,0 -0.3,0 -0.5,0 z m -25,-16.4 25,14.3 25,-14.3 V 46.9 l -24.5,14 c -0.3,0.2 -0.7,0.2 -1,0 l -24.5,-14 z"
       id="path90" /></g><g
     style="stroke:#000000;stroke-width:2;stroke-miterlimit:4;stroke-dasharray:none;stroke-opacity:1"
     transform="translate(-22.2,-2.3)"
     id="g96"><path
       style="stroke:#000000;stroke-width:2;stroke-miterlimit:4;stroke-dasharray:none;stroke-opacity:1"
       d="m 62.5,45.1 c -0.3,0 -0.7,-0.1 -1,-0.2 L 50.3,39 39,44.8 C 38.1,45.3 37,45 36.4,44.3 36,43.8 35.8,43.2 35.9,42.6 L 38,30.1 29,21.2 c -0.6,-0.6 -0.8,-1.4 -0.5,-2.1 0.3,-0.7 0.9,-1.3 1.7,-1.4 L 42.7,15.9 48.4,4.5 c 0.4,-0.7 1.1,-1.2 1.9,-1.2 0.8,0 1.5,0.4 1.9,1.2 l 5.6,11.3 12.6,1.9 c 0.8,0.1 1.4,0.7 1.7,1.4 0.2,0.8 0,1.6 -0.5,2.1 l -9.1,8.8 2.1,12.5 c 0.1,0.6 -0.1,1.2 -0.5,1.7 -0.4,0.6 -1,0.9 -1.6,0.9 z M 50.2,36.9 c 0.3,0 0.7,0.1 1,0.2 L 62.4,43 c 0,0 0.1,0 0.1,0 L 60.4,30.5 c -0.1,-0.7 0.1,-1.4 0.6,-1.9 l 9.1,-8.8 c 0,0 0,0 0,-0.1 0,-0.1 -0.1,-0.1 -0.1,-0.1 L 57.5,17.8 C 56.8,17.7 56.2,17.3 55.9,16.7 L 50.3,5.3 c 0,0 -0.2,0 -0.2,0 l -5.6,11.3 c -0.3,0.6 -0.9,1 -1.6,1.1 l -12.5,1.8 c 0,0 -0.1,0 -0.1,0.1 0,0.1 0,0.1 0,0.1 l 9.1,8.8 c 0.5,0.5 0.7,1.2 0.6,1.9 L 37.9,42.9 38,43 49.2,37.1 c 0.4,-0.1 0.7,-0.2 1,-0.2 z"
       id="path94" /></g></svg>
