<svg width="24" height="24" xmlns="http://www.w3.org/2000/svg" viewBox="0 0 24 24"><title>github</title><g fill="none" class="nc-icon-wrapper"><path d="M8.633 17.8c0 .082-.095.147-.214.147-.135.013-.23-.053-.23-.147 0-.082.095-.148.214-.148.123-.012.23.053.23.148zm-1.276-.185c-.029.082.053.176.176.2.107.042.23 0 .255-.081.024-.082-.054-.176-.177-.213-.106-.03-.225.012-.254.094zm1.813-.07c-.119.029-.201.107-.189.2.013.083.12.137.242.108.12-.03.201-.107.189-.19-.012-.077-.123-.13-.242-.118zm2.699-15.717c-5.69 0-10.04 4.32-10.04 10.008 0 4.549 2.862 8.44 6.951 9.81.525.095.71-.23.71-.495 0-.255-.012-1.657-.012-2.52 0 0-2.872.616-3.474-1.221 0 0-.468-1.194-1.14-1.501 0 0-.94-.644.065-.632 0 0 1.021.082 1.583 1.058.898 1.584 2.404 1.128 2.99.858.094-.657.361-1.112.656-1.383-2.292-.254-4.606-.586-4.606-4.532 0-1.128.312-1.694.968-2.416-.106-.266-.455-1.366.107-2.785.857-.266 2.83 1.108 2.83 1.108a9.673 9.673 0 0 1 5.152 0s1.972-1.378 2.83-1.108c.562 1.424.213 2.519.106 2.785.657.726 1.058 1.292 1.058 2.416 0 3.958-2.415 4.274-4.708 4.532.377.324.697.94.697 1.903 0 1.383-.012 3.093-.012 3.43 0 .266.189.59.71.496 4.101-1.362 6.882-5.254 6.882-9.803 0-5.69-4.614-10.008-10.303-10.008zM5.815 15.974c-.053.04-.041.136.029.214.065.065.16.094.213.04.053-.04.04-.135-.029-.213-.065-.065-.16-.094-.213-.04v-.001zm-.443-.332c-.029.053.012.12.094.16.066.04.148.029.177-.03.028-.052-.013-.117-.095-.16-.082-.023-.147-.011-.176.03zm1.329 1.46c-.066.054-.041.177.053.255.094.094.213.106.267.04.053-.053.028-.176-.054-.254-.09-.094-.213-.106-.266-.04v-.001zm-.468-.603c-.065.04-.065.148 0 .242.066.095.177.136.23.095.066-.054.066-.16 0-.255-.058-.094-.164-.135-.23-.082z" fill="#F7F7F7"></path></g></svg>