<?xml version="1.0" encoding="UTF-8" standalone="no"?>
<!DOCTYPE svg PUBLIC "-//W3C//DTD SVG 1.1//EN"
 "http://www.w3.org/Graphics/SVG/1.1/DTD/svg11.dtd">
<!-- Generated by graphviz version 2.38.0 (20140413.2041)
 -->
<!-- Title: models_diagram Pages: 1 -->
<svg width="5469pt" height="782pt"
 viewBox="0.00 0.00 5468.75 782.00" xmlns="http://www.w3.org/2000/svg" xmlns:xlink="http://www.w3.org/1999/xlink">
<g id="graph0" class="graph" transform="scale(1 1) rotate(0) translate(4 778)">
<title>models_diagram</title>
<polygon fill="none" stroke="none" points="-4,4 -4,-778 5464.75,-778 5464.75,4 -4,4"/>
<!-- _diagram_info -->
<g id="node1" class="node"><title>_diagram_info</title>
<text text-anchor="start" x="1417" y="-759.6" font-family="Times,serif" font-size="13.00">Models diagram</text>
<text text-anchor="start" x="1417" y="-745.6" font-family="Times,serif" font-size="13.00">Date: Aug 31 2016 &#45; 12:07</text>
<text text-anchor="start" x="1417" y="-731.6" font-family="Times,serif" font-size="13.00">Migration version: 20160831084519</text>
<text text-anchor="start" x="1417" y="-717.6" font-family="Times,serif" font-size="13.00">Generated by RailRoady 1.4.0</text>
<text text-anchor="start" x="1417" y="-703.6" font-family="Times,serif" font-size="13.00">http://railroady.prestonlee.com</text>
</g>
<!-- Group -->
<g id="node2" class="node"><title>Group</title>
<ellipse fill="none" stroke="black" cx="1674" cy="-735" rx="33.2948" ry="18"/>
<text text-anchor="middle" x="1674" y="-731.3" font-family="Times,serif" font-size="14.00">Group</text>
</g>
<!-- Price -->
<g id="node4" class="node"><title>Price</title>
<ellipse fill="none" stroke="black" cx="2046" cy="-251" rx="28.6953" ry="18"/>
<text text-anchor="middle" x="2046" y="-247.3" font-family="Times,serif" font-size="14.00">Price</text>
</g>
<!-- Group&#45;&gt;Price -->
<g id="edge4" class="edge"><title>Group&#45;&gt;Price</title>
<path fill="none" stroke="#03d34b" d="M1715.11,-730.884C1831.04,-719.622 2160.87,-669.975 2296,-464 2304.78,-450.622 2300.73,-443.284 2296,-428 2287.39,-400.209 2245.03,-337.779 2222,-320 2168.92,-279.021 2141.65,-295.375 2080,-269 2078.84,-268.504 2077.66,-267.986 2076.48,-267.454"/>
<ellipse fill="none" stroke="#03d34b" cx="1710.8" cy="-731.287" rx="4" ry="4"/>
<polygon fill="#03d34b" stroke="#03d34b" points="2076.45,-267.441 2069.32,-259.111 2071.93,-265.312 2067.4,-263.183 2067.4,-263.183 2067.4,-263.183 2071.93,-265.312 2065.49,-267.255 2076.45,-267.441 2076.45,-267.441"/>
<text text-anchor="middle" x="2327.5" y="-496.3" font-family="Times,serif" font-size="14.00">machines_prices</text>
</g>
<!-- TrainingsPricing -->
<g id="node31" class="node"><title>TrainingsPricing</title>
<ellipse fill="none" stroke="black" cx="1703" cy="-446" rx="69.5877" ry="18"/>
<text text-anchor="middle" x="1703" y="-442.3" font-family="Times,serif" font-size="14.00">TrainingsPricing</text>
</g>
<!-- Group&#45;&gt;TrainingsPricing -->
<g id="edge3" class="edge"><title>Group&#45;&gt;TrainingsPricing</title>
<path fill="none" stroke="#413fd3" d="M1685.84,-710.312C1702.88,-673.545 1731.48,-600.276 1724,-536 1721.55,-514.975 1715.96,-491.709 1711.16,-474.24"/>
<ellipse fill="none" stroke="#413fd3" cx="1684.11" cy="-713.971" rx="4.00002" ry="4.00002"/>
<polygon fill="#413fd3" stroke="#413fd3" points="1711.04,-473.804 1712.64,-462.956 1709.67,-468.994 1708.31,-464.183 1708.31,-464.183 1708.31,-464.183 1709.67,-468.994 1703.98,-465.411 1711.04,-473.804 1711.04,-473.804"/>
</g>
<!-- Plan -->
<g id="node34" class="node"><title>Plan</title>
<ellipse fill="none" stroke="black" cx="1834" cy="-338" rx="27" ry="18"/>
<text text-anchor="middle" x="1834" y="-334.3" font-family="Times,serif" font-size="14.00">Plan</text>
</g>
<!-- Group&#45;&gt;Plan -->
<g id="edge1" class="edge"><title>Group&#45;&gt;Plan</title>
<path fill="none" stroke="#d5a4a0" d="M1653.27,-712.806C1632.95,-691.087 1605,-658.264 1605,-642 1605,-642 1605,-642 1605,-445 1605,-361.586 1731.68,-343.615 1796.6,-339.882"/>
<ellipse fill="none" stroke="#d5a4a0" cx="1656.28" cy="-715.983" rx="4.00002" ry="4.00002"/>
<polygon fill="#d5a4a0" stroke="#d5a4a0" points="1796.84,-339.87 1807.05,-343.877 1801.84,-339.626 1806.83,-339.382 1806.83,-339.382 1806.83,-339.382 1801.84,-339.626 1806.61,-334.888 1796.84,-339.87 1796.84,-339.87"/>
</g>
<!-- User -->
<g id="node41" class="node"><title>User</title>
<ellipse fill="none" stroke="black" cx="1237" cy="-641" rx="27.0966" ry="18"/>
<text text-anchor="middle" x="1237" y="-637.3" font-family="Times,serif" font-size="14.00">User</text>
</g>
<!-- Group&#45;&gt;User -->
<g id="edge2" class="edge"><title>Group&#45;&gt;User</title>
<path fill="none" stroke="#680b0c" d="M1655.09,-712.48C1648.43,-706.183 1640.46,-699.94 1632,-696 1568.68,-666.524 1359.68,-649.961 1274.07,-644.271"/>
<ellipse fill="none" stroke="#680b0c" cx="1658" cy="-715.387" rx="4.00002" ry="4.00002"/>
<polygon fill="#680b0c" stroke="#680b0c" points="1274,-644.266 1264.31,-639.125 1269.01,-643.941 1264.02,-643.615 1264.02,-643.615 1264.02,-643.615 1269.01,-643.941 1263.72,-648.106 1274,-644.266 1274,-644.266"/>
</g>
<!-- InvoiceItem -->
<g id="node3" class="node"><title>InvoiceItem</title>
<ellipse fill="none" stroke="black" cx="1703" cy="-18" rx="53.8905" ry="18"/>
<text text-anchor="middle" x="1703" y="-14.3" font-family="Times,serif" font-size="14.00">InvoiceItem</text>
</g>
<!-- InvoiceItem&#45;&gt;InvoiceItem -->
<g id="edge5" class="edge"><title>InvoiceItem&#45;&gt;InvoiceItem</title>
<path fill="none" stroke="#147835" d="M1761.5,-24.0146C1769.56,-23.0195 1774.95,-21.0146 1774.95,-18 1774.95,-14.9854 1769.56,-12.9805 1761.5,-11.9854"/>
<ellipse fill="none" stroke="#147835" cx="1757.42" cy="-24.3334" rx="4" ry="4"/>
<ellipse fill="#147835" stroke="#147835" cx="1757.42" cy="-11.6666" rx="4" ry="4"/>
</g>
<!-- AvailabilityTag -->
<g id="node5" class="node"><title>AvailabilityTag</title>
<ellipse fill="none" stroke="black" cx="2599" cy="-554" rx="66.0889" ry="18"/>
<text text-anchor="middle" x="2599" y="-550.3" font-family="Times,serif" font-size="14.00">AvailabilityTag</text>
</g>
<!-- OpenAPI -->
<g id="node6" class="node"><title>OpenAPI</title>
<polygon fill="none" stroke="black" stroke-dasharray="1,5" points="2583,-753 2515,-753 2515,-717 2583,-717 2583,-753"/>
<text text-anchor="middle" x="2549" y="-731.3" font-family="Times,serif" font-size="14.00">OpenAPI</text>
</g>
<!-- TrainingImage -->
<g id="node7" class="node"><title>TrainingImage</title>
<ellipse fill="none" stroke="black" cx="2033" cy="-446" rx="63.8893" ry="18"/>
<text text-anchor="middle" x="2033" y="-442.3" font-family="Times,serif" font-size="14.00">TrainingImage</text>
</g>
<!-- OpenAPI::Client -->
<g id="node8" class="node"><title>OpenAPI::Client</title>
<ellipse fill="none" stroke="black" cx="3010" cy="-735" rx="70.3881" ry="18"/>
<text text-anchor="middle" x="3010" y="-731.3" font-family="Times,serif" font-size="14.00">OpenAPI::Client</text>
</g>
<!-- OpenAPI::CallsCountTracing -->
<g id="node9" class="node"><title>OpenAPI::CallsCountTracing</title>
<ellipse fill="none" stroke="black" cx="3010" cy="-641" rx="115.88" ry="18"/>
<text text-anchor="middle" x="3010" y="-637.3" font-family="Times,serif" font-size="14.00">OpenAPI::CallsCountTracing</text>
</g>
<!-- OpenAPI::Client&#45;&gt;OpenAPI::CallsCountTracing -->
<g id="edge6" class="edge"><title>OpenAPI::Client&#45;&gt;OpenAPI::CallsCountTracing</title>
<path fill="none" stroke="#fedab6" d="M3010,-708.451C3010,-696.315 3010,-681.795 3010,-669.427"/>
<ellipse fill="none" stroke="#fedab6" cx="3010" cy="-712.696" rx="4" ry="4"/>
<polygon fill="#fedab6" stroke="#fedab6" points="3010,-669.227 3014.5,-659.227 3010,-664.227 3010,-659.227 3010,-659.227 3010,-659.227 3010,-664.227 3005.5,-659.227 3010,-669.227 3010,-669.227"/>
</g>
<!-- OpenAPI::ParameterError -->
<g id="node10" class="node"><title>OpenAPI::ParameterError</title>
<polygon fill="none" stroke="black" points="3305.5,-753 3146.5,-753 3146.5,-717 3305.5,-717 3305.5,-753"/>
<text text-anchor="middle" x="3226" y="-731.3" font-family="Times,serif" font-size="14.00">OpenAPI::ParameterError</text>
</g>
<!-- UserAvatar -->
<g id="node11" class="node"><title>UserAvatar</title>
<ellipse fill="none" stroke="black" cx="249" cy="-446" rx="51.1914" ry="18"/>
<text text-anchor="middle" x="249" y="-442.3" font-family="Times,serif" font-size="14.00">UserAvatar</text>
</g>
<!-- ProjectImage -->
<g id="node12" class="node"><title>ProjectImage</title>
<ellipse fill="none" stroke="black" cx="986" cy="-446" rx="57.6901" ry="18"/>
<text text-anchor="middle" x="986" y="-442.3" font-family="Times,serif" font-size="14.00">ProjectImage</text>
</g>
<!-- Tag -->
<g id="node13" class="node"><title>Tag</title>
<ellipse fill="none" stroke="black" cx="2214" cy="-735" rx="27" ry="18"/>
<text text-anchor="middle" x="2214" y="-731.3" font-family="Times,serif" font-size="14.00">Tag</text>
</g>
<!-- Tag&#45;&gt;AvailabilityTag -->
<g id="edge9" class="edge"><title>Tag&#45;&gt;AvailabilityTag</title>
<path fill="none" stroke="#14982f" d="M2248.25,-729.261C2301.12,-720.915 2404.68,-700.409 2483,-659 2521.24,-638.781 2556.97,-603.238 2578.41,-579.407"/>
<ellipse fill="none" stroke="#14982f" cx="2244.17" cy="-729.89" rx="4.00001" ry="4.00001"/>
<polygon fill="#14982f" stroke="#14982f" points="2578.49,-579.31 2588.48,-574.792 2581.8,-575.562 2585.11,-571.813 2585.11,-571.813 2585.11,-571.813 2581.8,-575.562 2581.74,-568.835 2578.49,-579.31 2578.49,-579.31"/>
</g>
<!-- Tag&#45;&gt;User -->
<g id="edge8" class="edge"><title>Tag&#45;&gt;User</title>
<path fill="none" stroke="#2040b5" d="M2177.22,-730.537C2022.94,-716.009 1428.81,-660.062 1274.04,-645.488"/>
<polygon fill="#2040b5" stroke="#2040b5" points="2177.4,-730.554 2186.94,-735.972 2182.38,-731.023 2187.36,-731.492 2187.36,-731.492 2187.36,-731.492 2182.38,-731.023 2187.78,-727.011 2177.4,-730.554 2177.4,-730.554"/>
<polygon fill="#2040b5" stroke="#2040b5" points="1274.03,-645.487 1264.5,-640.069 1269.05,-645.018 1264.08,-644.55 1264.08,-644.55 1264.08,-644.55 1269.05,-645.018 1263.65,-649.03 1274.03,-645.487 1274.03,-645.487"/>
</g>
<!-- Availability -->
<g id="node53" class="node"><title>Availability</title>
<ellipse fill="none" stroke="black" cx="2421" cy="-641" rx="52.7911" ry="18"/>
<text text-anchor="middle" x="2421" y="-637.3" font-family="Times,serif" font-size="14.00">Availability</text>
</g>
<!-- Tag&#45;&gt;Availability -->
<g id="edge10" class="edge"><title>Tag&#45;&gt;Availability</title>
<path fill="none" stroke="#2339f9" d="M2245.09,-720.183C2281.27,-704.103 2341.11,-677.505 2380.8,-659.867"/>
<polygon fill="#2339f9" stroke="#2339f9" points="2244.9,-720.267 2233.93,-720.216 2240.33,-722.298 2235.76,-724.328 2235.76,-724.328 2235.76,-724.328 2240.33,-722.298 2237.59,-728.44 2244.9,-720.267 2244.9,-720.267"/>
<polygon fill="#2339f9" stroke="#2339f9" points="2381.04,-659.759 2392.01,-659.809 2385.61,-657.728 2390.18,-655.697 2390.18,-655.697 2390.18,-655.697 2385.61,-657.728 2388.35,-651.585 2381.04,-659.759 2381.04,-659.759"/>
</g>
<!-- UserTag -->
<g id="node66" class="node"><title>UserTag</title>
<ellipse fill="none" stroke="black" cx="1674" cy="-554" rx="40.8928" ry="18"/>
<text text-anchor="middle" x="1674" y="-550.3" font-family="Times,serif" font-size="14.00">UserTag</text>
</g>
<!-- Tag&#45;&gt;UserTag -->
<g id="edge7" class="edge"><title>Tag&#45;&gt;UserTag</title>
<path fill="none" stroke="#b3a663" d="M2182.61,-723.594C2090.25,-692.979 1819.44,-603.21 1715.38,-568.718"/>
<ellipse fill="none" stroke="#b3a663" cx="2186.65" cy="-724.935" rx="4.00001" ry="4.00001"/>
<polygon fill="#b3a663" stroke="#b3a663" points="1715.34,-568.703 1707.26,-561.285 1710.59,-567.129 1705.85,-565.556 1705.85,-565.556 1705.85,-565.556 1710.59,-567.129 1704.43,-569.828 1715.34,-568.703 1715.34,-568.703"/>
</g>
<!-- Event -->
<g id="node14" class="node"><title>Event</title>
<ellipse fill="none" stroke="black" cx="2772" cy="-554" rx="31.3957" ry="18"/>
<text text-anchor="middle" x="2772" y="-550.3" font-family="Times,serif" font-size="14.00">Event</text>
</g>
<!-- PriceCategory -->
<g id="node27" class="node"><title>PriceCategory</title>
<ellipse fill="none" stroke="black" cx="3051" cy="-446" rx="61.1893" ry="18"/>
<text text-anchor="middle" x="3051" y="-442.3" font-family="Times,serif" font-size="14.00">PriceCategory</text>
</g>
<!-- Event&#45;&gt;PriceCategory -->
<g id="edge16" class="edge"><title>Event&#45;&gt;PriceCategory</title>
<path fill="none" stroke="#efc87f" d="M2810.41,-544.337C2836.12,-538.092 2870.52,-528.87 2900,-518 2939.73,-503.352 2983.32,-482.282 3013.41,-466.901"/>
<polygon fill="#efc87f" stroke="#efc87f" points="2810.39,-544.342 2799.61,-542.286 2805.52,-545.503 2800.66,-546.664 2800.66,-546.664 2800.66,-546.664 2805.52,-545.503 2801.7,-551.041 2810.39,-544.342 2810.39,-544.342"/>
<polygon fill="#efc87f" stroke="#efc87f" points="3013.8,-466.703 3024.75,-466.122 3018.24,-464.412 3022.68,-462.122 3022.68,-462.122 3022.68,-462.122 3018.24,-464.412 3020.62,-458.122 3013.8,-466.703 3013.8,-466.703"/>
</g>
<!-- EventTheme -->
<g id="node38" class="node"><title>EventTheme</title>
<ellipse fill="none" stroke="black" cx="2644" cy="-446" rx="55.7903" ry="18"/>
<text text-anchor="middle" x="2644" y="-442.3" font-family="Times,serif" font-size="14.00">EventTheme</text>
</g>
<!-- Event&#45;&gt;EventTheme -->
<g id="edge14" class="edge"><title>Event&#45;&gt;EventTheme</title>
<path fill="none" stroke="#5ed08a" d="M2746.96,-532.261C2725.19,-514.234 2693.72,-488.172 2671.31,-469.614"/>
<polygon fill="#5ed08a" stroke="#5ed08a" points="2747.04,-532.326 2751.87,-542.17 2750.89,-535.515 2754.74,-538.704 2754.74,-538.704 2754.74,-538.704 2750.89,-535.515 2757.61,-535.239 2747.04,-532.326 2747.04,-532.326"/>
<polygon fill="#5ed08a" stroke="#5ed08a" points="2671.2,-469.524 2666.37,-459.68 2667.35,-466.335 2663.5,-463.146 2663.5,-463.146 2663.5,-463.146 2667.35,-466.335 2660.63,-466.612 2671.2,-469.524 2671.2,-469.524"/>
</g>
<!-- EventImage -->
<g id="node43" class="node"><title>EventImage</title>
<ellipse fill="none" stroke="black" cx="2772" cy="-446" rx="53.8905" ry="18"/>
<text text-anchor="middle" x="2772" y="-442.3" font-family="Times,serif" font-size="14.00">EventImage</text>
</g>
<!-- Event&#45;&gt;EventImage -->
<g id="edge11" class="edge"><title>Event&#45;&gt;EventImage</title>
<path fill="none" stroke="#9a454c" d="M2772,-527.795C2772,-511.123 2772,-489.335 2772,-472.586"/>
<ellipse fill="none" stroke="#9a454c" cx="2772" cy="-531.969" rx="4" ry="4"/>
<ellipse fill="#9a454c" stroke="#9a454c" cx="2772" cy="-468.341" rx="4" ry="4"/>
</g>
<!-- Reservation -->
<g id="node58" class="node"><title>Reservation</title>
<ellipse fill="none" stroke="black" cx="2514" cy="-338" rx="52.7911" ry="18"/>
<text text-anchor="middle" x="2514" y="-334.3" font-family="Times,serif" font-size="14.00">Reservation</text>
</g>
<!-- Event&#45;&gt;Reservation -->
<g id="edge13" class="edge"><title>Event&#45;&gt;Reservation</title>
<path fill="none" stroke="#a1cece" d="M2735.73,-544.355C2693.35,-532.604 2623.39,-507.851 2579,-464 2550.76,-436.105 2532.21,-393.35 2522.4,-365.782"/>
<ellipse fill="none" stroke="#a1cece" cx="2739.7" cy="-545.426" rx="4.00001" ry="4.00001"/>
<polygon fill="#a1cece" stroke="#a1cece" points="2522.3,-365.486 2523.33,-354.568 2520.69,-360.754 2519.07,-356.022 2519.07,-356.022 2519.07,-356.022 2520.69,-360.754 2514.82,-357.475 2522.3,-365.486 2522.3,-365.486"/>
</g>
<!-- EventPriceCategory -->
<g id="node64" class="node"><title>EventPriceCategory</title>
<ellipse fill="none" stroke="black" cx="2854" cy="-338" rx="81.4863" ry="18"/>
<text text-anchor="middle" x="2854" y="-334.3" font-family="Times,serif" font-size="14.00">EventPriceCategory</text>
</g>
<!-- Event&#45;&gt;EventPriceCategory -->
<g id="edge15" class="edge"><title>Event&#45;&gt;EventPriceCategory</title>
<path fill="none" stroke="#5acf5d" d="M2791.8,-531.281C2806.17,-514.246 2824.81,-489.263 2835,-464 2847.86,-432.116 2852.1,-392.456 2853.45,-366.47"/>
<ellipse fill="none" stroke="#5acf5d" cx="2788.94" cy="-534.597" rx="4.00002" ry="4.00002"/>
<polygon fill="#5acf5d" stroke="#5acf5d" points="2853.46,-366.225 2858.36,-356.417 2853.66,-361.229 2853.87,-356.233 2853.87,-356.233 2853.87,-356.233 2853.66,-361.229 2849.37,-356.049 2853.46,-366.225 2853.46,-366.225"/>
</g>
<!-- EventFile -->
<g id="node65" class="node"><title>EventFile</title>
<ellipse fill="none" stroke="black" cx="2927" cy="-446" rx="44.6926" ry="18"/>
<text text-anchor="middle" x="2927" y="-442.3" font-family="Times,serif" font-size="14.00">EventFile</text>
</g>
<!-- Event&#45;&gt;EventFile -->
<g id="edge12" class="edge"><title>Event&#45;&gt;EventFile</title>
<path fill="none" stroke="#85104b" d="M2808.6,-544.58C2827.49,-539.064 2850.23,-530.512 2868,-518 2885.31,-505.812 2900.46,-487.302 2911.08,-472.237"/>
<ellipse fill="none" stroke="#85104b" cx="2804.62" cy="-545.689" rx="4.00001" ry="4.00001"/>
<polygon fill="#85104b" stroke="#85104b" points="2911.16,-472.109 2920.51,-466.368 2913.97,-467.974 2916.78,-463.838 2916.78,-463.838 2916.78,-463.838 2913.97,-467.974 2913.06,-461.309 2911.16,-472.109 2911.16,-472.109"/>
</g>
<!-- StatisticSubType -->
<g id="node15" class="node"><title>StatisticSubType</title>
<ellipse fill="none" stroke="black" cx="3418" cy="-735" rx="70.6878" ry="18"/>
<text text-anchor="middle" x="3418" y="-731.3" font-family="Times,serif" font-size="14.00">StatisticSubType</text>
</g>
<!-- StatisticType -->
<g id="node32" class="node"><title>StatisticType</title>
<ellipse fill="none" stroke="black" cx="3355" cy="-641" rx="57.3905" ry="18"/>
<text text-anchor="middle" x="3355" y="-637.3" font-family="Times,serif" font-size="14.00">StatisticType</text>
</g>
<!-- StatisticSubType&#45;&gt;StatisticType -->
<g id="edge18" class="edge"><title>StatisticSubType&#45;&gt;StatisticType</title>
<path fill="none" stroke="#cb62c0" d="M3400.73,-708.781C3391.87,-695.848 3381.12,-680.14 3372.26,-667.208"/>
<polygon fill="#cb62c0" stroke="#cb62c0" points="3400.79,-708.875 3402.73,-719.668 3403.62,-713 3406.44,-717.126 3406.44,-717.126 3406.44,-717.126 3403.62,-713 3410.16,-714.583 3400.79,-708.875 3400.79,-708.875"/>
<polygon fill="#cb62c0" stroke="#cb62c0" points="3372.13,-667.018 3370.19,-656.225 3369.31,-662.893 3366.48,-658.767 3366.48,-658.767 3366.48,-658.767 3369.31,-662.893 3362.77,-661.31 3372.13,-667.018 3372.13,-667.018"/>
</g>
<!-- StatisticTypeSubType -->
<g id="node76" class="node"><title>StatisticTypeSubType</title>
<ellipse fill="none" stroke="black" cx="3495" cy="-554" rx="89.0842" ry="18"/>
<text text-anchor="middle" x="3495" y="-550.3" font-family="Times,serif" font-size="14.00">StatisticTypeSubType</text>
</g>
<!-- StatisticSubType&#45;&gt;StatisticTypeSubType -->
<g id="edge17" class="edge"><title>StatisticSubType&#45;&gt;StatisticTypeSubType</title>
<path fill="none" stroke="#f79830" d="M3428.74,-709.024C3443.2,-675.414 3468.81,-615.885 3483.6,-581.507"/>
<ellipse fill="none" stroke="#f79830" cx="3426.96" cy="-713.162" rx="4.00001" ry="4.00001"/>
<polygon fill="#f79830" stroke="#f79830" points="3483.69,-581.297 3491.77,-573.89 3485.66,-576.704 3487.64,-572.111 3487.64,-572.111 3487.64,-572.111 3485.66,-576.704 3483.51,-570.333 3483.69,-581.297 3483.69,-581.297"/>
</g>
<!-- Project -->
<g id="node16" class="node"><title>Project</title>
<ellipse fill="none" stroke="black" cx="858" cy="-554" rx="35.9954" ry="18"/>
<text text-anchor="middle" x="858" y="-550.3" font-family="Times,serif" font-size="14.00">Project</text>
</g>
<!-- Project&#45;&gt;ProjectImage -->
<g id="edge19" class="edge"><title>Project&#45;&gt;ProjectImage</title>
<path fill="none" stroke="#fe5da0" d="M882.033,-533.098C904.327,-514.636 937.409,-487.239 960.24,-468.332"/>
<ellipse fill="none" stroke="#fe5da0" cx="878.879" cy="-535.71" rx="4.00002" ry="4.00002"/>
<ellipse fill="#fe5da0" stroke="#fe5da0" cx="963.6" cy="-465.55" rx="4.00002" ry="4.00002"/>
</g>
<!-- Project&#45;&gt;User -->
<g id="edge25" class="edge"><title>Project&#45;&gt;User</title>
<path fill="none" stroke="#bee553" d="M886.916,-574.853C903.947,-585.553 926.339,-597.97 948,-605 1034.94,-633.214 1143.27,-639.032 1199.38,-640.016"/>
<polygon fill="#bee553" stroke="#bee553" points="886.448,-574.551 880.485,-565.348 882.247,-571.84 878.045,-569.129 878.045,-569.129 878.045,-569.129 882.247,-571.84 875.606,-572.911 886.448,-574.551 886.448,-574.551"/>
<polygon fill="#bee553" stroke="#bee553" points="1199.56,-640.019 1209.5,-644.651 1204.56,-640.085 1209.56,-640.151 1209.56,-640.151 1209.56,-640.151 1204.56,-640.085 1209.62,-635.652 1199.56,-640.019 1199.56,-640.019"/>
</g>
<!-- Theme -->
<g id="node47" class="node"><title>Theme</title>
<ellipse fill="none" stroke="black" cx="634" cy="-446" rx="35.9954" ry="18"/>
<text text-anchor="middle" x="634" y="-442.3" font-family="Times,serif" font-size="14.00">Theme</text>
</g>
<!-- Project&#45;&gt;Theme -->
<g id="edge23" class="edge"><title>Project&#45;&gt;Theme</title>
<path fill="none" stroke="#dc52d6" d="M821.856,-537.867C807.782,-531.848 791.565,-524.757 777,-518 739.048,-500.394 696.138,-478.867 667.31,-464.164"/>
<polygon fill="#dc52d6" stroke="#dc52d6" points="822.008,-537.932 829.449,-545.986 826.609,-539.888 831.21,-541.845 831.21,-541.845 831.21,-541.845 826.609,-539.888 832.971,-537.704 822.008,-537.932 822.008,-537.932"/>
<polygon fill="#dc52d6" stroke="#dc52d6" points="667.004,-464.007 660.15,-455.448 662.553,-461.731 658.101,-459.454 658.101,-459.454 658.101,-459.454 662.553,-461.731 656.052,-463.461 667.004,-464.007 667.004,-464.007"/>
</g>
<!-- ProjectCao -->
<g id="node48" class="node"><title>ProjectCao</title>
<ellipse fill="none" stroke="black" cx="738" cy="-446" rx="50.0912" ry="18"/>
<text text-anchor="middle" x="738" y="-442.3" font-family="Times,serif" font-size="14.00">ProjectCao</text>
</g>
<!-- Project&#45;&gt;ProjectCao -->
<g id="edge20" class="edge"><title>Project&#45;&gt;ProjectCao</title>
<path fill="none" stroke="#f8092e" d="M834.909,-532.603C814.512,-514.585 784.809,-488.348 763.672,-469.677"/>
<ellipse fill="none" stroke="#f8092e" cx="838.064" cy="-535.389" rx="4.00002" ry="4.00002"/>
<polygon fill="#f8092e" stroke="#f8092e" points="763.523,-469.545 759.007,-459.552 759.775,-466.235 756.028,-462.925 756.028,-462.925 756.028,-462.925 759.775,-466.235 753.049,-466.297 763.523,-469.545 763.523,-469.545"/>
</g>
<!-- ProjectStep -->
<g id="node57" class="node"><title>ProjectStep</title>
<ellipse fill="none" stroke="black" cx="529" cy="-446" rx="51.1914" ry="18"/>
<text text-anchor="middle" x="529" y="-442.3" font-family="Times,serif" font-size="14.00">ProjectStep</text>
</g>
<!-- Project&#45;&gt;ProjectStep -->
<g id="edge26" class="edge"><title>Project&#45;&gt;ProjectStep</title>
<path fill="none" stroke="#7ed8a1" d="M816.494,-545.566C784.993,-539.459 740.806,-529.892 703,-518 655.491,-503.056 602.773,-480.689 567.951,-465.066"/>
<ellipse fill="none" stroke="#7ed8a1" cx="820.692" cy="-546.368" rx="4.00001" ry="4.00001"/>
<polygon fill="#7ed8a1" stroke="#7ed8a1" points="567.735,-464.968 560.476,-456.749 563.179,-462.909 558.623,-460.849 558.623,-460.849 558.623,-460.849 563.179,-462.909 556.769,-464.95 567.735,-464.968 567.735,-464.968"/>
</g>
<!-- ProjectUser -->
<g id="node74" class="node"><title>ProjectUser</title>
<ellipse fill="none" stroke="black" cx="408" cy="-446" rx="51.9908" ry="18"/>
<text text-anchor="middle" x="408" y="-442.3" font-family="Times,serif" font-size="14.00">ProjectUser</text>
</g>
<!-- Project&#45;&gt;ProjectUser -->
<g id="edge24" class="edge"><title>Project&#45;&gt;ProjectUser</title>
<path fill="none" stroke="#8fa071" d="M814.457,-549.806C763.445,-545.422 676.66,-535.954 604,-518 548.775,-504.355 487.477,-480.7 448.382,-464.471"/>
<ellipse fill="none" stroke="#8fa071" cx="818.649" cy="-550.158" rx="4" ry="4"/>
<polygon fill="#8fa071" stroke="#8fa071" points="448.162,-464.379 440.677,-456.365 443.55,-462.447 438.939,-460.516 438.939,-460.516 438.939,-460.516 443.55,-462.447 437.2,-464.666 448.162,-464.379 448.162,-464.379"/>
</g>
<!-- Machine -->
<g id="node82" class="node"><title>Machine</title>
<ellipse fill="none" stroke="black" cx="1909" cy="-446" rx="42.4939" ry="18"/>
<text text-anchor="middle" x="1909" y="-442.3" font-family="Times,serif" font-size="14.00">Machine</text>
</g>
<!-- Project&#45;&gt;Machine -->
<g id="edge21" class="edge"><title>Project&#45;&gt;Machine</title>
<path fill="none" stroke="#87e863" d="M903.626,-549.208C1038.22,-537.892 1445.3,-502.738 1782,-464 1807.6,-461.054 1836.04,-457.293 1859.51,-454.058"/>
<polygon fill="#87e863" stroke="#87e863" points="903.262,-549.238 892.921,-545.59 898.28,-549.656 893.297,-550.075 893.297,-550.075 893.297,-550.075 898.28,-549.656 893.674,-554.559 903.262,-549.238 903.262,-549.238"/>
<polygon fill="#87e863" stroke="#87e863" points="1859.67,-454.036 1870.19,-457.118 1864.62,-453.348 1869.57,-452.66 1869.57,-452.66 1869.57,-452.66 1864.62,-453.348 1868.96,-448.203 1859.67,-454.036 1859.67,-454.036"/>
</g>
<!-- Component -->
<g id="node84" class="node"><title>Component</title>
<ellipse fill="none" stroke="black" cx="858" cy="-446" rx="51.9908" ry="18"/>
<text text-anchor="middle" x="858" y="-442.3" font-family="Times,serif" font-size="14.00">Component</text>
</g>
<!-- Project&#45;&gt;Component -->
<g id="edge22" class="edge"><title>Project&#45;&gt;Component</title>
<path fill="none" stroke="#88f692" d="M858,-525.931C858,-510.187 858,-490.393 858,-474.566"/>
<polygon fill="#88f692" stroke="#88f692" points="858,-525.969 853.5,-535.969 858,-530.969 858,-535.969 858,-535.969 858,-535.969 858,-530.969 862.5,-535.969 858,-525.969 858,-525.969"/>
<polygon fill="#88f692" stroke="#88f692" points="858,-474.341 862.5,-464.341 858,-469.341 858,-464.341 858,-464.341 858,-464.341 858,-469.341 853.5,-464.341 858,-474.341 858,-474.341"/>
</g>
<!-- CustomAsset -->
<g id="node17" class="node"><title>CustomAsset</title>
<ellipse fill="none" stroke="black" cx="3577" cy="-735" rx="57.6901" ry="18"/>
<text text-anchor="middle" x="3577" y="-731.3" font-family="Times,serif" font-size="14.00">CustomAsset</text>
</g>
<!-- CustomAssetFile -->
<g id="node85" class="node"><title>CustomAssetFile</title>
<ellipse fill="none" stroke="black" cx="3577" cy="-641" rx="71.4873" ry="18"/>
<text text-anchor="middle" x="3577" y="-637.3" font-family="Times,serif" font-size="14.00">CustomAssetFile</text>
</g>
<!-- CustomAsset&#45;&gt;CustomAssetFile -->
<g id="edge27" class="edge"><title>CustomAsset&#45;&gt;CustomAssetFile</title>
<path fill="none" stroke="#b8b65d" d="M3577,-708.451C3577,-695.702 3577,-680.322 3577,-667.57"/>
<ellipse fill="none" stroke="#b8b65d" cx="3577" cy="-712.696" rx="4" ry="4"/>
<ellipse fill="#b8b65d" stroke="#b8b65d" cx="3577" cy="-663.227" rx="4" ry="4"/>
</g>
<!-- AgeRange -->
<g id="node18" class="node"><title>AgeRange</title>
<ellipse fill="none" stroke="black" cx="2685" cy="-641" rx="48.1917" ry="18"/>
<text text-anchor="middle" x="2685" y="-637.3" font-family="Times,serif" font-size="14.00">AgeRange</text>
</g>
<!-- AgeRange&#45;&gt;Event -->
<g id="edge28" class="edge"><title>AgeRange&#45;&gt;Event</title>
<path fill="none" stroke="#4efd70" d="M2707.28,-618.234C2720.28,-605.531 2736.63,-589.555 2749.65,-576.839"/>
<ellipse fill="none" stroke="#4efd70" cx="2704.23" cy="-621.217" rx="4.00002" ry="4.00002"/>
<polygon fill="#4efd70" stroke="#4efd70" points="2749.72,-576.767 2760.02,-572.997 2753.3,-573.273 2756.87,-569.779 2756.87,-569.779 2756.87,-569.779 2753.3,-573.273 2753.73,-566.56 2749.72,-576.767 2749.72,-576.767"/>
</g>
<!-- Wallet -->
<g id="node19" class="node"><title>Wallet</title>
<ellipse fill="none" stroke="black" cx="362" cy="-500" rx="34.394" ry="18"/>
<text text-anchor="middle" x="362" y="-496.3" font-family="Times,serif" font-size="14.00">Wallet</text>
</g>
<!-- WalletTransaction -->
<g id="node62" class="node"><title>WalletTransaction</title>
<ellipse fill="none" stroke="black" cx="378" cy="-392" rx="76.0865" ry="18"/>
<text text-anchor="middle" x="378" y="-388.3" font-family="Times,serif" font-size="14.00">WalletTransaction</text>
</g>
<!-- Wallet&#45;&gt;WalletTransaction -->
<g id="edge29" class="edge"><title>Wallet&#45;&gt;WalletTransaction</title>
<path fill="none" stroke="#8cc7c3" d="M350.2,-474.776C345.027,-460.8 341.287,-443.066 347,-428 348.416,-424.264 350.434,-420.671 352.77,-417.304"/>
<ellipse fill="none" stroke="#8cc7c3" cx="351.843" cy="-478.816" rx="4.00001" ry="4.00001"/>
<polygon fill="#8cc7c3" stroke="#8cc7c3" points="352.813,-417.25 362.579,-412.262 355.94,-413.349 359.068,-409.448 359.068,-409.448 359.068,-409.448 355.94,-413.349 355.556,-406.633 352.813,-417.25 352.813,-417.25"/>
</g>
<!-- Stats::Event -->
<g id="node20" class="node"><title>Stats::Event</title>
<polygon fill="none" stroke="black" points="3735,-753 3653,-753 3653,-717 3735,-717 3735,-753"/>
<text text-anchor="middle" x="3694" y="-731.3" font-family="Times,serif" font-size="14.00">Stats::Event</text>
</g>
<!-- Stats::Project -->
<g id="node21" class="node"><title>Stats::Project</title>
<polygon fill="none" stroke="black" points="3842.5,-753 3753.5,-753 3753.5,-717 3842.5,-717 3842.5,-753"/>
<text text-anchor="middle" x="3798" y="-731.3" font-family="Times,serif" font-size="14.00">Stats::Project</text>
</g>
<!-- Stats::User -->
<g id="node22" class="node"><title>Stats::User</title>
<polygon fill="none" stroke="black" points="3937,-753 3861,-753 3861,-717 3937,-717 3937,-753"/>
<text text-anchor="middle" x="3899" y="-731.3" font-family="Times,serif" font-size="14.00">Stats::User</text>
</g>
<!-- Stats::Subscription -->
<g id="node23" class="node"><title>Stats::Subscription</title>
<polygon fill="none" stroke="black" points="4074.5,-753 3955.5,-753 3955.5,-717 4074.5,-717 4074.5,-753"/>
<text text-anchor="middle" x="4015" y="-731.3" font-family="Times,serif" font-size="14.00">Stats::Subscription</text>
</g>
<!-- Stats::Training -->
<g id="node24" class="node"><title>Stats::Training</title>
<polygon fill="none" stroke="black" points="4189.5,-753 4092.5,-753 4092.5,-717 4189.5,-717 4189.5,-753"/>
<text text-anchor="middle" x="4141" y="-731.3" font-family="Times,serif" font-size="14.00">Stats::Training</text>
</g>
<!-- Stats::Account -->
<g id="node25" class="node"><title>Stats::Account</title>
<polygon fill="none" stroke="black" points="4304,-753 4208,-753 4208,-717 4304,-717 4304,-753"/>
<text text-anchor="middle" x="4256" y="-731.3" font-family="Times,serif" font-size="14.00">Stats::Account</text>
</g>
<!-- Stats::Machine -->
<g id="node26" class="node"><title>Stats::Machine</title>
<polygon fill="none" stroke="black" points="4420,-753 4322,-753 4322,-717 4420,-717 4420,-753"/>
<text text-anchor="middle" x="4371" y="-731.3" font-family="Times,serif" font-size="14.00">Stats::Machine</text>
</g>
<!-- PriceCategory&#45;&gt;EventPriceCategory -->
<g id="edge30" class="edge"><title>PriceCategory&#45;&gt;EventPriceCategory</title>
<path fill="none" stroke="#a626df" d="M3015.52,-425.91C2980.87,-407.265 2928.28,-378.967 2892.6,-359.767"/>
<ellipse fill="none" stroke="#a626df" cx="3019.25" cy="-427.917" rx="4.00002" ry="4.00002"/>
<polygon fill="#a626df" stroke="#a626df" points="2892.27,-359.59 2885.59,-350.889 2887.86,-357.221 2883.46,-354.851 2883.46,-354.851 2883.46,-354.851 2887.86,-357.221 2881.33,-358.814 2892.27,-359.59 2892.27,-359.59"/>
</g>
<!-- Invoice -->
<g id="node28" class="node"><title>Invoice</title>
<ellipse fill="none" stroke="black" cx="1532" cy="-91" rx="37.0935" ry="18"/>
<text text-anchor="middle" x="1532" y="-87.3" font-family="Times,serif" font-size="14.00">Invoice</text>
</g>
<!-- Invoice&#45;&gt;InvoiceItem -->
<g id="edge31" class="edge"><title>Invoice&#45;&gt;InvoiceItem</title>
<path fill="none" stroke="#f58c47" d="M1566.9,-75.5104C1594.2,-64.1725 1632.27,-48.3683 1661.2,-36.3554"/>
<ellipse fill="none" stroke="#f58c47" cx="1563.17" cy="-77.0587" rx="4.00002" ry="4.00002"/>
<polygon fill="#f58c47" stroke="#f58c47" points="1661.4,-36.2734 1672.36,-36.5947 1666.02,-34.356 1670.63,-32.4387 1670.63,-32.4387 1670.63,-32.4387 1666.02,-34.356 1668.91,-28.2827 1661.4,-36.2734 1661.4,-36.2734"/>
</g>
<!-- Invoice&#45;&gt;Invoice -->
<g id="edge32" class="edge"><title>Invoice&#45;&gt;Invoice</title>
<path fill="none" stroke="#0f8c0d" d="M1574.47,-97.3281C1581.89,-96.4844 1587.05,-94.375 1587.05,-91 1587.05,-87.625 1581.89,-85.5156 1574.47,-84.6719"/>
<ellipse fill="none" stroke="#0f8c0d" cx="1570.4" cy="-97.541" rx="4" ry="4"/>
<ellipse fill="#0f8c0d" stroke="#0f8c0d" cx="1570.4" cy="-84.459" rx="4" ry="4"/>
<text text-anchor="middle" x="1601.05" y="-87.3" font-family="Times,serif" font-size="14.00">avoir</text>
</g>
<!-- PlanFile -->
<g id="node29" class="node"><title>PlanFile</title>
<ellipse fill="none" stroke="black" cx="1777" cy="-251" rx="40.0939" ry="18"/>
<text text-anchor="middle" x="1777" y="-247.3" font-family="Times,serif" font-size="14.00">PlanFile</text>
</g>
<!-- OfferDay -->
<g id="node30" class="node"><title>OfferDay</title>
<ellipse fill="none" stroke="black" cx="1286" cy="-178" rx="44.393" ry="18"/>
<text text-anchor="middle" x="1286" y="-174.3" font-family="Times,serif" font-size="14.00">OfferDay</text>
</g>
<!-- OfferDay&#45;&gt;Invoice -->
<g id="edge33" class="edge"><title>OfferDay&#45;&gt;Invoice</title>
<path fill="none" stroke="#8b4ae2" d="M1326.32,-163.067C1372.49,-147.116 1447.59,-121.167 1493.13,-105.43"/>
<ellipse fill="none" stroke="#8b4ae2" cx="1322.45" cy="-164.406" rx="4.00001" ry="4.00001"/>
<polygon fill="#8b4ae2" stroke="#8b4ae2" points="1493.21,-105.405 1504.13,-106.392 1497.93,-103.772 1502.66,-102.139 1502.66,-102.139 1502.66,-102.139 1497.93,-103.772 1501.19,-97.8854 1493.21,-105.405 1493.21,-105.405"/>
</g>
<!-- StatisticIndex -->
<g id="node59" class="node"><title>StatisticIndex</title>
<ellipse fill="none" stroke="black" cx="3329" cy="-554" rx="59.2899" ry="18"/>
<text text-anchor="middle" x="3329" y="-550.3" font-family="Times,serif" font-size="14.00">StatisticIndex</text>
</g>
<!-- StatisticType&#45;&gt;StatisticIndex -->
<g id="edge34" class="edge"><title>StatisticType&#45;&gt;StatisticIndex</title>
<path fill="none" stroke="#0e33e6" d="M3341.3,-615.44C3337.17,-604.359 3333.16,-591.284 3330.47,-580.135"/>
<ellipse fill="none" stroke="#0e33e6" cx="3342.89" cy="-619.485" rx="4.00001" ry="4.00001"/>
<ellipse fill="#0e33e6" stroke="#0e33e6" cx="3329.54" cy="-575.955" rx="4.00001" ry="4.00001"/>
</g>
<!-- StatisticType&#45;&gt;StatisticTypeSubType -->
<g id="edge35" class="edge"><title>StatisticType&#45;&gt;StatisticTypeSubType</title>
<path fill="none" stroke="#2c1691" d="M3387.03,-620.555C3408.63,-607.44 3437.15,-590.125 3459.45,-576.584"/>
<ellipse fill="none" stroke="#2c1691" cx="3383.45" cy="-622.728" rx="4.00002" ry="4.00002"/>
<polygon fill="#2c1691" stroke="#2c1691" points="3459.73,-576.412 3470.62,-575.069 3464.01,-573.817 3468.28,-571.222 3468.28,-571.222 3468.28,-571.222 3464.01,-573.817 3465.95,-567.376 3459.73,-576.412 3459.73,-576.412"/>
</g>
<!-- Address -->
<g id="node33" class="node"><title>Address</title>
<ellipse fill="none" stroke="black" cx="82" cy="-338" rx="39.7935" ry="18"/>
<text text-anchor="middle" x="82" y="-334.3" font-family="Times,serif" font-size="14.00">Address</text>
</g>
<!-- Plan&#45;&gt;Price -->
<g id="edge42" class="edge"><title>Plan&#45;&gt;Price</title>
<path fill="none" stroke="#cdf1fe" d="M1866.99,-328.928C1879.76,-325.933 1894.52,-322.628 1908,-320 1957.48,-310.351 1979.12,-331.511 2020,-302 2028.04,-296.196 2033.79,-287.151 2037.8,-278.342"/>
<ellipse fill="none" stroke="#cdf1fe" cx="1862.81" cy="-329.918" rx="4.00001" ry="4.00001"/>
<polygon fill="#cdf1fe" stroke="#cdf1fe" points="2037.8,-278.331 2045.68,-270.701 2039.65,-273.685 2041.5,-269.039 2041.5,-269.039 2041.5,-269.039 2039.65,-273.685 2037.32,-267.376 2037.8,-278.331 2037.8,-278.331"/>
</g>
<!-- Plan&#45;&gt;PlanFile -->
<g id="edge41" class="edge"><title>Plan&#45;&gt;PlanFile</title>
<path fill="none" stroke="#43708a" d="M1867.96,-330.941C1900.06,-323.702 1940.86,-309.643 1923,-287 1921.36,-284.915 1862.62,-271.297 1820.16,-261.677"/>
<ellipse fill="none" stroke="#43708a" cx="1863.93" cy="-331.8" rx="4.00001" ry="4.00001"/>
<ellipse fill="#43708a" stroke="#43708a" cx="1816.07" cy="-260.753" rx="4.00001" ry="4.00001"/>
</g>
<!-- Credit -->
<g id="node44" class="node"><title>Credit</title>
<ellipse fill="none" stroke="black" cx="1409" cy="-251" rx="32.4942" ry="18"/>
<text text-anchor="middle" x="1409" y="-247.3" font-family="Times,serif" font-size="14.00">Credit</text>
</g>
<!-- Plan&#45;&gt;Credit -->
<g id="edge36" class="edge"><title>Plan&#45;&gt;Credit</title>
<path fill="none" stroke="#5a3fef" d="M1808.98,-320.261C1790.67,-308.894 1764.81,-294.596 1740,-287 1640.03,-256.393 1516.03,-251.567 1451.91,-251.368"/>
<ellipse fill="none" stroke="#5a3fef" cx="1812.46" cy="-322.47" rx="4.00002" ry="4.00002"/>
<polygon fill="#5a3fef" stroke="#5a3fef" points="1451.77,-251.368 1441.77,-246.874 1446.77,-251.371 1441.77,-251.374 1441.77,-251.374 1441.77,-251.374 1446.77,-251.371 1441.77,-255.874 1451.77,-251.368 1451.77,-251.368"/>
</g>
<!-- Plan&#45;&gt;Credit -->
<g id="edge37" class="edge"><title>Plan&#45;&gt;Credit</title>
<path fill="none" stroke="#a00c3d" d="M1814.45,-316.219C1803.13,-305.58 1787.99,-293.523 1772,-287 1714.94,-263.719 1534.75,-255.606 1451.69,-253.055"/>
<ellipse fill="none" stroke="#a00c3d" cx="1817.46" cy="-319.149" rx="4.00002" ry="4.00002"/>
<polygon fill="#a00c3d" stroke="#a00c3d" points="1451.58,-253.052 1441.72,-248.26 1446.58,-252.905 1441.58,-252.758 1441.58,-252.758 1441.58,-252.758 1446.58,-252.905 1441.45,-257.256 1451.58,-253.052 1451.58,-253.052"/>
<text text-anchor="middle" x="1839.5" y="-290.8" font-family="Times,serif" font-size="14.00">training_credits</text>
</g>
<!-- Plan&#45;&gt;Credit -->
<g id="edge38" class="edge"><title>Plan&#45;&gt;Credit</title>
<path fill="none" stroke="#094cc2" d="M1799.18,-332.862C1761.03,-327.789 1698.28,-317.856 1646,-302 1629.8,-297.088 1627.23,-291.811 1611,-287 1556.74,-270.911 1491.94,-261.305 1450.64,-256.336"/>
<ellipse fill="none" stroke="#094cc2" cx="1803.44" cy="-333.415" rx="4.00001" ry="4.00001"/>
<polygon fill="#094cc2" stroke="#094cc2" points="1450.6,-256.331 1441.19,-250.702 1445.63,-255.752 1440.66,-255.172 1440.66,-255.172 1440.66,-255.172 1445.63,-255.752 1440.14,-259.641 1450.6,-256.331 1450.6,-256.331"/>
<text text-anchor="middle" x="1691" y="-290.8" font-family="Times,serif" font-size="14.00">machine_credits</text>
</g>
<!-- Subscription -->
<g id="node55" class="node"><title>Subscription</title>
<ellipse fill="none" stroke="black" cx="1209" cy="-251" rx="55.4913" ry="18"/>
<text text-anchor="middle" x="1209" y="-247.3" font-family="Times,serif" font-size="14.00">Subscription</text>
</g>
<!-- Plan&#45;&gt;Subscription -->
<g id="edge39" class="edge"><title>Plan&#45;&gt;Subscription</title>
<path fill="none" stroke="#089b92" d="M1798.96,-334.801C1711.83,-329.218 1487.08,-314.081 1413,-302 1359.47,-293.271 1299.28,-277.807 1258.24,-266.38"/>
<ellipse fill="none" stroke="#089b92" cx="1803.21" cy="-335.072" rx="4" ry="4"/>
<polygon fill="#089b92" stroke="#089b92" points="1258.12,-266.347 1249.71,-259.31 1253.3,-264.995 1248.49,-263.643 1248.49,-263.643 1248.49,-263.643 1253.3,-264.995 1247.27,-267.975 1258.12,-266.347 1258.12,-266.347"/>
</g>
<!-- PlanImage -->
<g id="node75" class="node"><title>PlanImage</title>
<ellipse fill="none" stroke="black" cx="1911" cy="-251" rx="48.9926" ry="18"/>
<text text-anchor="middle" x="1911" y="-247.3" font-family="Times,serif" font-size="14.00">PlanImage</text>
</g>
<!-- Plan&#45;&gt;PlanImage -->
<g id="edge40" class="edge"><title>Plan&#45;&gt;PlanImage</title>
<path fill="none" stroke="#9cb026" d="M1867.5,-330.385C1895.19,-324.158 1931.32,-314.008 1940,-302 1946.34,-293.231 1942.19,-282.978 1935.27,-274.048"/>
<ellipse fill="none" stroke="#9cb026" cx="1863.49" cy="-331.26" rx="4.00001" ry="4.00001"/>
<ellipse fill="#9cb026" stroke="#9cb026" cx="1932.47" cy="-270.836" rx="4.00002" ry="4.00002"/>
</g>
<!-- MachineFile -->
<g id="node35" class="node"><title>MachineFile</title>
<ellipse fill="none" stroke="black" cx="1973" cy="-338" rx="55.7903" ry="18"/>
<text text-anchor="middle" x="1973" y="-334.3" font-family="Times,serif" font-size="14.00">MachineFile</text>
</g>
<!-- Organization -->
<g id="node36" class="node"><title>Organization</title>
<ellipse fill="none" stroke="black" cx="123" cy="-446" rx="56.59" ry="18"/>
<text text-anchor="middle" x="123" y="-442.3" font-family="Times,serif" font-size="14.00">Organization</text>
</g>
<!-- Organization&#45;&gt;Address -->
<g id="edge43" class="edge"><title>Organization&#45;&gt;Address</title>
<path fill="none" stroke="#a9d23c" d="M113.435,-420.271C106.869,-403.296 98.1874,-380.85 91.6115,-363.849"/>
<ellipse fill="none" stroke="#a9d23c" cx="114.97" cy="-424.239" rx="4.00001" ry="4.00001"/>
<ellipse fill="#a9d23c" stroke="#a9d23c" cx="90.014" cy="-359.719" rx="4.00001" ry="4.00001"/>
</g>
<!-- StatisticGraph -->
<g id="node37" class="node"><title>StatisticGraph</title>
<ellipse fill="none" stroke="black" cx="3193" cy="-446" rx="61.1893" ry="18"/>
<text text-anchor="middle" x="3193" y="-442.3" font-family="Times,serif" font-size="14.00">StatisticGraph</text>
</g>
<!-- OAuth2Mapping -->
<g id="node39" class="node"><title>OAuth2Mapping</title>
<ellipse fill="none" stroke="black" cx="4508" cy="-641" rx="71.4873" ry="18"/>
<text text-anchor="middle" x="4508" y="-637.3" font-family="Times,serif" font-size="14.00">OAuth2Mapping</text>
</g>
<!-- Licence -->
<g id="node40" class="node"><title>Licence</title>
<ellipse fill="none" stroke="black" cx="858" cy="-641" rx="38.1938" ry="18"/>
<text text-anchor="middle" x="858" y="-637.3" font-family="Times,serif" font-size="14.00">Licence</text>
</g>
<!-- Licence&#45;&gt;Project -->
<g id="edge44" class="edge"><title>Licence&#45;&gt;Project</title>
<path fill="none" stroke="#3efb05" d="M858,-614.694C858,-604.512 858,-592.747 858,-582.367"/>
<ellipse fill="none" stroke="#3efb05" cx="858" cy="-618.799" rx="4" ry="4"/>
<polygon fill="#3efb05" stroke="#3efb05" points="858,-582.175 862.5,-572.175 858,-577.175 858,-572.175 858,-572.175 858,-572.175 858,-577.175 853.5,-572.175 858,-582.175 858,-582.175"/>
</g>
<!-- User&#45;&gt;Project -->
<g id="edge48" class="edge"><title>User&#45;&gt;Project</title>
<path fill="none" stroke="#19777c" d="M1201.68,-637.466C1153.3,-633.439 1064,-624.008 990,-605 971.555,-600.262 926.853,-582.848 894.574,-569.895"/>
<ellipse fill="none" stroke="#19777c" cx="1205.95" cy="-637.812" rx="4" ry="4"/>
<polygon fill="#19777c" stroke="#19777c" points="894.274,-569.774 886.68,-561.864 889.636,-567.906 884.998,-566.038 884.998,-566.038 884.998,-566.038 889.636,-567.906 883.317,-570.212 894.274,-569.774 894.274,-569.774"/>
<text text-anchor="middle" x="1024" y="-593.8" font-family="Times,serif" font-size="14.00">my_projects</text>
</g>
<!-- User&#45;&gt;Wallet -->
<g id="edge60" class="edge"><title>User&#45;&gt;Wallet</title>
<path fill="none" stroke="#de48d4" d="M1201.85,-637.158C1141.97,-632.109 1016.41,-620.616 911,-605 718.609,-576.496 490.837,-528.85 401.105,-509.528"/>
<ellipse fill="none" stroke="#de48d4" cx="1205.87" cy="-637.494" rx="4" ry="4"/>
<ellipse fill="#de48d4" stroke="#de48d4" cx="397.02" cy="-508.647" rx="4.00001" ry="4.00001"/>
</g>
<!-- User&#45;&gt;Invoice -->
<g id="edge58" class="edge"><title>User&#45;&gt;Invoice</title>
<path fill="none" stroke="#67b219" d="M1201.8,-637.974C1141.2,-634.535 1013.22,-627.494 905,-623 653.978,-612.576 590.246,-627.313 340,-605 263.934,-598.218 0,-631.368 0,-555 0,-555 0,-555 0,-177 0,-100.723 1226.69,-92.8947 1484.72,-92.0917"/>
<ellipse fill="none" stroke="#67b219" cx="1205.9" cy="-638.207" rx="4" ry="4"/>
<polygon fill="#67b219" stroke="#67b219" points="1484.89,-92.0913 1494.9,-96.5622 1489.89,-92.0768 1494.89,-92.0622 1494.89,-92.0622 1494.89,-92.0622 1489.89,-92.0768 1494.88,-87.5622 1484.89,-92.0913 1484.89,-92.0913"/>
</g>
<!-- User&#45;&gt;Credit -->
<g id="edge55" class="edge"><title>User&#45;&gt;Credit</title>
<path fill="none" stroke="#34b250" d="M1246.42,-613.615C1258.18,-579.532 1277.96,-518.143 1288,-464 1302.39,-386.374 1254.08,-348.969 1303,-287 1318.2,-267.74 1344.3,-258.97 1366.79,-255.025"/>
<polygon fill="#34b250" stroke="#34b250" points="1246.35,-613.836 1238.8,-621.795 1244.7,-618.557 1243.05,-623.277 1243.05,-623.277 1243.05,-623.277 1244.7,-618.557 1247.3,-624.76 1246.35,-613.836 1246.35,-613.836"/>
<polygon fill="#34b250" stroke="#34b250" points="1366.93,-255.004 1377.48,-257.982 1371.87,-254.268 1376.82,-253.531 1376.82,-253.531 1376.82,-253.531 1371.87,-254.268 1376.15,-249.08 1366.93,-255.004 1366.93,-255.004"/>
</g>
<!-- User&#45;&gt;Credit -->
<g id="edge56" class="edge"><title>User&#45;&gt;Credit</title>
<path fill="none" stroke="#38b7a3" d="M1257.2,-617.546C1260.35,-613.515 1263.42,-609.243 1266,-605 1274.28,-591.389 1273.97,-586.749 1280,-572 1331.47,-446.011 1337.34,-411.637 1392,-287 1393.33,-283.969 1394.77,-280.815 1396.24,-277.698"/>
<polygon fill="#38b7a3" stroke="#38b7a3" points="1257.09,-617.68 1247.25,-622.529 1253.91,-621.536 1250.72,-625.393 1250.72,-625.393 1250.72,-625.393 1253.91,-621.536 1254.19,-628.257 1257.09,-617.68 1257.09,-617.68"/>
<polygon fill="#38b7a3" stroke="#38b7a3" points="1396.27,-277.625 1404.66,-270.561 1398.44,-273.118 1400.6,-268.611 1400.6,-268.611 1400.6,-268.611 1398.44,-273.118 1396.55,-266.662 1396.27,-277.625 1396.27,-277.625"/>
<text text-anchor="middle" x="1377.5" y="-442.3" font-family="Times,serif" font-size="14.00">training_credits</text>
</g>
<!-- User&#45;&gt;Credit -->
<g id="edge57" class="edge"><title>User&#45;&gt;Credit</title>
<path fill="none" stroke="#523f8e" d="M1217.69,-616.551C1206.26,-600.303 1194,-577.605 1194,-555 1194,-555 1194,-555 1194,-337 1194,-299.93 1305.94,-272.102 1368.27,-259.478"/>
<polygon fill="#523f8e" stroke="#523f8e" points="1217.9,-616.843 1220.25,-627.555 1220.88,-620.858 1223.86,-624.872 1223.86,-624.872 1223.86,-624.872 1220.88,-620.858 1227.48,-622.189 1217.9,-616.843 1217.9,-616.843"/>
<polygon fill="#523f8e" stroke="#523f8e" points="1368.39,-259.456 1379.07,-261.927 1373.29,-258.484 1378.2,-257.513 1378.2,-257.513 1378.2,-257.513 1373.29,-258.484 1377.32,-253.098 1368.39,-259.456 1368.39,-259.456"/>
<text text-anchor="middle" x="1239" y="-442.3" font-family="Times,serif" font-size="14.00">machine_credits</text>
</g>
<!-- Role -->
<g id="node49" class="node"><title>Role</title>
<ellipse fill="none" stroke="black" cx="1084" cy="-251" rx="27.0966" ry="18"/>
<text text-anchor="middle" x="1084" y="-247.3" font-family="Times,serif" font-size="14.00">Role</text>
</g>
<!-- User&#45;&gt;Role -->
<g id="edge46" class="edge"><title>User&#45;&gt;Role</title>
<path fill="none" stroke="#20ee13" d="M1199.57,-637.008C1150.89,-630.838 1072,-612.039 1072,-555 1072,-555 1072,-555 1072,-337 1072,-317.439 1075.15,-295.593 1078.23,-278.947"/>
<polygon fill="#20ee13" stroke="#20ee13" points="1199.82,-637.036 1209.24,-642.643 1204.79,-637.604 1209.75,-638.172 1209.75,-638.172 1209.75,-638.172 1204.79,-637.604 1210.26,-633.701 1199.82,-637.036 1199.82,-637.036"/>
<polygon fill="#20ee13" stroke="#20ee13" points="1078.29,-278.649 1084.62,-269.697 1079.24,-273.742 1080.2,-268.835 1080.2,-268.835 1080.2,-268.835 1079.24,-273.742 1075.79,-267.972 1078.29,-278.649 1078.29,-278.649"/>
</g>
<!-- Notification -->
<g id="node54" class="node"><title>Notification</title>
<ellipse fill="none" stroke="black" cx="1399" cy="-554" rx="53.0913" ry="18"/>
<text text-anchor="middle" x="1399" y="-550.3" font-family="Times,serif" font-size="14.00">Notification</text>
</g>
<!-- User&#45;&gt;Notification -->
<g id="edge45" class="edge"><title>User&#45;&gt;Notification</title>
<path fill="none" stroke="#00ddba" d="M1269.39,-630.635C1288.24,-624.563 1312.13,-615.78 1332,-605 1346.3,-597.24 1360.93,-586.686 1372.85,-577.274"/>
<ellipse fill="none" stroke="#00ddba" cx="1265.47" cy="-631.869" rx="4.00001" ry="4.00001"/>
<polygon fill="#00ddba" stroke="#00ddba" points="1372.86,-577.271 1383.47,-574.49 1376.75,-574.13 1380.64,-570.989 1380.64,-570.989 1380.64,-570.989 1376.75,-574.13 1377.81,-567.487 1372.86,-577.271 1372.86,-577.271"/>
</g>
<!-- User&#45;&gt;Subscription -->
<g id="edge53" class="edge"><title>User&#45;&gt;Subscription</title>
<path fill="none" stroke="#a62697" d="M1202.4,-635.249C1180.59,-630.695 1153.05,-621.888 1134,-605 1115.56,-588.646 1110,-579.65 1110,-555 1110,-555 1110,-555 1110,-337 1110,-305.793 1138.67,-283.559 1165.15,-269.677"/>
<ellipse fill="none" stroke="#a62697" cx="1206.52" cy="-636.04" rx="4.00001" ry="4.00001"/>
<polygon fill="#a62697" stroke="#a62697" points="1165.41,-269.547 1176.37,-269.148 1169.89,-267.331 1174.37,-265.114 1174.37,-265.114 1174.37,-265.114 1169.89,-267.331 1172.38,-261.08 1165.41,-269.547 1165.41,-269.547"/>
</g>
<!-- Training -->
<g id="node56" class="node"><title>Training</title>
<ellipse fill="none" stroke="black" cx="1863" cy="-554" rx="40.8928" ry="18"/>
<text text-anchor="middle" x="1863" y="-550.3" font-family="Times,serif" font-size="14.00">Training</text>
</g>
<!-- User&#45;&gt;Training -->
<g id="edge52" class="edge"><title>User&#45;&gt;Training</title>
<path fill="none" stroke="#08f9ef" d="M1274.68,-637.802C1342.57,-633.549 1489.85,-622.997 1613,-605 1685.11,-594.462 1767.89,-576.795 1817.77,-565.529"/>
<polygon fill="#08f9ef" stroke="#08f9ef" points="1274.46,-637.815 1264.2,-633.939 1269.47,-638.122 1264.48,-638.43 1264.48,-638.43 1264.48,-638.43 1269.47,-638.122 1264.76,-642.922 1274.46,-637.815 1274.46,-637.815"/>
<polygon fill="#08f9ef" stroke="#08f9ef" points="1817.85,-565.512 1828.6,-567.685 1822.72,-564.404 1827.6,-563.297 1827.6,-563.297 1827.6,-563.297 1822.72,-564.404 1826.6,-558.908 1817.85,-565.512 1817.85,-565.512"/>
</g>
<!-- User&#45;&gt;Reservation -->
<g id="edge50" class="edge"><title>User&#45;&gt;Reservation</title>
<path fill="none" stroke="#1c27f9" d="M1272.42,-637.776C1346.27,-632.996 1522.05,-620.878 1669,-605 1890.21,-581.098 1946.78,-574.432 2162,-518 2201.37,-507.678 2300.48,-481.962 2337,-464 2394.88,-435.531 2454.63,-389.12 2487.78,-361.574"/>
<ellipse fill="none" stroke="#1c27f9" cx="1268.33" cy="-638.039" rx="4" ry="4"/>
<polygon fill="#1c27f9" stroke="#1c27f9" points="2487.96,-361.427 2498.51,-358.448 2491.79,-358.213 2495.62,-355 2495.62,-355 2495.62,-355 2491.79,-358.213 2492.73,-351.552 2487.96,-361.427 2487.96,-361.427"/>
</g>
<!-- UsersCredit -->
<g id="node61" class="node"><title>UsersCredit</title>
<ellipse fill="none" stroke="black" cx="1402" cy="-178" rx="52.7911" ry="18"/>
<text text-anchor="middle" x="1402" y="-174.3" font-family="Times,serif" font-size="14.00">UsersCredit</text>
</g>
<!-- User&#45;&gt;UsersCredit -->
<g id="edge54" class="edge"><title>User&#45;&gt;UsersCredit</title>
<path fill="none" stroke="#b4e9d2" d="M1213.68,-621.475C1208.61,-616.558 1203.68,-610.946 1200,-605 1191.94,-591.965 1193.62,-586.891 1190,-572 1163.5,-463.089 1124.67,-417.478 1180,-320 1192.6,-297.803 1204.51,-299.07 1227,-287 1246.34,-276.618 1253.64,-279.353 1273,-269 1310,-249.216 1349.05,-220.764 1374.36,-201.173"/>
<ellipse fill="none" stroke="#b4e9d2" cx="1216.66" cy="-624.206" rx="4.00002" ry="4.00002"/>
<polygon fill="#b4e9d2" stroke="#b4e9d2" points="1374.52,-201.051 1385.17,-198.44 1378.46,-197.973 1382.4,-194.894 1382.4,-194.894 1382.4,-194.894 1378.46,-197.973 1379.63,-191.348 1374.52,-201.051 1374.52,-201.051"/>
</g>
<!-- User&#45;&gt;UserTag -->
<g id="edge59" class="edge"><title>User&#45;&gt;UserTag</title>
<path fill="none" stroke="#118d90" d="M1272.57,-640.889C1336.01,-641.494 1472.24,-638.328 1581,-605 1603.39,-598.14 1626.59,-585.677 1644.22,-574.911"/>
<ellipse fill="none" stroke="#118d90" cx="1268.47" cy="-640.837" rx="4" ry="4"/>
<polygon fill="#118d90" stroke="#118d90" points="1644.42,-574.784 1655.28,-573.288 1648.66,-572.129 1652.89,-569.474 1652.89,-569.474 1652.89,-569.474 1648.66,-572.129 1650.5,-565.661 1644.42,-574.784 1644.42,-574.784"/>
</g>
<!-- Export -->
<g id="node67" class="node"><title>Export</title>
<ellipse fill="none" stroke="black" cx="1505" cy="-554" rx="34.394" ry="18"/>
<text text-anchor="middle" x="1505" y="-550.3" font-family="Times,serif" font-size="14.00">Export</text>
</g>
<!-- User&#45;&gt;Export -->
<g id="edge61" class="edge"><title>User&#45;&gt;Export</title>
<path fill="none" stroke="#812a98" d="M1269.51,-631.116C1313.36,-618.91 1393.72,-595.754 1461,-572 1463.52,-571.111 1466.11,-570.172 1468.72,-569.211"/>
<ellipse fill="none" stroke="#812a98" cx="1265.62" cy="-632.196" rx="4.00001" ry="4.00001"/>
<polygon fill="#812a98" stroke="#812a98" points="1468.74,-569.201 1479.68,-569.892 1473.42,-567.441 1478.1,-565.68 1478.1,-565.68 1478.1,-565.68 1473.42,-567.441 1476.52,-561.468 1468.74,-569.201 1468.74,-569.201"/>
</g>
<!-- UserTraining -->
<g id="node73" class="node"><title>UserTraining</title>
<ellipse fill="none" stroke="black" cx="1519" cy="-446" rx="57.6901" ry="18"/>
<text text-anchor="middle" x="1519" y="-442.3" font-family="Times,serif" font-size="14.00">UserTraining</text>
</g>
<!-- User&#45;&gt;UserTraining -->
<g id="edge51" class="edge"><title>User&#45;&gt;UserTraining</title>
<path fill="none" stroke="#0f88a6" d="M1272.25,-637.691C1346.24,-632.032 1513.73,-614.693 1548,-572 1570.93,-543.437 1552.44,-500.003 1536.28,-472.582"/>
<ellipse fill="none" stroke="#0f88a6" cx="1268.12" cy="-637.998" rx="4" ry="4"/>
<polygon fill="#0f88a6" stroke="#0f88a6" points="1536.2,-472.452 1534.79,-461.579 1533.58,-468.197 1530.96,-463.941 1530.96,-463.941 1530.96,-463.941 1533.58,-468.197 1527.12,-466.303 1536.2,-472.452 1536.2,-472.452"/>
</g>
<!-- User&#45;&gt;ProjectUser -->
<g id="edge49" class="edge"><title>User&#45;&gt;ProjectUser</title>
<path fill="none" stroke="#7a2965" d="M1201.99,-636.914C1072.52,-625.1 621.702,-580.257 493,-518 469.051,-506.415 446.161,-486.613 430.18,-470.861"/>
<ellipse fill="none" stroke="#7a2965" cx="1206.06" cy="-637.284" rx="4" ry="4"/>
<polygon fill="#7a2965" stroke="#7a2965" points="429.943,-470.621 426.117,-460.344 426.429,-467.064 422.916,-463.506 422.916,-463.506 422.916,-463.506 426.429,-467.064 419.714,-466.669 429.943,-470.621 429.943,-470.621"/>
</g>
<!-- Profile -->
<g id="node86" class="node"><title>Profile</title>
<ellipse fill="none" stroke="black" cx="186" cy="-554" rx="34.394" ry="18"/>
<text text-anchor="middle" x="186" y="-550.3" font-family="Times,serif" font-size="14.00">Profile</text>
</g>
<!-- User&#45;&gt;Profile -->
<g id="edge47" class="edge"><title>User&#45;&gt;Profile</title>
<path fill="none" stroke="#ca2671" d="M1201.8,-638.045C1141.19,-634.714 1013.21,-627.829 905,-623 694.835,-613.621 640.88,-630.034 432,-605 357.757,-596.102 272.532,-576.672 224.394,-564.824"/>
<ellipse fill="none" stroke="#ca2671" cx="1205.9" cy="-638.271" rx="4" ry="4"/>
<ellipse fill="#ca2671" stroke="#ca2671" cx="220.304" cy="-563.81" rx="4.00001" ry="4.00001"/>
</g>
<!-- ProjectStepImage -->
<g id="node42" class="node"><title>ProjectStepImage</title>
<ellipse fill="none" stroke="black" cx="529" cy="-338" rx="73.387" ry="18"/>
<text text-anchor="middle" x="529" y="-334.3" font-family="Times,serif" font-size="14.00">ProjectStepImage</text>
</g>
<!-- Credit&#45;&gt;UsersCredit -->
<g id="edge62" class="edge"><title>Credit&#45;&gt;UsersCredit</title>
<path fill="none" stroke="#ac965c" d="M1406.51,-224.791C1405.93,-218.832 1405.3,-212.45 1404.7,-206.399"/>
<ellipse fill="none" stroke="#ac965c" cx="1406.91" cy="-228.832" rx="4" ry="4"/>
<polygon fill="#ac965c" stroke="#ac965c" points="1404.66,-205.981 1408.16,-195.587 1404.17,-201.005 1403.68,-196.029 1403.68,-196.029 1403.68,-196.029 1404.17,-201.005 1399.2,-196.47 1404.66,-205.981 1404.66,-205.981"/>
</g>
<!-- PartnerPlan -->
<g id="node45" class="node"><title>PartnerPlan</title>
<ellipse fill="none" stroke="black" cx="1511" cy="-338" rx="51.9908" ry="18"/>
<text text-anchor="middle" x="1511" y="-334.3" font-family="Times,serif" font-size="14.00">PartnerPlan</text>
</g>
<!-- PartnerPlan&#45;&gt;Price -->
<g id="edge69" class="edge"><title>PartnerPlan&#45;&gt;Price</title>
<path fill="none" stroke="#da0c66" d="M1571.11,-335.268C1645.65,-332.235 1776.27,-324.011 1886,-302 1930.67,-293.039 1980.54,-276.338 2012.55,-264.716"/>
<ellipse fill="none" stroke="#da0c66" cx="1566.75" cy="-335.439" rx="4" ry="4"/>
<polygon fill="#da0c66" stroke="#da0c66" points="2012.9,-264.588 2023.84,-265.361 2017.59,-262.863 2022.28,-261.137 2022.28,-261.137 2022.28,-261.137 2017.59,-262.863 2020.73,-256.914 2012.9,-264.588 2012.9,-264.588"/>
</g>
<!-- PartnerPlan&#45;&gt;PlanFile -->
<g id="edge68" class="edge"><title>PartnerPlan&#45;&gt;PlanFile</title>
<path fill="none" stroke="#c8b360" d="M1569.76,-332.741C1627,-327.739 1709.33,-318.023 1737,-302 1747.84,-295.725 1756.88,-285.29 1763.61,-275.571"/>
<ellipse fill="none" stroke="#c8b360" cx="1565.49" cy="-333.105" rx="4" ry="4"/>
<ellipse fill="#c8b360" stroke="#c8b360" cx="1765.92" cy="-272.042" rx="4.00002" ry="4.00002"/>
</g>
<!-- PartnerPlan&#45;&gt;Credit -->
<g id="edge63" class="edge"><title>PartnerPlan&#45;&gt;Credit</title>
<path fill="none" stroke="#11364d" d="M1452.72,-330.851C1434.82,-325.907 1416.96,-317.208 1406,-302 1401.21,-295.353 1400.35,-286.826 1401.18,-278.703"/>
<ellipse fill="none" stroke="#11364d" cx="1457.04" cy="-331.913" rx="4.00001" ry="4.00001"/>
<polygon fill="#11364d" stroke="#11364d" points="1401.19,-278.644 1407.39,-269.6 1402.08,-273.723 1402.96,-268.803 1402.96,-268.803 1402.96,-268.803 1402.08,-273.723 1398.53,-268.005 1401.19,-278.644 1401.19,-278.644"/>
</g>
<!-- PartnerPlan&#45;&gt;Credit -->
<g id="edge64" class="edge"><title>PartnerPlan&#45;&gt;Credit</title>
<path fill="none" stroke="#41dd0a" d="M1461.18,-324.601C1448.35,-319.395 1435.5,-312.114 1426,-302 1420.02,-295.633 1416.14,-287.08 1413.62,-278.851"/>
<ellipse fill="none" stroke="#41dd0a" cx="1464.96" cy="-326.024" rx="4.00001" ry="4.00001"/>
<polygon fill="#41dd0a" stroke="#41dd0a" points="1413.62,-278.838 1415.54,-268.042 1412.39,-273.99 1411.17,-269.141 1411.17,-269.141 1411.17,-269.141 1412.39,-273.99 1406.81,-270.241 1413.62,-278.838 1413.62,-278.838"/>
<text text-anchor="middle" x="1468.5" y="-290.8" font-family="Times,serif" font-size="14.00">training_credits</text>
</g>
<!-- PartnerPlan&#45;&gt;Credit -->
<g id="edge65" class="edge"><title>PartnerPlan&#45;&gt;Credit</title>
<path fill="none" stroke="#17a9f9" d="M1516.64,-311.541C1517.13,-303.056 1515.99,-293.994 1511,-287 1497.47,-268.06 1473.03,-259.261 1451.47,-255.221"/>
<ellipse fill="none" stroke="#17a9f9" cx="1516.15" cy="-315.761" rx="4.00001" ry="4.00001"/>
<polygon fill="#17a9f9" stroke="#17a9f9" points="1451.37,-255.205 1442.2,-249.193 1446.43,-254.421 1441.49,-253.638 1441.49,-253.638 1441.49,-253.638 1446.43,-254.421 1440.79,-258.082 1451.37,-255.205 1451.37,-255.205"/>
<text text-anchor="middle" x="1562" y="-290.8" font-family="Times,serif" font-size="14.00">machine_credits</text>
</g>
<!-- PartnerPlan&#45;&gt;Role -->
<g id="edge70" class="edge"><title>PartnerPlan&#45;&gt;Role</title>
<path fill="none" stroke="#349cba" d="M1454.91,-329.627C1408.84,-323.265 1341.96,-313.33 1284,-302 1221.68,-289.819 1206.48,-284.859 1145,-269 1136.35,-266.77 1127.05,-264.244 1118.39,-261.834"/>
<ellipse fill="none" stroke="#349cba" cx="1459.02" cy="-330.19" rx="4.00001" ry="4.00001"/>
<polygon fill="#349cba" stroke="#349cba" points="1118.2,-261.783 1109.79,-254.75 1113.39,-260.433 1108.58,-259.083 1108.58,-259.083 1108.58,-259.083 1113.39,-260.433 1107.36,-263.416 1118.2,-261.783 1118.2,-261.783"/>
</g>
<!-- PartnerPlan&#45;&gt;Subscription -->
<g id="edge66" class="edge"><title>PartnerPlan&#45;&gt;Subscription</title>
<path fill="none" stroke="#5b37a3" d="M1455.23,-329.432C1418.6,-323.707 1369.89,-314.653 1328,-302 1300.41,-293.665 1270.5,-281.083 1247.57,-270.626"/>
<ellipse fill="none" stroke="#5b37a3" cx="1459.38" cy="-330.067" rx="4.00001" ry="4.00001"/>
<polygon fill="#5b37a3" stroke="#5b37a3" points="1247.28,-270.49 1240.09,-262.209 1242.74,-268.392 1238.2,-266.293 1238.2,-266.293 1238.2,-266.293 1242.74,-268.392 1236.31,-270.378 1247.28,-270.49 1247.28,-270.49"/>
</g>
<!-- PartnerPlan&#45;&gt;PlanImage -->
<g id="edge67" class="edge"><title>PartnerPlan&#45;&gt;PlanImage</title>
<path fill="none" stroke="#e5b6a6" d="M1569.34,-331.799C1620.16,-326.56 1695.57,-317.065 1760,-302 1798.38,-293.025 1840.91,-278.513 1871.03,-267.43"/>
<ellipse fill="none" stroke="#e5b6a6" cx="1565.07" cy="-332.232" rx="4" ry="4"/>
<ellipse fill="#e5b6a6" stroke="#e5b6a6" cx="1875.04" cy="-265.939" rx="4.00001" ry="4.00001"/>
</g>
<!-- OAuth2Provider -->
<g id="node46" class="node"><title>OAuth2Provider</title>
<ellipse fill="none" stroke="black" cx="4508" cy="-735" rx="69.5877" ry="18"/>
<text text-anchor="middle" x="4508" y="-731.3" font-family="Times,serif" font-size="14.00">OAuth2Provider</text>
</g>
<!-- OAuth2Provider&#45;&gt;OAuth2Mapping -->
<g id="edge72" class="edge"><title>OAuth2Provider&#45;&gt;OAuth2Mapping</title>
<path fill="none" stroke="#bc5f63" d="M4508,-708.451C4508,-696.315 4508,-681.795 4508,-669.427"/>
<ellipse fill="none" stroke="#bc5f63" cx="4508" cy="-712.696" rx="4" ry="4"/>
<polygon fill="#bc5f63" stroke="#bc5f63" points="4508,-669.227 4512.5,-659.227 4508,-664.227 4508,-659.227 4508,-659.227 4508,-659.227 4508,-664.227 4503.5,-659.227 4508,-669.227 4508,-669.227"/>
</g>
<!-- AuthProvider -->
<g id="node71" class="node"><title>AuthProvider</title>
<ellipse fill="none" stroke="black" cx="4662" cy="-641" rx="58.4896" ry="18"/>
<text text-anchor="middle" x="4662" y="-637.3" font-family="Times,serif" font-size="14.00">AuthProvider</text>
</g>
<!-- OAuth2Provider&#45;&gt;AuthProvider -->
<g id="edge71" class="edge"><title>OAuth2Provider&#45;&gt;AuthProvider</title>
<path fill="none" stroke="#f175dd" d="M4541.45,-714.015C4567.52,-698.44 4603.52,-676.937 4629.38,-661.49"/>
<ellipse fill="none" stroke="#f175dd" cx="4537.91" cy="-716.133" rx="4.00002" ry="4.00002"/>
<ellipse fill="#f175dd" stroke="#f175dd" cx="4632.95" cy="-659.355" rx="4.00002" ry="4.00002"/>
</g>
<!-- Asset -->
<g id="node50" class="node"><title>Asset</title>
<ellipse fill="none" stroke="black" cx="4791" cy="-735" rx="30.5947" ry="18"/>
<text text-anchor="middle" x="4791" y="-731.3" font-family="Times,serif" font-size="14.00">Asset</text>
</g>
<!-- Project::OpenlabSync -->
<g id="node51" class="node"><title>Project::OpenlabSync</title>
<polygon fill="none" stroke="black" stroke-dasharray="1,5" points="4974.5,-753 4839.5,-753 4839.5,-717 4974.5,-717 4974.5,-753"/>
<text text-anchor="middle" x="4907" y="-731.3" font-family="Times,serif" font-size="14.00">Project::OpenlabSync</text>
</g>
<!-- DatabaseProvider -->
<g id="node52" class="node"><title>DatabaseProvider</title>
<ellipse fill="none" stroke="black" cx="4669" cy="-735" rx="73.387" ry="18"/>
<text text-anchor="middle" x="4669" y="-731.3" font-family="Times,serif" font-size="14.00">DatabaseProvider</text>
</g>
<!-- DatabaseProvider&#45;&gt;AuthProvider -->
<g id="edge73" class="edge"><title>DatabaseProvider&#45;&gt;AuthProvider</title>
<path fill="none" stroke="#c6bc71" d="M4667.06,-708.451C4666.09,-695.702 4664.92,-680.322 4663.95,-667.57"/>
<ellipse fill="none" stroke="#c6bc71" cx="4667.38" cy="-712.707" rx="4" ry="4"/>
<ellipse fill="#c6bc71" stroke="#c6bc71" cx="4663.61" cy="-663.215" rx="4" ry="4"/>
</g>
<!-- Availability&#45;&gt;AvailabilityTag -->
<g id="edge81" class="edge"><title>Availability&#45;&gt;AvailabilityTag</title>
<path fill="none" stroke="#439dc7" d="M2467.44,-625.711C2484.03,-620.011 2502.65,-612.915 2519,-605 2535.73,-596.904 2553.34,-586.164 2567.77,-576.713"/>
<ellipse fill="none" stroke="#439dc7" cx="2463.26" cy="-627.117" rx="4.00001" ry="4.00001"/>
<polygon fill="#439dc7" stroke="#439dc7" points="2567.98,-576.572 2578.8,-574.776 2572.14,-573.801 2576.3,-571.03 2576.3,-571.03 2576.3,-571.03 2572.14,-573.801 2573.81,-567.284 2567.98,-576.572 2567.98,-576.572"/>
</g>
<!-- Availability&#45;&gt;Event -->
<g id="edge80" class="edge"><title>Availability&#45;&gt;Event</title>
<path fill="none" stroke="#f5334f" d="M2470.53,-628.004C2541.93,-610.715 2672.12,-579.186 2735.45,-563.85"/>
<ellipse fill="none" stroke="#f5334f" cx="2466.53" cy="-628.974" rx="4.00001" ry="4.00001"/>
<ellipse fill="#f5334f" stroke="#f5334f" cx="2739.68" cy="-562.827" rx="4.00001" ry="4.00001"/>
</g>
<!-- Availability&#45;&gt;Training -->
<g id="edge77" class="edge"><title>Availability&#45;&gt;Training</title>
<path fill="none" stroke="#d85d7d" d="M2364.42,-630.723C2323.87,-623.946 2267.99,-614.345 2219,-605 2186.89,-598.876 2179.25,-595.337 2147,-590 2065.33,-576.484 1969.66,-565.735 1912.81,-559.877"/>
<polygon fill="#d85d7d" stroke="#d85d7d" points="2364.52,-630.739 2373.65,-636.822 2369.45,-631.561 2374.38,-632.383 2374.38,-632.383 2374.38,-632.383 2369.45,-631.561 2375.12,-627.944 2364.52,-630.739 2364.52,-630.739"/>
<polygon fill="#d85d7d" stroke="#d85d7d" points="1912.61,-559.856 1903.12,-554.364 1907.63,-559.348 1902.66,-558.84 1902.66,-558.84 1902.66,-558.84 1907.63,-559.348 1902.2,-563.317 1912.61,-559.856 1912.61,-559.856"/>
</g>
<!-- Availability&#45;&gt;Reservation -->
<g id="edge79" class="edge"><title>Availability&#45;&gt;Reservation</title>
<path fill="none" stroke="#ce33b9" d="M2431.88,-613.533C2432.97,-610.667 2434.03,-607.782 2435,-605 2465.07,-518.52 2494.03,-413.837 2506.96,-365.644"/>
<polygon fill="#ce33b9" stroke="#ce33b9" points="2431.81,-613.721 2423.96,-621.383 2429.98,-618.375 2428.15,-623.028 2428.15,-623.028 2428.15,-623.028 2429.98,-618.375 2432.34,-624.674 2431.81,-613.721 2431.81,-613.721"/>
<polygon fill="#ce33b9" stroke="#ce33b9" points="2506.96,-365.638 2513.89,-357.138 2508.25,-360.808 2509.54,-355.977 2509.54,-355.977 2509.54,-355.977 2508.25,-360.808 2505.19,-354.816 2506.96,-365.638 2506.96,-365.638"/>
</g>
<!-- Slot -->
<g id="node63" class="node"><title>Slot</title>
<ellipse fill="none" stroke="black" cx="2556" cy="-251" rx="27" ry="18"/>
<text text-anchor="middle" x="2556" y="-247.3" font-family="Times,serif" font-size="14.00">Slot</text>
</g>
<!-- Availability&#45;&gt;Slot -->
<g id="edge78" class="edge"><title>Availability&#45;&gt;Slot</title>
<path fill="none" stroke="#0bc0ea" d="M2442.42,-617.544C2445.81,-613.512 2449.14,-609.239 2452,-605 2521.14,-502.509 2547.69,-476.345 2576,-356 2582.19,-329.698 2574.68,-299.323 2567.16,-278.218"/>
<ellipse fill="none" stroke="#0bc0ea" cx="2439.72" cy="-620.633" rx="4.00002" ry="4.00002"/>
<polygon fill="#0bc0ea" stroke="#0bc0ea" points="2567.08,-278.008 2567.74,-267.062 2565.31,-273.334 2563.53,-268.66 2563.53,-268.66 2563.53,-268.66 2565.31,-273.334 2559.32,-270.259 2567.08,-278.008 2567.08,-278.008"/>
</g>
<!-- MachinesAvailability -->
<g id="node68" class="node"><title>MachinesAvailability</title>
<ellipse fill="none" stroke="black" cx="2356" cy="-338" rx="87.1846" ry="18"/>
<text text-anchor="middle" x="2356" y="-334.3" font-family="Times,serif" font-size="14.00">MachinesAvailability</text>
</g>
<!-- Availability&#45;&gt;MachinesAvailability -->
<g id="edge74" class="edge"><title>Availability&#45;&gt;MachinesAvailability</title>
<path fill="none" stroke="#781e49" d="M2420.72,-614.486C2419.93,-582.999 2417.06,-527.982 2407,-482 2397.82,-440.08 2379.69,-393.644 2367.71,-365.39"/>
<ellipse fill="none" stroke="#781e49" cx="2420.81" cy="-618.717" rx="4" ry="4"/>
<polygon fill="#781e49" stroke="#781e49" points="2367.7,-365.377 2367.88,-354.412 2365.73,-360.784 2363.75,-356.191 2363.75,-356.191 2363.75,-356.191 2365.73,-360.784 2359.62,-357.97 2367.7,-365.377 2367.7,-365.377"/>
</g>
<!-- TrainingsAvailability -->
<g id="node79" class="node"><title>TrainingsAvailability</title>
<ellipse fill="none" stroke="black" cx="2201" cy="-446" rx="86.3847" ry="18"/>
<text text-anchor="middle" x="2201" y="-442.3" font-family="Times,serif" font-size="14.00">TrainingsAvailability</text>
</g>
<!-- Availability&#45;&gt;TrainingsAvailability -->
<g id="edge76" class="edge"><title>Availability&#45;&gt;TrainingsAvailability</title>
<path fill="none" stroke="#0e6bb8" d="M2396.45,-618.467C2354.81,-581.936 2270.66,-508.115 2227.64,-470.372"/>
<ellipse fill="none" stroke="#0e6bb8" cx="2399.61" cy="-621.239" rx="4.00002" ry="4.00002"/>
<polygon fill="#0e6bb8" stroke="#0e6bb8" points="2227.62,-470.356 2223.07,-460.379 2223.87,-467.059 2220.11,-463.762 2220.11,-463.762 2220.11,-463.762 2223.87,-467.059 2217.14,-467.144 2227.62,-470.356 2227.62,-470.356"/>
</g>
<!-- Availability&#45;&gt;Machine -->
<g id="edge75" class="edge"><title>Availability&#45;&gt;Machine</title>
<path fill="none" stroke="#c0fada" d="M2377.39,-623.562C2279.55,-586.682 2043.73,-497.787 1949.19,-462.151"/>
<polygon fill="#c0fada" stroke="#c0fada" points="2377.65,-623.66 2385.42,-631.398 2382.33,-625.424 2387.01,-627.187 2387.01,-627.187 2387.01,-627.187 2382.33,-625.424 2388.6,-622.976 2377.65,-623.66 2377.65,-623.66"/>
<polygon fill="#c0fada" stroke="#c0fada" points="1949.06,-462.1 1941.29,-454.362 1944.38,-460.336 1939.7,-458.573 1939.7,-458.573 1939.7,-458.573 1944.38,-460.336 1938.11,-462.783 1949.06,-462.1 1949.06,-462.1"/>
</g>
<!-- Subscription&#45;&gt;Invoice -->
<g id="edge82" class="edge"><title>Subscription&#45;&gt;Invoice</title>
<path fill="none" stroke="#fe51f2" d="M1208.99,-224.635C1210.38,-204.372 1215.68,-176.692 1233,-160 1268.79,-125.513 1411.43,-105.159 1486.02,-96.6679"/>
<ellipse fill="none" stroke="#fe51f2" cx="1208.79" cy="-228.816" rx="4" ry="4"/>
<polygon fill="#fe51f2" stroke="#fe51f2" points="1486.13,-96.655 1496.57,-100.021 1491.1,-96.1017 1496.07,-95.5483 1496.07,-95.5483 1496.07,-95.5483 1491.1,-96.1017 1495.57,-91.0759 1486.13,-96.655 1486.13,-96.655"/>
</g>
<!-- Subscription&#45;&gt;OfferDay -->
<g id="edge83" class="edge"><title>Subscription&#45;&gt;OfferDay</title>
<path fill="none" stroke="#f891fa" d="M1232.39,-228.437C1241.57,-219.971 1252.11,-210.249 1261.41,-201.678"/>
<ellipse fill="none" stroke="#f891fa" cx="1229.41" cy="-231.177" rx="4.00002" ry="4.00002"/>
<polygon fill="#f891fa" stroke="#f891fa" points="1261.51,-201.582 1271.91,-198.111 1265.19,-198.192 1268.86,-194.803 1268.86,-194.803 1268.86,-194.803 1265.19,-198.192 1265.81,-191.494 1261.51,-201.582 1261.51,-201.582"/>
</g>
<!-- Training&#45;&gt;TrainingImage -->
<g id="edge84" class="edge"><title>Training&#45;&gt;TrainingImage</title>
<path fill="none" stroke="#8d45e3" d="M1892.63,-534.527C1922.82,-515.698 1969.53,-486.577 2000.67,-467.161"/>
<ellipse fill="none" stroke="#8d45e3" cx="1888.97" cy="-536.808" rx="4.00002" ry="4.00002"/>
<ellipse fill="#8d45e3" stroke="#8d45e3" cx="2004.45" cy="-464.805" rx="4.00002" ry="4.00002"/>
</g>
<!-- Training&#45;&gt;TrainingsPricing -->
<g id="edge89" class="edge"><title>Training&#45;&gt;TrainingsPricing</title>
<path fill="none" stroke="#c75c61" d="M1824.04,-539.025C1811.54,-533.533 1798.08,-526.487 1787,-518 1770.47,-505.332 1772.58,-495.82 1757,-482 1751.48,-477.107 1745.22,-472.411 1738.97,-468.135"/>
<ellipse fill="none" stroke="#c75c61" cx="1827.99" cy="-540.688" rx="4.00001" ry="4.00001"/>
<polygon fill="#c75c61" stroke="#c75c61" points="1738.87,-468.072 1732.98,-458.824 1734.69,-465.329 1730.51,-462.586 1730.51,-462.586 1730.51,-462.586 1734.69,-465.329 1728.04,-466.348 1738.87,-468.072 1738.87,-468.072"/>
</g>
<!-- Training&#45;&gt;Plan -->
<g id="edge91" class="edge"><title>Training&#45;&gt;Plan</title>
<path fill="none" stroke="#7cdde0" d="M1859.3,-525.685C1853.72,-484.505 1843.21,-406.991 1837.66,-365.998"/>
<polygon fill="#7cdde0" stroke="#7cdde0" points="1859.33,-525.94 1856.22,-536.454 1860,-530.895 1860.68,-535.849 1860.68,-535.849 1860.68,-535.849 1860,-530.895 1865.14,-535.245 1859.33,-525.94 1859.33,-525.94"/>
<polygon fill="#7cdde0" stroke="#7cdde0" points="1837.64,-365.845 1840.75,-355.331 1836.97,-360.89 1836.29,-355.935 1836.29,-355.935 1836.29,-355.935 1836.97,-360.89 1831.84,-356.54 1837.64,-365.845 1837.64,-365.845"/>
</g>
<!-- Training&#45;&gt;Credit -->
<g id="edge90" class="edge"><title>Training&#45;&gt;Credit</title>
<path fill="none" stroke="#7b61fa" d="M1853.77,-528.162C1841.77,-499.419 1817.97,-452.86 1782,-428 1657.79,-342.163 1581.85,-429.564 1450,-356 1420.9,-339.766 1410.46,-332.901 1398,-302 1395,-294.549 1395.48,-286.126 1397.37,-278.346"/>
<ellipse fill="none" stroke="#7b61fa" cx="1855.35" cy="-532.056" rx="4.00001" ry="4.00001"/>
<polygon fill="#7b61fa" stroke="#7b61fa" points="1397.44,-278.149 1404.77,-269.999 1398.96,-273.388 1400.49,-268.626 1400.49,-268.626 1400.49,-268.626 1398.96,-273.388 1396.2,-267.253 1397.44,-278.149 1397.44,-278.149"/>
</g>
<!-- Training&#45;&gt;Reservation -->
<g id="edge87" class="edge"><title>Training&#45;&gt;Reservation</title>
<path fill="none" stroke="#d1f3d0" d="M1908.32,-544.643C1945.39,-537.732 1999.15,-527.539 2046,-518 2157.39,-495.321 2192.49,-510.987 2296,-464 2357.03,-436.296 2357.96,-405.714 2417,-374 2432.15,-365.862 2449.59,-358.903 2465.47,-353.385"/>
<ellipse fill="none" stroke="#d1f3d0" cx="1904.14" cy="-545.421" rx="4.00001" ry="4.00001"/>
<polygon fill="#d1f3d0" stroke="#d1f3d0" points="2465.64,-353.327 2476.55,-354.402 2470.38,-351.732 2475.11,-350.137 2475.11,-350.137 2475.11,-350.137 2470.38,-351.732 2473.68,-345.872 2465.64,-353.327 2465.64,-353.327"/>
</g>
<!-- Training&#45;&gt;UserTraining -->
<g id="edge88" class="edge"><title>Training&#45;&gt;UserTraining</title>
<path fill="none" stroke="#4357a7" d="M1822.55,-540.535C1759.16,-521.001 1636.6,-483.238 1568.2,-462.16"/>
<ellipse fill="none" stroke="#4357a7" cx="1826.5" cy="-541.754" rx="4.00001" ry="4.00001"/>
<polygon fill="#4357a7" stroke="#4357a7" points="1568.07,-462.12 1559.84,-454.875 1563.29,-460.648 1558.51,-459.176 1558.51,-459.176 1558.51,-459.176 1563.29,-460.648 1557.19,-463.476 1568.07,-462.12 1568.07,-462.12"/>
</g>
<!-- Training&#45;&gt;TrainingsAvailability -->
<g id="edge86" class="edge"><title>Training&#45;&gt;TrainingsAvailability</title>
<path fill="none" stroke="#74484d" d="M1903.19,-540.395C1963.49,-521.484 2077.55,-485.715 2145.67,-464.351"/>
<ellipse fill="none" stroke="#74484d" cx="1899.23" cy="-541.639" rx="4.00001" ry="4.00001"/>
<polygon fill="#74484d" stroke="#74484d" points="2145.84,-464.3 2156.72,-465.601 2150.61,-462.804 2155.38,-461.308 2155.38,-461.308 2155.38,-461.308 2150.61,-462.804 2154.03,-457.014 2145.84,-464.3 2145.84,-464.3"/>
</g>
<!-- Training&#45;&gt;Machine -->
<g id="edge85" class="edge"><title>Training&#45;&gt;Machine</title>
<path fill="none" stroke="#c9666f" d="M1874.42,-526.676C1881.47,-510.445 1890.47,-489.7 1897.52,-473.447"/>
<polygon fill="#c9666f" stroke="#c9666f" points="1874.37,-526.796 1866.26,-534.178 1872.38,-531.383 1870.39,-535.969 1870.39,-535.969 1870.39,-535.969 1872.38,-531.383 1874.52,-537.761 1874.37,-526.796 1874.37,-526.796"/>
<polygon fill="#c9666f" stroke="#c9666f" points="1897.65,-473.162 1905.76,-465.78 1899.64,-468.575 1901.63,-463.988 1901.63,-463.988 1901.63,-463.988 1899.64,-468.575 1897.5,-462.197 1897.65,-473.162 1897.65,-473.162"/>
</g>
<!-- ProjectStep&#45;&gt;ProjectStepImage -->
<g id="edge92" class="edge"><title>ProjectStep&#45;&gt;ProjectStepImage</title>
<path fill="none" stroke="#2be6fd" d="M529,-419.795C529,-403.123 529,-381.335 529,-364.586"/>
<ellipse fill="none" stroke="#2be6fd" cx="529" cy="-423.969" rx="4" ry="4"/>
<ellipse fill="#2be6fd" stroke="#2be6fd" cx="529" cy="-360.341" rx="4" ry="4"/>
</g>
<!-- Reservation&#45;&gt;Invoice -->
<g id="edge95" class="edge"><title>Reservation&#45;&gt;Invoice</title>
<path fill="none" stroke="#880fca" d="M2466.87,-323.889C2461.85,-322.551 2456.83,-321.232 2452,-320 2289.16,-278.439 2249.92,-259.76 2084,-233 1898.56,-203.092 1837.48,-265.555 1663,-196 1617.49,-177.859 1575.07,-138.463 1551.44,-113.704"/>
<ellipse fill="none" stroke="#880fca" cx="2470.84" cy="-324.958" rx="4.00001" ry="4.00001"/>
<ellipse fill="#880fca" stroke="#880fca" cx="1548.58" cy="-110.662" rx="4.00002" ry="4.00002"/>
</g>
<!-- Reservation&#45;&gt;Slot -->
<g id="edge93" class="edge"><title>Reservation&#45;&gt;Slot</title>
<path fill="none" stroke="#164c5f" d="M2525.99,-312.728C2531.41,-301.764 2537.81,-288.804 2543.31,-277.678"/>
<ellipse fill="none" stroke="#164c5f" cx="2524.07" cy="-316.621" rx="4.00002" ry="4.00002"/>
<polygon fill="#164c5f" stroke="#164c5f" points="2543.43,-277.434 2551.9,-270.463 2545.65,-272.952 2547.86,-268.469 2547.86,-268.469 2547.86,-268.469 2545.65,-272.952 2543.83,-266.476 2543.43,-277.434 2543.43,-277.434"/>
</g>
<!-- Ticket -->
<g id="node88" class="node"><title>Ticket</title>
<ellipse fill="none" stroke="black" cx="2702" cy="-251" rx="33.2948" ry="18"/>
<text text-anchor="middle" x="2702" y="-247.3" font-family="Times,serif" font-size="14.00">Ticket</text>
</g>
<!-- Reservation&#45;&gt;Ticket -->
<g id="edge94" class="edge"><title>Reservation&#45;&gt;Ticket</title>
<path fill="none" stroke="#f3421c" d="M2552.31,-319.678C2586.37,-304.282 2635.66,-281.992 2668.26,-267.256"/>
<ellipse fill="none" stroke="#f3421c" cx="2548.27" cy="-321.506" rx="4.00002" ry="4.00002"/>
<polygon fill="#f3421c" stroke="#f3421c" points="2668.28,-267.247 2679.24,-267.228 2672.83,-265.187 2677.39,-263.127 2677.39,-263.127 2677.39,-263.127 2672.83,-265.187 2675.54,-259.027 2668.28,-267.247 2668.28,-267.247"/>
</g>
<!-- StatisticIndex&#45;&gt;StatisticType -->
<g id="edge96" class="edge"><title>StatisticIndex&#45;&gt;StatisticType</title>
<path fill="none" stroke="#e3b22e" d="M3342.65,-579.431C3346.53,-589.819 3350.31,-601.977 3352.99,-612.664"/>
<ellipse fill="none" stroke="#e3b22e" cx="3341.14" cy="-575.607" rx="4.00001" ry="4.00001"/>
<polygon fill="#e3b22e" stroke="#e3b22e" points="3353.08,-613.046 3350.9,-623.793 3354.18,-617.923 3355.29,-622.799 3355.29,-622.799 3355.29,-622.799 3354.18,-617.923 3359.68,-621.805 3353.08,-613.046 3353.08,-613.046"/>
</g>
<!-- StatisticIndex&#45;&gt;StatisticGraph -->
<g id="edge98" class="edge"><title>StatisticIndex&#45;&gt;StatisticGraph</title>
<path fill="none" stroke="#7aed94" d="M3301.72,-531.734C3278.03,-513.271 3243.91,-486.676 3220.23,-468.225"/>
<ellipse fill="none" stroke="#7aed94" cx="3305.19" cy="-534.442" rx="4.00002" ry="4.00002"/>
<ellipse fill="#7aed94" stroke="#7aed94" cx="3217" cy="-465.71" rx="4.00002" ry="4.00002"/>
</g>
<!-- StatisticField -->
<g id="node60" class="node"><title>StatisticField</title>
<ellipse fill="none" stroke="black" cx="3329" cy="-446" rx="57.3905" ry="18"/>
<text text-anchor="middle" x="3329" y="-442.3" font-family="Times,serif" font-size="14.00">StatisticField</text>
</g>
<!-- StatisticIndex&#45;&gt;StatisticField -->
<g id="edge97" class="edge"><title>StatisticIndex&#45;&gt;StatisticField</title>
<path fill="none" stroke="#d2b8e9" d="M3323.15,-527.743C3321.99,-511.577 3321.95,-490.617 3323.02,-474.103"/>
<ellipse fill="none" stroke="#d2b8e9" cx="3323.53" cy="-531.985" rx="4" ry="4"/>
<polygon fill="#d2b8e9" stroke="#d2b8e9" points="3323.04,-473.952 3328.37,-464.372 3323.46,-468.97 3323.89,-463.988 3323.89,-463.988 3323.89,-463.988 3323.46,-468.97 3319.41,-463.605 3323.04,-473.952 3323.04,-473.952"/>
</g>
<!-- StatisticField&#45;&gt;StatisticIndex -->
<g id="edge99" class="edge"><title>StatisticField&#45;&gt;StatisticIndex</title>
<path fill="none" stroke="#47e75e" d="M3334.85,-472.236C3336.05,-489.013 3336.05,-510.962 3334.85,-527.743"/>
<ellipse fill="none" stroke="#47e75e" cx="3334.47" cy="-467.973" rx="4" ry="4"/>
<ellipse fill="#47e75e" stroke="#47e75e" cx="3334.47" cy="-531.985" rx="4" ry="4"/>
</g>
<!-- WalletTransaction&#45;&gt;Invoice -->
<g id="edge100" class="edge"><title>WalletTransaction&#45;&gt;Invoice</title>
<path fill="none" stroke="#e5bbf4" d="M388.241,-366.13C395.145,-347.123 403,-320.094 403,-295.5 403,-295.5 403,-295.5 403,-177 403,-121.658 1276.99,-97.8998 1487.02,-92.9896"/>
<ellipse fill="none" stroke="#e5bbf4" cx="386.777" cy="-370.011" rx="4.00001" ry="4.00001"/>
<ellipse fill="#e5bbf4" stroke="#e5bbf4" cx="1491.08" cy="-92.8956" rx="4" ry="4"/>
</g>
<!-- EventPriceCategory&#45;&gt;Ticket -->
<g id="edge101" class="edge"><title>EventPriceCategory&#45;&gt;Ticket</title>
<path fill="none" stroke="#24ba77" d="M2818.29,-317.029C2792.56,-302.644 2758.18,-283.414 2733.48,-269.603"/>
<ellipse fill="none" stroke="#24ba77" cx="2821.92" cy="-319.06" rx="4.00002" ry="4.00002"/>
<polygon fill="#24ba77" stroke="#24ba77" points="2733.25,-269.477 2726.72,-260.669 2728.89,-267.037 2724.53,-264.596 2724.53,-264.596 2724.53,-264.596 2728.89,-267.037 2722.33,-268.524 2733.25,-269.477 2733.25,-269.477"/>
</g>
<!-- Avoir -->
<g id="node69" class="node"><title>Avoir</title>
<ellipse fill="none" stroke="black" cx="1798" cy="-178" rx="31.3957" ry="18"/>
<text text-anchor="middle" x="1798" y="-174.3" font-family="Times,serif" font-size="14.00">Avoir</text>
</g>
<!-- Avoir&#45;&gt;InvoiceItem -->
<g id="edge102" class="edge"><title>Avoir&#45;&gt;InvoiceItem</title>
<path fill="none" stroke="#18a3fc" d="M1783.84,-153.447C1766.29,-124.264 1736.5,-74.7197 1718.4,-44.6142"/>
<ellipse fill="none" stroke="#18a3fc" cx="1786.13" cy="-157.258" rx="4.00002" ry="4.00002"/>
<polygon fill="#18a3fc" stroke="#18a3fc" points="1718.34,-44.5094 1717.04,-33.6204 1715.76,-40.2243 1713.18,-35.9392 1713.18,-35.9392 1713.18,-35.9392 1715.76,-40.2243 1709.33,-38.2581 1718.34,-44.5094 1718.34,-44.5094"/>
</g>
<!-- Avoir&#45;&gt;Invoice -->
<g id="edge103" class="edge"><title>Avoir&#45;&gt;Invoice</title>
<path fill="none" stroke="#cd332c" d="M1767.49,-162.074C1744.42,-151.23 1711.76,-136.798 1682,-127 1646.21,-115.215 1604.37,-105.8 1573.99,-99.7158"/>
<ellipse fill="none" stroke="#cd332c" cx="1771.31" cy="-163.887" rx="4.00002" ry="4.00002"/>
<ellipse fill="#cd332c" stroke="#cd332c" cx="1570.06" cy="-98.9396" rx="4.00001" ry="4.00001"/>
<text text-anchor="middle" x="1736" y="-130.8" font-family="Times,serif" font-size="14.00">avoir</text>
</g>
<!-- NotificationType -->
<g id="node70" class="node"><title>NotificationType</title>
<polygon fill="none" stroke="black" points="5103,-753 4993,-753 4993,-717 5103,-717 5103,-753"/>
<text text-anchor="middle" x="5048" y="-731.3" font-family="Times,serif" font-size="14.00">NotificationType</text>
</g>
<!-- Stylesheet -->
<g id="node72" class="node"><title>Stylesheet</title>
<ellipse fill="none" stroke="black" cx="5168" cy="-735" rx="46.5926" ry="18"/>
<text text-anchor="middle" x="5168" y="-731.3" font-family="Times,serif" font-size="14.00">Stylesheet</text>
</g>
<!-- Coupon -->
<g id="node77" class="node"><title>Coupon</title>
<ellipse fill="none" stroke="black" cx="1710" cy="-178" rx="38.1938" ry="18"/>
<text text-anchor="middle" x="1710" y="-174.3" font-family="Times,serif" font-size="14.00">Coupon</text>
</g>
<!-- Coupon&#45;&gt;Invoice -->
<g id="edge104" class="edge"><title>Coupon&#45;&gt;Invoice</title>
<path fill="none" stroke="#b2497b" d="M1691.4,-154.659C1682.24,-144.921 1670.49,-134.126 1658,-127 1633.13,-112.813 1602.18,-104.11 1577.18,-98.9302"/>
<ellipse fill="none" stroke="#b2497b" cx="1694.34" cy="-157.895" rx="4.00002" ry="4.00002"/>
<polygon fill="#b2497b" stroke="#b2497b" points="1577.03,-98.9013 1568.08,-92.5683 1572.12,-97.9431 1567.22,-96.9849 1567.22,-96.9849 1567.22,-96.9849 1572.12,-97.9431 1566.35,-101.402 1577.03,-98.9013 1577.03,-98.9013"/>
</g>
<!-- Category -->
<g id="node78" class="node"><title>Category</title>
<ellipse fill="none" stroke="black" cx="2794" cy="-641" rx="42.7926" ry="18"/>
<text text-anchor="middle" x="2794" y="-637.3" font-family="Times,serif" font-size="14.00">Category</text>
</g>
<!-- Category&#45;&gt;Event -->
<g id="edge105" class="edge"><title>Category&#45;&gt;Event</title>
<path fill="none" stroke="#772456" d="M2787.54,-615.028C2784.84,-604.609 2781.7,-592.487 2778.96,-581.875"/>
<ellipse fill="none" stroke="#772456" cx="2788.55" cy="-618.927" rx="4.00001" ry="4.00001"/>
<polygon fill="#772456" stroke="#772456" points="2778.88,-581.566 2780.73,-570.758 2777.62,-576.726 2776.37,-571.885 2776.37,-571.885 2776.37,-571.885 2777.62,-576.726 2772.01,-573.013 2778.88,-581.566 2778.88,-581.566"/>
</g>
<!-- MachineImage -->
<g id="node80" class="node"><title>MachineImage</title>
<ellipse fill="none" stroke="black" cx="2149" cy="-338" rx="64.189" ry="18"/>
<text text-anchor="middle" x="2149" y="-334.3" font-family="Times,serif" font-size="14.00">MachineImage</text>
</g>
<!-- Feed -->
<g id="node81" class="node"><title>Feed</title>
<polygon fill="none" stroke="black" points="5287,-753 5233,-753 5233,-717 5287,-717 5287,-753"/>
<text text-anchor="middle" x="5260" y="-731.3" font-family="Times,serif" font-size="14.00">Feed</text>
</g>
<!-- Machine&#45;&gt;Price -->
<g id="edge109" class="edge"><title>Machine&#45;&gt;Price</title>
<path fill="none" stroke="#a082bd" d="M1946.69,-430.002C1976.97,-415.792 2017.68,-391.335 2038,-356 2051.42,-332.66 2051.95,-301.353 2050.04,-279.205"/>
<ellipse fill="none" stroke="#a082bd" cx="1942.88" cy="-431.738" rx="4.00002" ry="4.00002"/>
<polygon fill="#a082bd" stroke="#a082bd" points="2050.02,-279.085 2053.42,-268.658 2049.49,-274.114 2048.95,-269.143 2048.95,-269.143 2048.95,-269.143 2049.49,-274.114 2044.47,-269.628 2050.02,-279.085 2050.02,-279.085"/>
</g>
<!-- Machine&#45;&gt;Plan -->
<g id="edge112" class="edge"><title>Machine&#45;&gt;Plan</title>
<path fill="none" stroke="#b0e074" d="M1887.07,-421.317C1883.92,-417.614 1880.8,-413.764 1878,-410 1867.1,-395.35 1856.27,-377.931 1848.09,-364.013"/>
<polygon fill="#b0e074" stroke="#b0e074" points="1887.3,-421.585 1890.51,-432.07 1890.6,-425.344 1893.89,-429.103 1893.89,-429.103 1893.89,-429.103 1890.6,-425.344 1897.28,-426.136 1887.3,-421.585 1887.3,-421.585"/>
<polygon fill="#b0e074" stroke="#b0e074" points="1847.89,-363.667 1846.77,-352.759 1845.38,-359.341 1842.88,-355.014 1842.88,-355.014 1842.88,-355.014 1845.38,-359.341 1838.98,-357.27 1847.89,-363.667 1847.89,-363.667"/>
</g>
<!-- Machine&#45;&gt;MachineFile -->
<g id="edge107" class="edge"><title>Machine&#45;&gt;MachineFile</title>
<path fill="none" stroke="#6da86e" d="M1923.19,-421.504C1933.33,-404.701 1946.98,-382.092 1957.43,-364.791"/>
<ellipse fill="none" stroke="#6da86e" cx="1921.07" cy="-425.013" rx="4.00002" ry="4.00002"/>
<polygon fill="#6da86e" stroke="#6da86e" points="1957.69,-364.357 1966.71,-358.122 1960.27,-360.076 1962.86,-355.796 1962.86,-355.796 1962.86,-355.796 1960.27,-360.076 1959.01,-353.47 1957.69,-364.357 1957.69,-364.357"/>
</g>
<!-- Machine&#45;&gt;Credit -->
<g id="edge111" class="edge"><title>Machine&#45;&gt;Credit</title>
<path fill="none" stroke="#b0def2" d="M1909.01,-419.571C1908.44,-379.525 1904.81,-304.51 1886,-287 1878.08,-279.627 1566.68,-261.049 1451.37,-254.407"/>
<ellipse fill="none" stroke="#b0def2" cx="1909.05" cy="-423.785" rx="4" ry="4"/>
<polygon fill="#b0def2" stroke="#b0def2" points="1451.14,-254.394 1441.42,-249.328 1446.15,-254.107 1441.16,-253.821 1441.16,-253.821 1441.16,-253.821 1446.15,-254.107 1440.9,-258.313 1451.14,-254.394 1451.14,-254.394"/>
</g>
<!-- Machine&#45;&gt;Reservation -->
<g id="edge110" class="edge"><title>Machine&#45;&gt;Reservation</title>
<path fill="none" stroke="#bd3038" d="M1947.58,-431.049C1951.74,-429.875 1955.93,-428.824 1960,-428 2060.93,-407.566 2089.04,-424.461 2191,-410 2308.28,-393.366 2336.82,-383.676 2452,-356 2456.15,-355.003 2460.45,-353.924 2464.75,-352.81"/>
<ellipse fill="none" stroke="#bd3038" cx="1943.52" cy="-432.276" rx="4.00001" ry="4.00001"/>
<polygon fill="#bd3038" stroke="#bd3038" points="2465.07,-352.725 2475.89,-354.521 2469.91,-351.447 2474.74,-350.17 2474.74,-350.17 2474.74,-350.17 2469.91,-351.447 2473.59,-345.819 2465.07,-352.725 2465.07,-352.725"/>
</g>
<!-- Machine&#45;&gt;MachinesAvailability -->
<g id="edge108" class="edge"><title>Machine&#45;&gt;MachinesAvailability</title>
<path fill="none" stroke="#55ba42" d="M1947.62,-431.225C1951.77,-430.017 1955.95,-428.91 1960,-428 2025.08,-413.379 2043.63,-423.256 2109,-410 2177.05,-396.201 2253.65,-372.94 2303.25,-356.822"/>
<ellipse fill="none" stroke="#55ba42" cx="1943.56" cy="-432.473" rx="4.00001" ry="4.00001"/>
<polygon fill="#55ba42" stroke="#55ba42" points="2303.29,-356.807 2314.19,-357.975 2308.04,-355.253 2312.8,-353.698 2312.8,-353.698 2312.8,-353.698 2308.04,-355.253 2311.4,-349.421 2303.29,-356.807 2303.29,-356.807"/>
</g>
<!-- Machine&#45;&gt;MachineImage -->
<g id="edge106" class="edge"><title>Machine&#45;&gt;MachineImage</title>
<path fill="none" stroke="#2db89d" d="M1947.83,-431.342C1951.91,-430.121 1956.02,-428.978 1960,-428 2008.53,-416.059 2025.99,-431.721 2071,-410 2094.44,-398.688 2115.9,-378.051 2130.35,-361.931"/>
<ellipse fill="none" stroke="#2db89d" cx="1943.87" cy="-432.575" rx="4.00001" ry="4.00001"/>
<ellipse fill="#2db89d" stroke="#2db89d" cx="2133.09" cy="-358.794" rx="4.00002" ry="4.00002"/>
</g>
<!-- Abuse -->
<g id="node83" class="node"><title>Abuse</title>
<ellipse fill="none" stroke="black" cx="5338" cy="-735" rx="33.2948" ry="18"/>
<text text-anchor="middle" x="5338" y="-731.3" font-family="Times,serif" font-size="14.00">Abuse</text>
</g>
<!-- Profile&#45;&gt;UserAvatar -->
<g id="edge113" class="edge"><title>Profile&#45;&gt;UserAvatar</title>
<path fill="none" stroke="#a3aa07" d="M199.965,-529.504C210.321,-512.079 224.389,-488.41 234.801,-470.891"/>
<ellipse fill="none" stroke="#a3aa07" cx="197.887" cy="-532.999" rx="4.00002" ry="4.00002"/>
<ellipse fill="#a3aa07" stroke="#a3aa07" cx="236.974" cy="-467.235" rx="4.00002" ry="4.00002"/>
</g>
<!-- Profile&#45;&gt;Address -->
<g id="edge114" class="edge"><title>Profile&#45;&gt;Address</title>
<path fill="none" stroke="#33e13f" d="M150.685,-539.775C119.689,-526.051 76.5874,-501.311 57,-464 40.0533,-431.719 55.2699,-389.222 68.2728,-363.024"/>
<ellipse fill="none" stroke="#33e13f" cx="154.605" cy="-541.453" rx="4.00002" ry="4.00002"/>
<ellipse fill="#33e13f" stroke="#33e13f" cx="70.188" cy="-359.321" rx="4.00002" ry="4.00002"/>
</g>
<!-- Profile&#45;&gt;Organization -->
<g id="edge115" class="edge"><title>Profile&#45;&gt;Organization</title>
<path fill="none" stroke="#88f282" d="M172.035,-529.504C161.679,-512.079 147.611,-488.41 137.199,-470.891"/>
<ellipse fill="none" stroke="#88f282" cx="174.113" cy="-532.999" rx="4.00002" ry="4.00002"/>
<ellipse fill="#88f282" stroke="#88f282" cx="135.026" cy="-467.235" rx="4.00002" ry="4.00002"/>
</g>
<!-- Setting -->
<g id="node87" class="node"><title>Setting</title>
<ellipse fill="none" stroke="black" cx="5425" cy="-735" rx="35.9954" ry="18"/>
<text text-anchor="middle" x="5425" y="-731.3" font-family="Times,serif" font-size="14.00">Setting</text>
</g>
</g>
</svg>
