<?xml version="1.0" encoding="UTF-8" standalone="no"?>
<!DOCTYPE svg PUBLIC "-//W3C//DTD SVG 1.1//EN"
 "http://www.w3.org/Graphics/SVG/1.1/DTD/svg11.dtd">
<!-- Generated by graphviz version 2.36.0 (20140111.2315)
 -->
<!-- Title: models_diagram Pages: 1 -->
<svg width="5697pt" height="788pt"
 viewBox="0.00 0.00 5697.00 788.00" xmlns="http://www.w3.org/2000/svg" xmlns:xlink="http://www.w3.org/1999/xlink">
<g id="graph0" class="graph" transform="scale(1 1) rotate(0) translate(4 784)">
<title>models_diagram</title>
<polygon fill="none" stroke="none" points="-4,4 -4,-784 5693,-784 5693,4 -4,4"/>
<!-- _diagram_info -->
<g id="node1" class="node"><title>_diagram_info</title>
<text text-anchor="start" x="1537" y="-765.6" font-family="Times,serif" font-size="13.00">Models diagram</text>
<text text-anchor="start" x="1537" y="-751.6" font-family="Times,serif" font-size="13.00">Date: Jul 25 2016 &#45; 11:07</text>
<text text-anchor="start" x="1537" y="-737.6" font-family="Times,serif" font-size="13.00">Migration version: 20160720124355</text>
<text text-anchor="start" x="1537" y="-723.6" font-family="Times,serif" font-size="13.00">Generated by RailRoady 1.4.0</text>
<text text-anchor="start" x="1537" y="-709.6" font-family="Times,serif" font-size="13.00">http://railroady.prestonlee.com</text>
</g>
<!-- Group -->
<g id="node2" class="node"><title>Group</title>
<ellipse fill="none" stroke="black" cx="1794" cy="-741" rx="33.2209" ry="18"/>
<text text-anchor="middle" x="1794" y="-737.3" font-family="Times,serif" font-size="14.00">Group</text>
</g>
<!-- Price -->
<g id="node4" class="node"><title>Price</title>
<ellipse fill="none" stroke="black" cx="2084" cy="-254" rx="28.3955" ry="18"/>
<text text-anchor="middle" x="2084" y="-250.3" font-family="Times,serif" font-size="14.00">Price</text>
</g>
<!-- Group&#45;&gt;Price -->
<g id="edge4" class="edge"><title>Group&#45;&gt;Price</title>
<path fill="none" stroke="#98ac62" d="M1834.94,-736.884C1888.61,-730.311 1976,-709.945 1976,-647 1976,-647 1976,-647 1973,-503 1973,-495.444 1971.55,-493.415 1973,-486 1979.79,-451.361 2037.86,-333.786 2046,-324 2054.76,-313.475 2063.29,-317.314 2071,-306 2075.78,-298.992 2078.8,-290.362 2080.71,-282.207"/>
<ellipse fill="none" stroke="#98ac62" cx="1830.93" cy="-737.339" rx="4.00001" ry="4.00001"/>
<polygon fill="#98ac62" stroke="#98ac62" points="2080.73,-282.115 2087.01,-273.126 2081.66,-277.203 2082.59,-272.29 2082.59,-272.29 2082.59,-272.29 2081.66,-277.203 2078.16,-271.453 2080.73,-282.115 2080.73,-282.115"/>
<text text-anchor="middle" x="2021.5" y="-500.3" font-family="Times,serif" font-size="14.00">machines_prices</text>
</g>
<!-- TrainingsPricing -->
<g id="node30" class="node"><title>TrainingsPricing</title>
<ellipse fill="none" stroke="black" cx="1764" cy="-450" rx="69.3156" ry="18"/>
<text text-anchor="middle" x="1764" y="-446.3" font-family="Times,serif" font-size="14.00">TrainingsPricing</text>
</g>
<!-- Group&#45;&gt;TrainingsPricing -->
<g id="edge3" class="edge"><title>Group&#45;&gt;TrainingsPricing</title>
<path fill="none" stroke="#126c19" d="M1782.23,-716.073C1765.28,-678.935 1736.79,-604.926 1744,-540 1746.33,-519.014 1751.66,-495.747 1756.23,-478.267"/>
<ellipse fill="none" stroke="#126c19" cx="1783.96" cy="-719.796" rx="4.00002" ry="4.00002"/>
<polygon fill="#126c19" stroke="#126c19" points="1756.34,-477.858 1763.29,-469.375 1757.64,-473.03 1758.94,-468.203 1758.94,-468.203 1758.94,-468.203 1757.64,-473.03 1754.6,-467.031 1756.34,-477.858 1756.34,-477.858"/>
</g>
<!-- Plan -->
<g id="node33" class="node"><title>Plan</title>
<ellipse fill="none" stroke="black" cx="1938" cy="-342" rx="27" ry="18"/>
<text text-anchor="middle" x="1938" y="-338.3" font-family="Times,serif" font-size="14.00">Plan</text>
</g>
<!-- Group&#45;&gt;Plan -->
<g id="edge1" class="edge"><title>Group&#45;&gt;Plan</title>
<path fill="none" stroke="#3aa067" d="M1802.53,-715.308C1822.87,-656.592 1876.15,-504.116 1924,-378 1925.1,-375.095 1926.28,-372.065 1927.46,-369.054"/>
<ellipse fill="none" stroke="#3aa067" cx="1801.19" cy="-719.178" rx="4.00001" ry="4.00001"/>
<polygon fill="#3aa067" stroke="#3aa067" points="1927.49,-368.979 1935.37,-361.35 1929.34,-364.333 1931.18,-359.687 1931.18,-359.687 1931.18,-359.687 1929.34,-364.333 1927,-358.024 1927.49,-368.979 1927.49,-368.979"/>
</g>
<!-- User -->
<g id="node39" class="node"><title>User</title>
<ellipse fill="none" stroke="black" cx="1374" cy="-646" rx="26.949" ry="18"/>
<text text-anchor="middle" x="1374" y="-642.3" font-family="Times,serif" font-size="14.00">User</text>
</g>
<!-- Group&#45;&gt;User -->
<g id="edge2" class="edge"><title>Group&#45;&gt;User</title>
<path fill="none" stroke="#da68f7" d="M1774.59,-718.428C1767.76,-712.128 1759.62,-705.895 1751,-702 1692.63,-675.618 1671.42,-693.003 1608,-684 1537.73,-674.025 1455.87,-660.686 1409.98,-653.051"/>
<ellipse fill="none" stroke="#da68f7" cx="1777.61" cy="-721.374" rx="4.00002" ry="4.00002"/>
<polygon fill="#da68f7" stroke="#da68f7" points="1409.79,-653.02 1400.67,-646.936 1404.86,-652.197 1399.93,-651.375 1399.93,-651.375 1399.93,-651.375 1404.86,-652.197 1399.19,-655.813 1409.79,-653.02 1409.79,-653.02"/>
</g>
<!-- InvoiceItem -->
<g id="node3" class="node"><title>InvoiceItem</title>
<ellipse fill="none" stroke="black" cx="2116" cy="-18" rx="53.4184" ry="18"/>
<text text-anchor="middle" x="2116" y="-14.3" font-family="Times,serif" font-size="14.00">InvoiceItem</text>
</g>
<!-- InvoiceItem&#45;&gt;InvoiceItem -->
<g id="edge5" class="edge"><title>InvoiceItem&#45;&gt;InvoiceItem</title>
<path fill="none" stroke="#8afbf4" d="M2174.22,-23.9524C2181.9,-22.9373 2187,-20.9531 2187,-18 2187,-15.0469 2181.9,-13.0627 2174.22,-12.0476"/>
<ellipse fill="none" stroke="#8afbf4" cx="2169.75" cy="-24.3181" rx="4" ry="4"/>
<ellipse fill="#8afbf4" stroke="#8afbf4" cx="2169.75" cy="-11.6819" rx="4" ry="4"/>
</g>
<!-- AvailabilityTag -->
<g id="node5" class="node"><title>AvailabilityTag</title>
<ellipse fill="none" stroke="black" cx="2208" cy="-558" rx="65.9423" ry="18"/>
<text text-anchor="middle" x="2208" y="-554.3" font-family="Times,serif" font-size="14.00">AvailabilityTag</text>
</g>
<!-- OpenAPI -->
<g id="node6" class="node"><title>OpenAPI</title>
<polygon fill="none" stroke="black" stroke-dasharray="1,5" points="2748,-759 2680,-759 2680,-723 2748,-723 2748,-759"/>
<text text-anchor="middle" x="2714" y="-737.3" font-family="Times,serif" font-size="14.00">OpenAPI</text>
</g>
<!-- TrainingImage -->
<g id="node7" class="node"><title>TrainingImage</title>
<ellipse fill="none" stroke="black" cx="2170" cy="-450" rx="63.5411" ry="18"/>
<text text-anchor="middle" x="2170" y="-446.3" font-family="Times,serif" font-size="14.00">TrainingImage</text>
</g>
<!-- OpenAPI::Client -->
<g id="node8" class="node"><title>OpenAPI::Client</title>
<ellipse fill="none" stroke="black" cx="3317" cy="-741" rx="70.2909" ry="18"/>
<text text-anchor="middle" x="3317" y="-737.3" font-family="Times,serif" font-size="14.00">OpenAPI::Client</text>
</g>
<!-- OpenAPI::CallsCountTracing -->
<g id="node9" class="node"><title>OpenAPI::CallsCountTracing</title>
<ellipse fill="none" stroke="black" cx="3317" cy="-646" rx="115.534" ry="18"/>
<text text-anchor="middle" x="3317" y="-642.3" font-family="Times,serif" font-size="14.00">OpenAPI::CallsCountTracing</text>
</g>
<!-- OpenAPI::Client&#45;&gt;OpenAPI::CallsCountTracing -->
<g id="edge6" class="edge"><title>OpenAPI::Client&#45;&gt;OpenAPI::CallsCountTracing</title>
<path fill="none" stroke="#de251c" d="M3317,-714.562C3317,-702.078 3317,-687.025 3317,-674.299"/>
<ellipse fill="none" stroke="#de251c" cx="3317" cy="-718.942" rx="4" ry="4"/>
<polygon fill="#de251c" stroke="#de251c" points="3317,-674.264 3321.5,-664.264 3317,-669.264 3317,-664.264 3317,-664.264 3317,-664.264 3317,-669.264 3312.5,-664.264 3317,-674.264 3317,-674.264"/>
</g>
<!-- OpenAPI::ParameterError -->
<g id="node10" class="node"><title>OpenAPI::ParameterError</title>
<polygon fill="none" stroke="black" points="3567.25,-759 3408.75,-759 3408.75,-723 3567.25,-723 3567.25,-759"/>
<text text-anchor="middle" x="3488" y="-737.3" font-family="Times,serif" font-size="14.00">OpenAPI::ParameterError</text>
</g>
<!-- UserAvatar -->
<g id="node11" class="node"><title>UserAvatar</title>
<ellipse fill="none" stroke="black" cx="460" cy="-450" rx="51.0191" ry="18"/>
<text text-anchor="middle" x="460" y="-446.3" font-family="Times,serif" font-size="14.00">UserAvatar</text>
</g>
<!-- ProjectImage -->
<g id="node12" class="node"><title>ProjectImage</title>
<ellipse fill="none" stroke="black" cx="950" cy="-450" rx="57.2688" ry="18"/>
<text text-anchor="middle" x="950" y="-446.3" font-family="Times,serif" font-size="14.00">ProjectImage</text>
</g>
<!-- Tag -->
<g id="node13" class="node"><title>Tag</title>
<ellipse fill="none" stroke="black" cx="2046" cy="-741" rx="27" ry="18"/>
<text text-anchor="middle" x="2046" y="-737.3" font-family="Times,serif" font-size="14.00">Tag</text>
</g>
<!-- Tag&#45;&gt;AvailabilityTag -->
<g id="edge9" class="edge"><title>Tag&#45;&gt;AvailabilityTag</title>
<path fill="none" stroke="#a52818" d="M2064.94,-718.839C2095.26,-684.966 2154.51,-618.768 2186.42,-583.115"/>
<ellipse fill="none" stroke="#a52818" cx="2061.92" cy="-722.207" rx="4.00002" ry="4.00002"/>
<polygon fill="#a52818" stroke="#a52818" points="2186.49,-583.029 2196.52,-578.579 2189.83,-579.303 2193.16,-575.578 2193.16,-575.578 2193.16,-575.578 2189.83,-579.303 2189.81,-572.576 2186.49,-583.029 2186.49,-583.029"/>
</g>
<!-- Tag&#45;&gt;User -->
<g id="edge8" class="edge"><title>Tag&#45;&gt;User</title>
<path fill="none" stroke="#c0303d" d="M2010.62,-732.922C1968.97,-724.746 1897.65,-711.238 1836,-702 1678.45,-678.39 1489.45,-658.515 1410.96,-650.633"/>
<polygon fill="#c0303d" stroke="#c0303d" points="2010.73,-732.945 2019.67,-739.295 2015.64,-733.912 2020.54,-734.88 2020.54,-734.88 2020.54,-734.88 2015.64,-733.912 2021.42,-730.465 2010.73,-732.945 2010.73,-732.945"/>
<polygon fill="#c0303d" stroke="#c0303d" points="1410.59,-650.595 1401.08,-645.123 1405.61,-650.098 1400.64,-649.601 1400.64,-649.601 1400.64,-649.601 1405.61,-650.098 1400.19,-654.079 1410.59,-650.595 1410.59,-650.595"/>
</g>
<!-- Availability -->
<g id="node51" class="node"><title>Availability</title>
<ellipse fill="none" stroke="black" cx="2414" cy="-646" rx="52.4675" ry="18"/>
<text text-anchor="middle" x="2414" y="-642.3" font-family="Times,serif" font-size="14.00">Availability</text>
</g>
<!-- Tag&#45;&gt;Availability -->
<g id="edge10" class="edge"><title>Tag&#45;&gt;Availability</title>
<path fill="none" stroke="#b49cbf" d="M2080.53,-731.273C2145.76,-714.79 2287.33,-679.013 2363.34,-659.804"/>
<polygon fill="#b49cbf" stroke="#b49cbf" points="2080.41,-731.303 2069.61,-729.391 2075.56,-732.528 2070.72,-733.754 2070.72,-733.754 2070.72,-733.754 2075.56,-732.528 2071.82,-738.116 2080.41,-731.303 2080.41,-731.303"/>
<polygon fill="#b49cbf" stroke="#b49cbf" points="2363.47,-659.77 2374.27,-661.683 2368.32,-658.545 2373.16,-657.32 2373.16,-657.32 2373.16,-657.32 2368.32,-658.545 2372.06,-652.957 2363.47,-659.77 2363.47,-659.77"/>
</g>
<!-- UserTag -->
<g id="node63" class="node"><title>UserTag</title>
<ellipse fill="none" stroke="black" cx="1794" cy="-558" rx="40.4202" ry="18"/>
<text text-anchor="middle" x="1794" y="-554.3" font-family="Times,serif" font-size="14.00">UserTag</text>
</g>
<!-- Tag&#45;&gt;UserTag -->
<g id="edge7" class="edge"><title>Tag&#45;&gt;UserTag</title>
<path fill="none" stroke="#87cc5e" d="M2021.73,-722.565C1974.96,-688.975 1872.59,-615.446 1822.6,-579.544"/>
<ellipse fill="none" stroke="#87cc5e" cx="2025.03" cy="-724.939" rx="4.00002" ry="4.00002"/>
<polygon fill="#87cc5e" stroke="#87cc5e" points="1822.6,-579.54 1817.1,-570.051 1818.54,-576.623 1814.47,-573.706 1814.47,-573.706 1814.47,-573.706 1818.54,-576.623 1811.85,-577.361 1822.6,-579.54 1822.6,-579.54"/>
</g>
<!-- Event -->
<g id="node14" class="node"><title>Event</title>
<ellipse fill="none" stroke="black" cx="2816" cy="-558" rx="31.2965" ry="18"/>
<text text-anchor="middle" x="2816" y="-554.3" font-family="Times,serif" font-size="14.00">Event</text>
</g>
<!-- EventTheme -->
<g id="node36" class="node"><title>EventTheme</title>
<ellipse fill="none" stroke="black" cx="2688" cy="-450" rx="55.3436" ry="18"/>
<text text-anchor="middle" x="2688" y="-446.3" font-family="Times,serif" font-size="14.00">EventTheme</text>
</g>
<!-- Event&#45;&gt;EventTheme -->
<g id="edge15" class="edge"><title>Event&#45;&gt;EventTheme</title>
<path fill="none" stroke="#359c45" d="M2791.24,-536.495C2769.5,-518.493 2737.93,-492.347 2715.43,-473.715"/>
<polygon fill="#359c45" stroke="#359c45" points="2791.3,-536.546 2796.13,-546.39 2795.15,-539.735 2799,-542.924 2799,-542.924 2799,-542.924 2795.15,-539.735 2801.87,-539.458 2791.3,-536.546 2791.3,-536.546"/>
<polygon fill="#359c45" stroke="#359c45" points="2715.29,-473.598 2710.46,-463.754 2711.44,-470.409 2707.59,-467.22 2707.59,-467.22 2707.59,-467.22 2711.44,-470.409 2704.72,-470.686 2715.29,-473.598 2715.29,-473.598"/>
</g>
<!-- EventImage -->
<g id="node41" class="node"><title>EventImage</title>
<ellipse fill="none" stroke="black" cx="2816" cy="-450" rx="53.4184" ry="18"/>
<text text-anchor="middle" x="2816" y="-446.3" font-family="Times,serif" font-size="14.00">EventImage</text>
</g>
<!-- Event&#45;&gt;EventImage -->
<g id="edge11" class="edge"><title>Event&#45;&gt;EventImage</title>
<path fill="none" stroke="#86ad69" d="M2816,-531.795C2816,-515.123 2816,-493.335 2816,-476.586"/>
<ellipse fill="none" stroke="#86ad69" cx="2816" cy="-535.969" rx="4" ry="4"/>
<ellipse fill="#86ad69" stroke="#86ad69" cx="2816" cy="-472.341" rx="4" ry="4"/>
</g>
<!-- Reservation -->
<g id="node56" class="node"><title>Reservation</title>
<ellipse fill="none" stroke="black" cx="2403" cy="-342" rx="52.4675" ry="18"/>
<text text-anchor="middle" x="2403" y="-338.3" font-family="Times,serif" font-size="14.00">Reservation</text>
</g>
<!-- Event&#45;&gt;Reservation -->
<g id="edge14" class="edge"><title>Event&#45;&gt;Reservation</title>
<path fill="none" stroke="#3ee925" d="M2782.96,-544.277C2766.85,-537.892 2747.27,-529.859 2730,-522 2681.51,-499.942 2665.32,-500.351 2623,-468 2580.25,-435.317 2588.09,-405.775 2542,-378 2534.38,-373.407 2491.87,-363.018 2455.85,-354.745"/>
<ellipse fill="none" stroke="#3ee925" cx="2786.84" cy="-545.805" rx="4.00001" ry="4.00001"/>
<polygon fill="#3ee925" stroke="#3ee925" points="2455.64,-354.698 2446.89,-348.087 2450.77,-353.586 2445.89,-352.474 2445.89,-352.474 2445.89,-352.474 2450.77,-353.586 2444.89,-356.862 2455.64,-354.698 2455.64,-354.698"/>
</g>
<!-- EventFile -->
<g id="node62" class="node"><title>EventFile</title>
<ellipse fill="none" stroke="black" cx="2933" cy="-450" rx="44.271" ry="18"/>
<text text-anchor="middle" x="2933" y="-446.3" font-family="Times,serif" font-size="14.00">EventFile</text>
</g>
<!-- Event&#45;&gt;EventFile -->
<g id="edge12" class="edge"><title>Event&#45;&gt;EventFile</title>
<path fill="none" stroke="#c01738" d="M2838.29,-536.806C2858.27,-518.701 2887.55,-492.179 2908.25,-473.422"/>
<ellipse fill="none" stroke="#c01738" cx="2835.23" cy="-539.575" rx="4.00002" ry="4.00002"/>
<polygon fill="#c01738" stroke="#c01738" points="2908.32,-473.362 2918.75,-469.983 2912.02,-470.005 2915.73,-466.648 2915.73,-466.648 2915.73,-466.648 2912.02,-470.005 2912.71,-463.313 2908.32,-473.362 2908.32,-473.362"/>
</g>
<!-- Category -->
<g id="node73" class="node"><title>Category</title>
<ellipse fill="none" stroke="black" cx="3039" cy="-450" rx="42.3456" ry="18"/>
<text text-anchor="middle" x="3039" y="-446.3" font-family="Times,serif" font-size="14.00">Category</text>
</g>
<!-- Event&#45;&gt;Category -->
<g id="edge13" class="edge"><title>Event&#45;&gt;Category</title>
<path fill="none" stroke="#3438ee" d="M2848.58,-541.515C2889.57,-522.03 2959.77,-488.66 3002.52,-468.338"/>
<polygon fill="#3438ee" stroke="#3438ee" points="2848.48,-541.563 2837.51,-541.792 2843.96,-543.71 2839.44,-545.856 2839.44,-545.856 2839.44,-545.856 2843.96,-543.71 2841.38,-549.921 2848.48,-541.563 2848.48,-541.563"/>
<polygon fill="#3438ee" stroke="#3438ee" points="3002.7,-468.256 3013.66,-468.027 3007.21,-466.109 3011.73,-463.963 3011.73,-463.963 3011.73,-463.963 3007.21,-466.109 3009.8,-459.899 3002.7,-468.256 3002.7,-468.256"/>
</g>
<!-- StatisticSubType -->
<g id="node15" class="node"><title>StatisticSubType</title>
<ellipse fill="none" stroke="black" cx="3658" cy="-741" rx="70.2668" ry="18"/>
<text text-anchor="middle" x="3658" y="-737.3" font-family="Times,serif" font-size="14.00">StatisticSubType</text>
</g>
<!-- StatisticType -->
<g id="node31" class="node"><title>StatisticType</title>
<ellipse fill="none" stroke="black" cx="3538" cy="-646" rx="57.2927" ry="18"/>
<text text-anchor="middle" x="3538" y="-642.3" font-family="Times,serif" font-size="14.00">StatisticType</text>
</g>
<!-- StatisticSubType&#45;&gt;StatisticType -->
<g id="edge17" class="edge"><title>StatisticSubType&#45;&gt;StatisticType</title>
<path fill="none" stroke="#455ff1" d="M3629.17,-717.656C3610.23,-702.975 3585.54,-683.846 3566.64,-669.195"/>
<polygon fill="#455ff1" stroke="#455ff1" points="3629.19,-717.675 3634.34,-727.358 3633.15,-720.738 3637.1,-723.801 3637.1,-723.801 3637.1,-723.801 3633.15,-720.738 3639.85,-720.244 3629.19,-717.675 3629.19,-717.675"/>
<polygon fill="#455ff1" stroke="#455ff1" points="3566.57,-669.139 3561.42,-659.457 3562.61,-666.077 3558.66,-663.014 3558.66,-663.014 3558.66,-663.014 3562.61,-666.077 3555.91,-666.571 3566.57,-669.139 3566.57,-669.139"/>
</g>
<!-- StatisticTypeSubType -->
<g id="node72" class="node"><title>StatisticTypeSubType</title>
<ellipse fill="none" stroke="black" cx="3695" cy="-558" rx="89.0632" ry="18"/>
<text text-anchor="middle" x="3695" y="-554.3" font-family="Times,serif" font-size="14.00">StatisticTypeSubType</text>
</g>
<!-- StatisticSubType&#45;&gt;StatisticTypeSubType -->
<g id="edge16" class="edge"><title>StatisticSubType&#45;&gt;StatisticTypeSubType</title>
<path fill="none" stroke="#9c9aba" d="M3663.09,-715.083C3670.01,-681.249 3682.33,-621.001 3689.46,-586.081"/>
<ellipse fill="none" stroke="#9c9aba" cx="3662.28" cy="-719.053" rx="4.00001" ry="4.00001"/>
<polygon fill="#9c9aba" stroke="#9c9aba" points="3689.5,-585.912 3695.91,-577.016 3690.5,-581.013 3691.5,-576.115 3691.5,-576.115 3691.5,-576.115 3690.5,-581.013 3687.09,-575.213 3689.5,-585.912 3689.5,-585.912"/>
</g>
<!-- Project -->
<g id="node16" class="node"><title>Project</title>
<ellipse fill="none" stroke="black" cx="1086" cy="-558" rx="35.6194" ry="18"/>
<text text-anchor="middle" x="1086" y="-554.3" font-family="Times,serif" font-size="14.00">Project</text>
</g>
<!-- Project&#45;&gt;ProjectImage -->
<g id="edge18" class="edge"><title>Project&#45;&gt;ProjectImage</title>
<path fill="none" stroke="#505062" d="M1060.77,-537.332C1037.01,-518.82 1001.55,-491.176 977.18,-472.185"/>
<ellipse fill="none" stroke="#505062" cx="1064.22" cy="-540.024" rx="4.00002" ry="4.00002"/>
<ellipse fill="#505062" stroke="#505062" cx="973.776" cy="-469.531" rx="4.00002" ry="4.00002"/>
</g>
<!-- Project&#45;&gt;User -->
<g id="edge24" class="edge"><title>Project&#45;&gt;User</title>
<path fill="none" stroke="#efac9f" d="M1124.51,-572.017C1156.4,-582.655 1202.97,-597.863 1244,-610 1276.05,-619.482 1312.87,-629.293 1339.12,-636.106"/>
<polygon fill="#efac9f" stroke="#efac9f" points="1124.18,-571.907 1116.13,-564.466 1119.44,-570.32 1114.7,-568.734 1114.7,-568.734 1114.7,-568.734 1119.44,-570.32 1113.27,-573.001 1124.18,-571.907 1124.18,-571.907"/>
<polygon fill="#efac9f" stroke="#efac9f" points="1339.29,-636.152 1347.85,-643.01 1344.13,-637.402 1348.98,-638.653 1348.98,-638.653 1348.98,-638.653 1344.13,-637.402 1350.1,-634.296 1339.29,-636.152 1339.29,-636.152"/>
</g>
<!-- Theme -->
<g id="node45" class="node"><title>Theme</title>
<ellipse fill="none" stroke="black" cx="1062" cy="-450" rx="35.6194" ry="18"/>
<text text-anchor="middle" x="1062" y="-446.3" font-family="Times,serif" font-size="14.00">Theme</text>
</g>
<!-- Project&#45;&gt;Theme -->
<g id="edge22" class="edge"><title>Project&#45;&gt;Theme</title>
<path fill="none" stroke="#77ad89" d="M1079.92,-530.137C1076.29,-514.11 1071.7,-493.829 1068.07,-477.811"/>
<polygon fill="#77ad89" stroke="#77ad89" points="1079.94,-530.216 1077.76,-540.963 1081.04,-535.093 1082.14,-539.969 1082.14,-539.969 1082.14,-539.969 1081.04,-535.093 1086.53,-538.976 1079.94,-530.216 1079.94,-530.216"/>
<polygon fill="#77ad89" stroke="#77ad89" points="1068.05,-477.742 1070.24,-466.995 1066.95,-472.865 1065.85,-467.988 1065.85,-467.988 1065.85,-467.988 1066.95,-472.865 1061.46,-468.982 1068.05,-477.742 1068.05,-477.742"/>
</g>
<!-- ProjectCao -->
<g id="node46" class="node"><title>ProjectCao</title>
<ellipse fill="none" stroke="black" cx="1166" cy="-450" rx="50.0684" ry="18"/>
<text text-anchor="middle" x="1166" y="-446.3" font-family="Times,serif" font-size="14.00">ProjectCao</text>
</g>
<!-- Project&#45;&gt;ProjectCao -->
<g id="edge19" class="edge"><title>Project&#45;&gt;ProjectCao</title>
<path fill="none" stroke="#c89aeb" d="M1103,-534.472C1116,-517.253 1133.9,-493.536 1147.3,-475.783"/>
<ellipse fill="none" stroke="#c89aeb" cx="1100.56" cy="-537.708" rx="4.00002" ry="4.00002"/>
<polygon fill="#c89aeb" stroke="#c89aeb" points="1147.45,-475.583 1157.06,-470.312 1150.46,-471.592 1153.47,-467.601 1153.47,-467.601 1153.47,-467.601 1150.46,-471.592 1149.88,-464.89 1147.45,-475.583 1147.45,-475.583"/>
</g>
<!-- ProjectStep -->
<g id="node55" class="node"><title>ProjectStep</title>
<ellipse fill="none" stroke="black" cx="823" cy="-450" rx="51.0191" ry="18"/>
<text text-anchor="middle" x="823" y="-446.3" font-family="Times,serif" font-size="14.00">ProjectStep</text>
</g>
<!-- Project&#45;&gt;ProjectStep -->
<g id="edge25" class="edge"><title>Project&#45;&gt;ProjectStep</title>
<path fill="none" stroke="#80c3b6" d="M1050.55,-543.797C1033.42,-537.344 1012.59,-529.393 994,-522 949.224,-504.192 898.252,-482.894 863.694,-468.3"/>
<ellipse fill="none" stroke="#80c3b6" cx="1054.39" cy="-545.241" rx="4.00001" ry="4.00001"/>
<polygon fill="#80c3b6" stroke="#80c3b6" points="863.612,-468.265 856.154,-460.225 859.006,-466.317 854.401,-464.37 854.401,-464.37 854.401,-464.37 859.006,-466.317 852.649,-468.515 863.612,-468.265 863.612,-468.265"/>
</g>
<!-- ProjectUser -->
<g id="node70" class="node"><title>ProjectUser</title>
<ellipse fill="none" stroke="black" cx="702" cy="-450" rx="51.4931" ry="18"/>
<text text-anchor="middle" x="702" y="-446.3" font-family="Times,serif" font-size="14.00">ProjectUser</text>
</g>
<!-- Project&#45;&gt;ProjectUser -->
<g id="edge23" class="edge"><title>Project&#45;&gt;ProjectUser</title>
<path fill="none" stroke="#281f00" d="M1044.49,-550.66C1007.75,-544.64 952.864,-534.642 906,-522 849.018,-506.628 784.996,-483.323 744.127,-467.648"/>
<ellipse fill="none" stroke="#281f00" cx="1048.55" cy="-551.317" rx="4.00001" ry="4.00001"/>
<polygon fill="#281f00" stroke="#281f00" points="744.089,-467.633 736.38,-459.835 739.425,-465.833 734.76,-464.033 734.76,-464.033 734.76,-464.033 739.425,-465.833 733.14,-468.231 744.089,-467.633 744.089,-467.633"/>
</g>
<!-- Machine -->
<g id="node77" class="node"><title>Machine</title>
<ellipse fill="none" stroke="black" cx="2046" cy="-450" rx="42.3701" ry="18"/>
<text text-anchor="middle" x="2046" y="-446.3" font-family="Times,serif" font-size="14.00">Machine</text>
</g>
<!-- Project&#45;&gt;Machine -->
<g id="edge20" class="edge"><title>Project&#45;&gt;Machine</title>
<path fill="none" stroke="#5d10aa" d="M1130.25,-552.115C1288.78,-534.609 1827.89,-475.083 1995.71,-456.553"/>
<polygon fill="#5d10aa" stroke="#5d10aa" points="1130.11,-552.13 1119.67,-548.755 1125.14,-552.679 1120.17,-553.227 1120.17,-553.227 1120.17,-553.227 1125.14,-552.679 1120.66,-557.7 1130.11,-552.13 1130.11,-552.13"/>
<polygon fill="#5d10aa" stroke="#5d10aa" points="1995.82,-456.541 2006.25,-459.917 2000.79,-455.993 2005.76,-455.444 2005.76,-455.444 2005.76,-455.444 2000.79,-455.993 2005.26,-450.971 1995.82,-456.541 1995.82,-456.541"/>
</g>
<!-- Component -->
<g id="node79" class="node"><title>Component</title>
<ellipse fill="none" stroke="black" cx="1286" cy="-450" rx="51.4931" ry="18"/>
<text text-anchor="middle" x="1286" y="-446.3" font-family="Times,serif" font-size="14.00">Component</text>
</g>
<!-- Project&#45;&gt;Component -->
<g id="edge21" class="edge"><title>Project&#45;&gt;Component</title>
<path fill="none" stroke="#27ccb5" d="M1118.59,-539.725C1154.58,-520.651 1212.37,-490.026 1249.75,-470.21"/>
<polygon fill="#27ccb5" stroke="#27ccb5" points="1118.56,-539.741 1107.62,-540.448 1114.15,-542.083 1109.73,-544.424 1109.73,-544.424 1109.73,-544.424 1114.15,-542.083 1111.84,-548.4 1118.56,-539.741 1118.56,-539.741"/>
<polygon fill="#27ccb5" stroke="#27ccb5" points="1249.96,-470.102 1260.9,-469.395 1254.38,-467.76 1258.79,-465.419 1258.79,-465.419 1258.79,-465.419 1254.38,-467.76 1256.69,-461.443 1249.96,-470.102 1249.96,-470.102"/>
</g>
<!-- CustomAsset -->
<g id="node17" class="node"><title>CustomAsset</title>
<ellipse fill="none" stroke="black" cx="3805" cy="-741" rx="57.2688" ry="18"/>
<text text-anchor="middle" x="3805" y="-737.3" font-family="Times,serif" font-size="14.00">CustomAsset</text>
</g>
<!-- CustomAssetFile -->
<g id="node80" class="node"><title>CustomAssetFile</title>
<ellipse fill="none" stroke="black" cx="3805" cy="-646" rx="71.2405" ry="18"/>
<text text-anchor="middle" x="3805" y="-642.3" font-family="Times,serif" font-size="14.00">CustomAssetFile</text>
</g>
<!-- CustomAsset&#45;&gt;CustomAssetFile -->
<g id="edge26" class="edge"><title>CustomAsset&#45;&gt;CustomAssetFile</title>
<path fill="none" stroke="#3cf57d" d="M3805,-714.562C3805,-701.454 3805,-685.513 3805,-672.408"/>
<ellipse fill="none" stroke="#3cf57d" cx="3805" cy="-718.942" rx="4" ry="4"/>
<ellipse fill="#3cf57d" stroke="#3cf57d" cx="3805" cy="-668.264" rx="4" ry="4"/>
</g>
<!-- AgeRange -->
<g id="node18" class="node"><title>AgeRange</title>
<ellipse fill="none" stroke="black" cx="3135" cy="-646" rx="48.1437" ry="18"/>
<text text-anchor="middle" x="3135" y="-642.3" font-family="Times,serif" font-size="14.00">AgeRange</text>
</g>
<!-- AgeRange&#45;&gt;Event -->
<g id="edge27" class="edge"><title>AgeRange&#45;&gt;Event</title>
<path fill="none" stroke="#fd9a7b" d="M3089.24,-632.663C3025.78,-615.556 2912.27,-584.953 2853.52,-569.116"/>
<ellipse fill="none" stroke="#fd9a7b" cx="3093.29" cy="-633.756" rx="4.00001" ry="4.00001"/>
<polygon fill="#fd9a7b" stroke="#fd9a7b" points="2853.21,-569.032 2844.73,-562.084 2848.38,-567.73 2843.56,-566.429 2843.56,-566.429 2843.56,-566.429 2848.38,-567.73 2842.38,-570.774 2853.21,-569.032 2853.21,-569.032"/>
</g>
<!-- Wallet -->
<g id="node19" class="node"><title>Wallet</title>
<ellipse fill="none" stroke="black" cx="174" cy="-504" rx="34.1708" ry="18"/>
<text text-anchor="middle" x="174" y="-500.3" font-family="Times,serif" font-size="14.00">Wallet</text>
</g>
<!-- WalletTransaction -->
<g id="node60" class="node"><title>WalletTransaction</title>
<ellipse fill="none" stroke="black" cx="154" cy="-396" rx="76.0649" ry="18"/>
<text text-anchor="middle" x="154" y="-392.3" font-family="Times,serif" font-size="14.00">WalletTransaction</text>
</g>
<!-- Wallet&#45;&gt;WalletTransaction -->
<g id="edge28" class="edge"><title>Wallet&#45;&gt;WalletTransaction</title>
<path fill="none" stroke="#1f6d22" d="M169.284,-478.008C166.231,-461.823 162.254,-440.748 159.123,-424.152"/>
<ellipse fill="none" stroke="#1f6d22" cx="170.045" cy="-482.039" rx="4.00001" ry="4.00001"/>
<polygon fill="#1f6d22" stroke="#1f6d22" points="159.06,-423.815 161.627,-413.154 158.132,-418.902 157.205,-413.988 157.205,-413.988 157.205,-413.988 158.132,-418.902 152.783,-414.823 159.06,-423.815 159.06,-423.815"/>
</g>
<!-- Stats::Event -->
<g id="node20" class="node"><title>Stats::Event</title>
<polygon fill="none" stroke="black" points="3963,-759 3881,-759 3881,-723 3963,-723 3963,-759"/>
<text text-anchor="middle" x="3922" y="-737.3" font-family="Times,serif" font-size="14.00">Stats::Event</text>
</g>
<!-- Stats::Project -->
<g id="node21" class="node"><title>Stats::Project</title>
<polygon fill="none" stroke="black" points="4070.25,-759 3981.75,-759 3981.75,-723 4070.25,-723 4070.25,-759"/>
<text text-anchor="middle" x="4026" y="-737.3" font-family="Times,serif" font-size="14.00">Stats::Project</text>
</g>
<!-- Stats::User -->
<g id="node22" class="node"><title>Stats::User</title>
<polygon fill="none" stroke="black" points="4165,-759 4089,-759 4089,-723 4165,-723 4165,-759"/>
<text text-anchor="middle" x="4127" y="-737.3" font-family="Times,serif" font-size="14.00">Stats::User</text>
</g>
<!-- Stats::Subscription -->
<g id="node23" class="node"><title>Stats::Subscription</title>
<polygon fill="none" stroke="black" points="4302.25,-759 4183.75,-759 4183.75,-723 4302.25,-723 4302.25,-759"/>
<text text-anchor="middle" x="4243" y="-737.3" font-family="Times,serif" font-size="14.00">Stats::Subscription</text>
</g>
<!-- Stats::Training -->
<g id="node24" class="node"><title>Stats::Training</title>
<polygon fill="none" stroke="black" points="4417.25,-759 4320.75,-759 4320.75,-723 4417.25,-723 4417.25,-759"/>
<text text-anchor="middle" x="4369" y="-737.3" font-family="Times,serif" font-size="14.00">Stats::Training</text>
</g>
<!-- Stats::Account -->
<g id="node25" class="node"><title>Stats::Account</title>
<polygon fill="none" stroke="black" points="4532,-759 4436,-759 4436,-723 4532,-723 4532,-759"/>
<text text-anchor="middle" x="4484" y="-737.3" font-family="Times,serif" font-size="14.00">Stats::Account</text>
</g>
<!-- Stats::Machine -->
<g id="node26" class="node"><title>Stats::Machine</title>
<polygon fill="none" stroke="black" points="4647.5,-759 4550.5,-759 4550.5,-723 4647.5,-723 4647.5,-759"/>
<text text-anchor="middle" x="4599" y="-737.3" font-family="Times,serif" font-size="14.00">Stats::Machine</text>
</g>
<!-- Invoice -->
<g id="node27" class="node"><title>Invoice</title>
<ellipse fill="none" stroke="black" cx="1840" cy="-92" rx="37.0701" ry="18"/>
<text text-anchor="middle" x="1840" y="-88.3" font-family="Times,serif" font-size="14.00">Invoice</text>
</g>
<!-- Invoice&#45;&gt;InvoiceItem -->
<g id="edge29" class="edge"><title>Invoice&#45;&gt;InvoiceItem</title>
<path fill="none" stroke="#d2933b" d="M1879.94,-80.5818C1928.8,-67.8345 2011.61,-46.2334 2065.02,-32.2984"/>
<ellipse fill="none" stroke="#d2933b" cx="1875.8" cy="-81.6606" rx="4.00001" ry="4.00001"/>
<polygon fill="#d2933b" stroke="#d2933b" points="2065.29,-32.2284 2076.1,-34.0584 2070.13,-30.9663 2074.97,-29.7041 2074.97,-29.7041 2074.97,-29.7041 2070.13,-30.9663 2073.83,-25.3498 2065.29,-32.2284 2065.29,-32.2284"/>
</g>
<!-- Invoice&#45;&gt;Invoice -->
<g id="edge30" class="edge"><title>Invoice&#45;&gt;Invoice</title>
<path fill="none" stroke="#335749" d="M1882.43,-98.3281C1889.84,-97.4844 1895,-95.375 1895,-92 1895,-88.625 1889.84,-86.5156 1882.43,-85.6719"/>
<ellipse fill="none" stroke="#335749" cx="1878.37" cy="-98.5408" rx="4" ry="4"/>
<ellipse fill="#335749" stroke="#335749" cx="1878.37" cy="-85.4592" rx="4" ry="4"/>
<text text-anchor="middle" x="1909" y="-88.3" font-family="Times,serif" font-size="14.00">avoir</text>
</g>
<!-- PlanFile -->
<g id="node28" class="node"><title>PlanFile</title>
<ellipse fill="none" stroke="black" cx="1997" cy="-254" rx="39.9464" ry="18"/>
<text text-anchor="middle" x="1997" y="-250.3" font-family="Times,serif" font-size="14.00">PlanFile</text>
</g>
<!-- OfferDay -->
<g id="node29" class="node"><title>OfferDay</title>
<ellipse fill="none" stroke="black" cx="1840" cy="-180" rx="44.2946" ry="18"/>
<text text-anchor="middle" x="1840" y="-176.3" font-family="Times,serif" font-size="14.00">OfferDay</text>
</g>
<!-- OfferDay&#45;&gt;Invoice -->
<g id="edge31" class="edge"><title>OfferDay&#45;&gt;Invoice</title>
<path fill="none" stroke="#010ca4" d="M1840,-153.339C1840,-142.855 1840,-130.718 1840,-120.091"/>
<ellipse fill="none" stroke="#010ca4" cx="1840" cy="-157.597" rx="4" ry="4"/>
<polygon fill="#010ca4" stroke="#010ca4" points="1840,-120.084 1844.5,-110.084 1840,-115.084 1840,-110.084 1840,-110.084 1840,-110.084 1840,-115.084 1835.5,-110.084 1840,-120.084 1840,-120.084"/>
</g>
<!-- StatisticIndex -->
<g id="node57" class="node"><title>StatisticIndex</title>
<ellipse fill="none" stroke="black" cx="3529" cy="-558" rx="59.2173" ry="18"/>
<text text-anchor="middle" x="3529" y="-554.3" font-family="Times,serif" font-size="14.00">StatisticIndex</text>
</g>
<!-- StatisticType&#45;&gt;StatisticIndex -->
<g id="edge32" class="edge"><title>StatisticType&#45;&gt;StatisticIndex</title>
<path fill="none" stroke="#7f5b99" d="M3529.22,-620.151C3527.3,-608.939 3525.9,-595.711 3525.44,-584.431"/>
<ellipse fill="none" stroke="#7f5b99" cx="3529.97" cy="-624.08" rx="4.00001" ry="4.00001"/>
<ellipse fill="#7f5b99" stroke="#7f5b99" cx="3525.35" cy="-580.249" rx="4" ry="4"/>
</g>
<!-- StatisticType&#45;&gt;StatisticTypeSubType -->
<g id="edge33" class="edge"><title>StatisticType&#45;&gt;StatisticTypeSubType</title>
<path fill="none" stroke="#fbcd7b" d="M3572.54,-626.081C3597.35,-612.488 3630.82,-594.158 3656.49,-580.094"/>
<ellipse fill="none" stroke="#fbcd7b" cx="3568.86" cy="-628.098" rx="4.00002" ry="4.00002"/>
<polygon fill="#fbcd7b" stroke="#fbcd7b" points="3656.8,-579.927 3667.73,-579.069 3661.18,-577.524 3665.57,-575.122 3665.57,-575.122 3665.57,-575.122 3661.18,-577.524 3663.41,-571.176 3656.8,-579.927 3656.8,-579.927"/>
</g>
<!-- Address -->
<g id="node32" class="node"><title>Address</title>
<ellipse fill="none" stroke="black" cx="351" cy="-450" rx="39.4691" ry="18"/>
<text text-anchor="middle" x="351" y="-446.3" font-family="Times,serif" font-size="14.00">Address</text>
</g>
<!-- Plan&#45;&gt;Price -->
<g id="edge40" class="edge"><title>Plan&#45;&gt;Price</title>
<path fill="none" stroke="#2ae12c" d="M1970.06,-330.909C2002.81,-320.598 2048.9,-306.078 2049,-306 2058.06,-299.29 2065.58,-289.504 2071.29,-280.295"/>
<ellipse fill="none" stroke="#2ae12c" cx="1965.87" cy="-332.227" rx="4.00001" ry="4.00001"/>
<polygon fill="#2ae12c" stroke="#2ae12c" points="2071.41,-280.084 2080.3,-273.656 2073.9,-275.749 2076.4,-271.414 2076.4,-271.414 2076.4,-271.414 2073.9,-275.749 2072.49,-269.171 2071.41,-280.084 2071.41,-280.084"/>
</g>
<!-- Plan&#45;&gt;PlanFile -->
<g id="edge39" class="edge"><title>Plan&#45;&gt;PlanFile</title>
<path fill="none" stroke="#936342" d="M1969.66,-330.54C1980.98,-325.098 1992.52,-317.181 1999,-306 2003.44,-298.33 2004.11,-288.867 2003.27,-280.183"/>
<ellipse fill="none" stroke="#936342" cx="1965.98" cy="-332.159" rx="4.00002" ry="4.00002"/>
<ellipse fill="#936342" stroke="#936342" cx="2002.67" cy="-276.137" rx="4.00001" ry="4.00001"/>
</g>
<!-- Credit -->
<g id="node42" class="node"><title>Credit</title>
<ellipse fill="none" stroke="black" cx="1359" cy="-254" rx="32.2457" ry="18"/>
<text text-anchor="middle" x="1359" y="-250.3" font-family="Times,serif" font-size="14.00">Credit</text>
</g>
<!-- Plan&#45;&gt;Credit -->
<g id="edge34" class="edge"><title>Plan&#45;&gt;Credit</title>
<path fill="none" stroke="#5a3f86" d="M1914.38,-322.881C1897.86,-311.282 1874.76,-297.117 1852,-290 1809.6,-276.743 1513.24,-262.033 1401.5,-256.894"/>
<ellipse fill="none" stroke="#5a3f86" cx="1917.79" cy="-325.332" rx="4.00002" ry="4.00002"/>
<polygon fill="#5a3f86" stroke="#5a3f86" points="1401.27,-256.884 1391.48,-251.932 1396.27,-256.655 1391.28,-256.427 1391.28,-256.427 1391.28,-256.427 1396.27,-256.655 1391.07,-260.922 1401.27,-256.884 1401.27,-256.884"/>
</g>
<!-- Plan&#45;&gt;Credit -->
<g id="edge35" class="edge"><title>Plan&#45;&gt;Credit</title>
<path fill="none" stroke="#699551" d="M1902.91,-338.993C1848.44,-335.369 1740.48,-326.155 1651,-306 1629.06,-301.059 1624.88,-295.173 1603,-290 1533.16,-273.492 1450.12,-263.593 1401.14,-258.728"/>
<ellipse fill="none" stroke="#699551" cx="1907.19" cy="-339.269" rx="4" ry="4"/>
<polygon fill="#699551" stroke="#699551" points="1400.88,-258.703 1391.36,-253.258 1395.9,-258.22 1390.93,-257.737 1390.93,-257.737 1390.93,-257.737 1395.9,-258.22 1390.49,-262.216 1400.88,-258.703 1400.88,-258.703"/>
<text text-anchor="middle" x="1693.5" y="-294.3" font-family="Times,serif" font-size="14.00">training_credits</text>
</g>
<!-- Plan&#45;&gt;Credit -->
<g id="edge36" class="edge"><title>Plan&#45;&gt;Credit</title>
<path fill="none" stroke="#c68269" d="M1902.94,-338.706C1865.66,-335.249 1805.63,-326.725 1758,-306 1746.91,-301.176 1747.31,-294.267 1736,-290 1675.7,-267.258 1486.62,-258.821 1401.39,-256.117"/>
<ellipse fill="none" stroke="#c68269" cx="1907.01" cy="-339.06" rx="4" ry="4"/>
<polygon fill="#c68269" stroke="#c68269" points="1401.28,-256.114 1391.43,-251.31 1396.29,-255.961 1391.29,-255.808 1391.29,-255.808 1391.29,-255.808 1396.29,-255.961 1391.15,-260.306 1401.28,-256.114 1401.28,-256.114"/>
<text text-anchor="middle" x="1803" y="-294.3" font-family="Times,serif" font-size="14.00">machine_credits</text>
</g>
<!-- Subscription -->
<g id="node53" class="node"><title>Subscription</title>
<ellipse fill="none" stroke="black" cx="1768" cy="-254" rx="55.3682" ry="18"/>
<text text-anchor="middle" x="1768" y="-250.3" font-family="Times,serif" font-size="14.00">Subscription</text>
</g>
<!-- Plan&#45;&gt;Subscription -->
<g id="edge37" class="edge"><title>Plan&#45;&gt;Subscription</title>
<path fill="none" stroke="#70e5c8" d="M1936.6,-316.002C1934.81,-306.639 1931.18,-296.666 1924,-290 1893.46,-261.66 1872.6,-281.353 1832,-272 1827.66,-271 1823.17,-269.914 1818.67,-268.79"/>
<ellipse fill="none" stroke="#70e5c8" cx="1937.17" cy="-320.016" rx="4.00001" ry="4.00001"/>
<polygon fill="#70e5c8" stroke="#70e5c8" points="1818.56,-268.762 1809.98,-261.928 1813.71,-267.525 1808.87,-266.289 1808.87,-266.289 1808.87,-266.289 1813.71,-267.525 1807.76,-270.649 1818.56,-268.762 1818.56,-268.762"/>
</g>
<!-- PlanImage -->
<g id="node71" class="node"><title>PlanImage</title>
<ellipse fill="none" stroke="black" cx="1890" cy="-254" rx="48.6179" ry="18"/>
<text text-anchor="middle" x="1890" y="-250.3" font-family="Times,serif" font-size="14.00">PlanImage</text>
</g>
<!-- Plan&#45;&gt;PlanImage -->
<g id="edge38" class="edge"><title>Plan&#45;&gt;PlanImage</title>
<path fill="none" stroke="#10d145" d="M1949.86,-317.375C1952.7,-308.365 1953.71,-298.279 1949,-290 1944.62,-282.314 1937.82,-276.142 1930.37,-271.252"/>
<ellipse fill="none" stroke="#10d145" cx="1948.42" cy="-321.202" rx="4.00001" ry="4.00001"/>
<ellipse fill="#10d145" stroke="#10d145" cx="1926.83" cy="-269.156" rx="4.00002" ry="4.00002"/>
</g>
<!-- MachineFile -->
<g id="node34" class="node"><title>MachineFile</title>
<ellipse fill="none" stroke="black" cx="2276" cy="-342" rx="55.3436" ry="18"/>
<text text-anchor="middle" x="2276" y="-338.3" font-family="Times,serif" font-size="14.00">MachineFile</text>
</g>
<!-- StatisticGraph -->
<g id="node35" class="node"><title>StatisticGraph</title>
<ellipse fill="none" stroke="black" cx="3393" cy="-450" rx="61.1419" ry="18"/>
<text text-anchor="middle" x="3393" y="-446.3" font-family="Times,serif" font-size="14.00">StatisticGraph</text>
</g>
<!-- OAuth2Mapping -->
<g id="node37" class="node"><title>OAuth2Mapping</title>
<ellipse fill="none" stroke="black" cx="4736" cy="-646" rx="71.2405" ry="18"/>
<text text-anchor="middle" x="4736" y="-642.3" font-family="Times,serif" font-size="14.00">OAuth2Mapping</text>
</g>
<!-- Licence -->
<g id="node38" class="node"><title>Licence</title>
<ellipse fill="none" stroke="black" cx="38" cy="-646" rx="38.0212" ry="18"/>
<text text-anchor="middle" x="38" y="-642.3" font-family="Times,serif" font-size="14.00">Licence</text>
</g>
<!-- Licence&#45;&gt;Project -->
<g id="edge41" class="edge"><title>Licence&#45;&gt;Project</title>
<path fill="none" stroke="#98dde5" d="M83.3284,-641.28C255.72,-627.134 869.448,-576.77 1041.1,-562.684"/>
<ellipse fill="none" stroke="#98dde5" cx="79.2855" cy="-641.612" rx="4" ry="4"/>
<polygon fill="#98dde5" stroke="#98dde5" points="1041.33,-562.666 1051.66,-566.333 1046.31,-562.257 1051.29,-561.848 1051.29,-561.848 1051.29,-561.848 1046.31,-562.257 1050.93,-557.363 1041.33,-562.666 1041.33,-562.666"/>
</g>
<!-- User&#45;&gt;Project -->
<g id="edge45" class="edge"><title>User&#45;&gt;Project</title>
<path fill="none" stroke="#6e2975" d="M1343.7,-632.678C1315.78,-621.612 1273.04,-605.4 1235,-594 1199.48,-583.355 1158.41,-573.915 1128.4,-567.53"/>
<ellipse fill="none" stroke="#6e2975" cx="1347.45" cy="-634.173" rx="4.00001" ry="4.00001"/>
<polygon fill="#6e2975" stroke="#6e2975" points="1128.05,-567.458 1119.19,-560.998 1123.16,-566.43 1118.27,-565.402 1118.27,-565.402 1118.27,-565.402 1123.16,-566.43 1117.34,-569.806 1128.05,-567.458 1128.05,-567.458"/>
<text text-anchor="middle" x="1316" y="-598.3" font-family="Times,serif" font-size="14.00">my_projects</text>
</g>
<!-- User&#45;&gt;Wallet -->
<g id="edge57" class="edge"><title>User&#45;&gt;Wallet</title>
<path fill="none" stroke="#1231be" d="M1338.6,-644.903C1150.97,-644.268 279.254,-639.72 231,-610 202.439,-592.409 187.216,-555.141 179.877,-530.077"/>
<ellipse fill="none" stroke="#1231be" cx="1342.77" cy="-644.917" rx="4" ry="4"/>
<ellipse fill="#1231be" stroke="#1231be" cx="178.743" cy="-525.948" rx="4.00001" ry="4.00001"/>
</g>
<!-- User&#45;&gt;Invoice -->
<g id="edge55" class="edge"><title>User&#45;&gt;Invoice</title>
<path fill="none" stroke="#d387f2" d="M1338.47,-644.573C1155.43,-642.289 323.156,-630.825 210,-610 141.989,-597.483 63,-628.154 63,-559 63,-559 63,-559 63,-179 63,-89.803 1510.24,-91.5581 1792.58,-92.7491"/>
<ellipse fill="none" stroke="#d387f2" cx="1342.69" cy="-644.625" rx="4" ry="4"/>
<polygon fill="#d387f2" stroke="#d387f2" points="1792.88,-92.7504 1802.86,-97.2946 1797.88,-92.7725 1802.88,-92.7946 1802.88,-92.7946 1802.88,-92.7946 1797.88,-92.7725 1802.9,-88.2946 1792.88,-92.7504 1792.88,-92.7504"/>
</g>
<!-- User&#45;&gt;Credit -->
<g id="edge52" class="edge"><title>User&#45;&gt;Credit</title>
<path fill="none" stroke="#09e42d" d="M1391.66,-621.078C1414.54,-588.45 1453.24,-527.253 1468,-468 1471.87,-452.474 1476.41,-445.61 1468,-432 1458.6,-416.783 1447.22,-423.405 1432,-414 1397.97,-392.971 1381.08,-393.992 1360,-360 1343.43,-333.294 1346.06,-321.178 1350,-290 1350.34,-287.292 1350.83,-284.494 1351.4,-281.715"/>
<polygon fill="#09e42d" stroke="#09e42d" points="1391.46,-621.355 1382,-626.886 1388.56,-625.426 1385.66,-629.498 1385.66,-629.498 1385.66,-629.498 1388.56,-625.426 1389.32,-632.11 1391.46,-621.355 1391.46,-621.355"/>
<polygon fill="#09e42d" stroke="#09e42d" points="1351.41,-281.651 1358.11,-272.967 1352.57,-276.787 1353.73,-271.923 1353.73,-271.923 1353.73,-271.923 1352.57,-276.787 1349.36,-270.88 1351.41,-281.651 1351.41,-281.651"/>
</g>
<!-- User&#45;&gt;Credit -->
<g id="edge53" class="edge"><title>User&#45;&gt;Credit</title>
<path fill="none" stroke="#b3ddc2" d="M1336.05,-645.093C1173.85,-644.999 547,-639.432 547,-559 547,-559 547,-559 547,-341 547,-262.886 1148.92,-255.531 1316.28,-254.995"/>
<polygon fill="#b3ddc2" stroke="#b3ddc2" points="1336.48,-645.093 1346.48,-649.592 1341.48,-645.092 1346.48,-645.092 1346.48,-645.092 1346.48,-645.092 1341.48,-645.092 1346.48,-640.592 1336.48,-645.093 1336.48,-645.093"/>
<polygon fill="#b3ddc2" stroke="#b3ddc2" points="1316.67,-254.994 1326.68,-259.469 1321.67,-254.982 1326.67,-254.969 1326.67,-254.969 1326.67,-254.969 1321.67,-254.982 1326.66,-250.469 1316.67,-254.994 1316.67,-254.994"/>
<text text-anchor="middle" x="589.5" y="-446.3" font-family="Times,serif" font-size="14.00">training_credits</text>
</g>
<!-- User&#45;&gt;Credit -->
<g id="edge54" class="edge"><title>User&#45;&gt;Credit</title>
<path fill="none" stroke="#7daf0f" d="M1370.19,-617.923C1363.3,-567.367 1348.99,-455.121 1344,-360 1343.16,-344.022 1343.76,-339.998 1344,-324 1344.22,-308.884 1341.92,-304.801 1345,-290 1345.6,-287.117 1346.42,-284.165 1347.37,-281.259"/>
<polygon fill="#7daf0f" stroke="#7daf0f" points="1370.22,-618.117 1367.13,-628.638 1370.9,-623.07 1371.58,-628.024 1371.58,-628.024 1371.58,-628.024 1370.9,-623.07 1376.04,-627.409 1370.22,-618.117 1370.22,-618.117"/>
<polygon fill="#7daf0f" stroke="#7daf0f" points="1347.43,-281.086 1355.14,-273.291 1349.18,-276.402 1350.93,-271.717 1350.93,-271.717 1350.93,-271.717 1349.18,-276.402 1346.71,-270.144 1347.43,-281.086 1347.43,-281.086"/>
<text text-anchor="middle" x="1398" y="-446.3" font-family="Times,serif" font-size="14.00">machine_credits</text>
</g>
<!-- Role -->
<g id="node47" class="node"><title>Role</title>
<ellipse fill="none" stroke="black" cx="785" cy="-254" rx="26.949" ry="18"/>
<text text-anchor="middle" x="785" y="-250.3" font-family="Times,serif" font-size="14.00">Role</text>
</g>
<!-- User&#45;&gt;Role -->
<g id="edge43" class="edge"><title>User&#45;&gt;Role</title>
<path fill="none" stroke="#d7a139" d="M1336.78,-644.462C1191.78,-642.221 664.688,-632.66 499,-610 401.27,-596.634 283,-657.64 283,-559 283,-559 283,-559 283,-341 283,-293.84 631.632,-265.557 747.825,-257.44"/>
<polygon fill="#d7a139" stroke="#d7a139" points="1336.93,-644.465 1346.86,-649.117 1341.93,-644.541 1346.93,-644.617 1346.93,-644.617 1346.93,-644.617 1341.93,-644.541 1347,-640.118 1336.93,-644.465 1336.93,-644.465"/>
<polygon fill="#d7a139" stroke="#d7a139" points="748.034,-257.425 758.319,-261.228 753.022,-257.082 758.01,-256.739 758.01,-256.739 758.01,-256.739 753.022,-257.082 757.701,-252.249 748.034,-257.425 748.034,-257.425"/>
</g>
<!-- Notification -->
<g id="node52" class="node"><title>Notification</title>
<ellipse fill="none" stroke="black" cx="1594" cy="-558" rx="52.9443" ry="18"/>
<text text-anchor="middle" x="1594" y="-554.3" font-family="Times,serif" font-size="14.00">Notification</text>
</g>
<!-- User&#45;&gt;Notification -->
<g id="edge42" class="edge"><title>User&#45;&gt;Notification</title>
<path fill="none" stroke="#5993f6" d="M1408.99,-641.288C1440.93,-636.92 1488.83,-627.867 1527,-610 1542.28,-602.85 1557.39,-591.786 1569.39,-581.788"/>
<ellipse fill="none" stroke="#5993f6" cx="1404.8" cy="-641.834" rx="4.00001" ry="4.00001"/>
<polygon fill="#5993f6" stroke="#5993f6" points="1569.58,-581.623 1580.09,-578.508 1573.37,-578.36 1577.16,-575.098 1577.16,-575.098 1577.16,-575.098 1573.37,-578.36 1574.22,-571.688 1569.58,-581.623 1569.58,-581.623"/>
</g>
<!-- User&#45;&gt;Subscription -->
<g id="edge50" class="edge"><title>User&#45;&gt;Subscription</title>
<path fill="none" stroke="#8eb4d1" d="M1399.01,-627.372C1405.8,-622.114 1412.94,-616.114 1419,-610 1488.54,-539.884 1474.27,-492.914 1552,-432 1665.83,-342.799 1771.95,-426.441 1852,-306 1855.94,-300.078 1855.94,-295.917 1852,-290 1847.5,-283.251 1833.1,-276.285 1817.45,-270.361"/>
<ellipse fill="none" stroke="#8eb4d1" cx="1395.59" cy="-629.951" rx="4.00002" ry="4.00002"/>
<polygon fill="#8eb4d1" stroke="#8eb4d1" points="1817.04,-270.212 1809.16,-262.586 1812.34,-268.516 1807.63,-266.82 1807.63,-266.82 1807.63,-266.82 1812.34,-268.516 1806.11,-271.053 1817.04,-270.212 1817.04,-270.212"/>
</g>
<!-- Training -->
<g id="node54" class="node"><title>Training</title>
<ellipse fill="none" stroke="black" cx="2045" cy="-558" rx="40.4202" ry="18"/>
<text text-anchor="middle" x="2045" y="-554.3" font-family="Times,serif" font-size="14.00">Training</text>
</g>
<!-- User&#45;&gt;Training -->
<g id="edge49" class="edge"><title>User&#45;&gt;Training</title>
<path fill="none" stroke="#2197ba" d="M1411.28,-641.904C1474.77,-636.481 1607.92,-624.452 1720,-610 1819.27,-597.2 1934.92,-578.026 1998.02,-567.202"/>
<polygon fill="#2197ba" stroke="#2197ba" points="1410.94,-641.933 1400.6,-638.295 1405.96,-642.356 1400.98,-642.779 1400.98,-642.779 1400.98,-642.779 1405.96,-642.356 1401.36,-647.262 1410.94,-641.933 1410.94,-641.933"/>
<polygon fill="#2197ba" stroke="#2197ba" points="1998.2,-567.171 2008.82,-569.909 2003.12,-566.323 2008.05,-565.475 2008.05,-565.475 2008.05,-565.475 2003.12,-566.323 2007.29,-561.04 1998.2,-567.171 1998.2,-567.171"/>
</g>
<!-- User&#45;&gt;Reservation -->
<g id="edge47" class="edge"><title>User&#45;&gt;Reservation</title>
<path fill="none" stroke="#ca3741" d="M1409.52,-644.634C1536.9,-642.857 1969.76,-632.685 2094,-576 2115.46,-566.208 2112.54,-551.737 2133,-540 2156.78,-526.36 2167.47,-534.251 2192,-522 2228.42,-503.806 2234.47,-493.76 2266,-468 2307.08,-434.442 2352.02,-392.311 2378.84,-366.537"/>
<ellipse fill="none" stroke="#ca3741" cx="1405.23" cy="-644.691" rx="4" ry="4"/>
<polygon fill="#ca3741" stroke="#ca3741" points="2379.04,-366.348 2389.36,-362.645 2382.64,-362.877 2386.23,-359.406 2386.23,-359.406 2386.23,-359.406 2382.64,-362.877 2383.11,-356.167 2379.04,-366.348 2379.04,-366.348"/>
</g>
<!-- UsersCredit -->
<g id="node59" class="node"><title>UsersCredit</title>
<ellipse fill="none" stroke="black" cx="537" cy="-180" rx="52.4675" ry="18"/>
<text text-anchor="middle" x="537" y="-176.3" font-family="Times,serif" font-size="14.00">UsersCredit</text>
</g>
<!-- User&#45;&gt;UsersCredit -->
<g id="edge51" class="edge"><title>User&#45;&gt;UsersCredit</title>
<path fill="none" stroke="#997ba3" d="M1338.74,-644.668C1157.39,-642.861 336.304,-633.408 288,-610 261.32,-597.07 245,-588.648 245,-559 245,-559 245,-559 245,-253 245,-205.963 389.642,-189.471 475.325,-183.828"/>
<ellipse fill="none" stroke="#997ba3" cx="1342.89" cy="-644.709" rx="4" ry="4"/>
<polygon fill="#997ba3" stroke="#997ba3" points="475.488,-183.818 485.75,-187.684 480.478,-183.505 485.468,-183.192 485.468,-183.192 485.468,-183.192 480.478,-183.505 485.187,-178.701 475.488,-183.818 475.488,-183.818"/>
</g>
<!-- User&#45;&gt;UserTag -->
<g id="edge56" class="edge"><title>User&#45;&gt;UserTag</title>
<path fill="none" stroke="#f5db34" d="M1409.48,-644.785C1468.14,-643.6 1588.54,-637.65 1686,-610 1712.59,-602.457 1740.76,-588.945 1761.67,-577.724"/>
<ellipse fill="none" stroke="#f5db34" cx="1405.28" cy="-644.857" rx="4" ry="4"/>
<polygon fill="#f5db34" stroke="#f5db34" points="1761.67,-577.722 1772.6,-576.866 1766.06,-575.321 1770.44,-572.919 1770.44,-572.919 1770.44,-572.919 1766.06,-575.321 1768.28,-568.972 1761.67,-577.722 1761.67,-577.722"/>
</g>
<!-- UserTraining -->
<g id="node69" class="node"><title>UserTraining</title>
<ellipse fill="none" stroke="black" cx="1619" cy="-450" rx="57.2688" ry="18"/>
<text text-anchor="middle" x="1619" y="-446.3" font-family="Times,serif" font-size="14.00">UserTraining</text>
</g>
<!-- User&#45;&gt;UserTraining -->
<g id="edge48" class="edge"><title>User&#45;&gt;UserTraining</title>
<path fill="none" stroke="#b628a8" d="M1408.93,-641.963C1477.85,-635.142 1627.18,-615.979 1656,-576 1677.64,-545.978 1656.54,-503.311 1638.47,-476.4"/>
<ellipse fill="none" stroke="#b628a8" cx="1404.91" cy="-642.349" rx="4" ry="4"/>
<polygon fill="#b628a8" stroke="#b628a8" points="1638.27,-476.108 1636.21,-465.336 1635.39,-472.014 1632.52,-467.919 1632.52,-467.919 1632.52,-467.919 1635.39,-472.014 1628.84,-470.502 1638.27,-476.108 1638.27,-476.108"/>
</g>
<!-- User&#45;&gt;ProjectUser -->
<g id="edge46" class="edge"><title>User&#45;&gt;ProjectUser</title>
<path fill="none" stroke="#855126" d="M1339.02,-643.305C1245.58,-637.609 984.101,-613.957 791,-522 766.309,-510.242 742.31,-490.454 725.467,-474.751"/>
<ellipse fill="none" stroke="#855126" cx="1343.02" cy="-643.539" rx="4" ry="4"/>
<polygon fill="#855126" stroke="#855126" points="725.031,-474.333 720.912,-464.17 721.417,-470.878 717.802,-467.423 717.802,-467.423 717.802,-467.423 721.417,-470.878 714.693,-470.676 725.031,-474.333 725.031,-474.333"/>
</g>
<!-- Profile -->
<g id="node81" class="node"><title>Profile</title>
<ellipse fill="none" stroke="black" cx="460" cy="-558" rx="34.1708" ry="18"/>
<text text-anchor="middle" x="460" y="-554.3" font-family="Times,serif" font-size="14.00">Profile</text>
</g>
<!-- User&#45;&gt;Profile -->
<g id="edge44" class="edge"><title>User&#45;&gt;Profile</title>
<path fill="none" stroke="#e3358d" d="M1338.61,-644.696C1188.67,-643.249 610.028,-636.014 533,-610 514.119,-603.623 495.743,-590.737 482.151,-579.514"/>
<ellipse fill="none" stroke="#e3358d" cx="1342.65" cy="-644.734" rx="4" ry="4"/>
<ellipse fill="#e3358d" stroke="#e3358d" cx="478.927" cy="-576.768" rx="4.00002" ry="4.00002"/>
</g>
<!-- ProjectStepImage -->
<g id="node40" class="node"><title>ProjectStepImage</title>
<ellipse fill="none" stroke="black" cx="823" cy="-342" rx="73.1654" ry="18"/>
<text text-anchor="middle" x="823" y="-338.3" font-family="Times,serif" font-size="14.00">ProjectStepImage</text>
</g>
<!-- Credit&#45;&gt;UsersCredit -->
<g id="edge58" class="edge"><title>Credit&#45;&gt;UsersCredit</title>
<path fill="none" stroke="#55740e" d="M1319.15,-249.51C1186.09,-237.855 756.538,-200.23 597.207,-186.274"/>
<ellipse fill="none" stroke="#55740e" cx="1323.3" cy="-249.873" rx="4" ry="4"/>
<polygon fill="#55740e" stroke="#55740e" points="597.071,-186.262 587.502,-180.906 592.09,-185.825 587.109,-185.389 587.109,-185.389 587.109,-185.389 592.09,-185.825 586.716,-189.872 597.071,-186.262 597.071,-186.262"/>
</g>
<!-- PartnerPlan -->
<g id="node43" class="node"><title>PartnerPlan</title>
<ellipse fill="none" stroke="black" cx="1655" cy="-342" rx="51.4931" ry="18"/>
<text text-anchor="middle" x="1655" y="-338.3" font-family="Times,serif" font-size="14.00">PartnerPlan</text>
</g>
<!-- PartnerPlan&#45;&gt;Price -->
<g id="edge65" class="edge"><title>PartnerPlan&#45;&gt;Price</title>
<path fill="none" stroke="#1ccaca" d="M1712.93,-336.5C1790.54,-329.195 1931.72,-311.394 2046,-272 2048.25,-271.225 2050.55,-270.368 2052.84,-269.464"/>
<ellipse fill="none" stroke="#1ccaca" cx="1708.69" cy="-336.891" rx="4" ry="4"/>
<polygon fill="#1ccaca" stroke="#1ccaca" points="2052.94,-269.424 2063.9,-269.713 2057.55,-267.493 2062.16,-265.563 2062.16,-265.563 2062.16,-265.563 2057.55,-267.493 2060.43,-261.412 2052.94,-269.424 2052.94,-269.424"/>
</g>
<!-- PartnerPlan&#45;&gt;PlanFile -->
<g id="edge64" class="edge"><title>PartnerPlan&#45;&gt;PlanFile</title>
<path fill="none" stroke="#c37c8f" d="M1711.99,-335.397C1756.2,-330.193 1818.73,-320.951 1872,-306 1903.9,-297.045 1938.69,-282.427 1963.45,-271.132"/>
<ellipse fill="none" stroke="#c37c8f" cx="1707.92" cy="-335.865" rx="4.00001" ry="4.00001"/>
<ellipse fill="#c37c8f" stroke="#c37c8f" cx="1967.16" cy="-269.418" rx="4.00002" ry="4.00002"/>
</g>
<!-- PartnerPlan&#45;&gt;Credit -->
<g id="edge59" class="edge"><title>PartnerPlan&#45;&gt;Credit</title>
<path fill="none" stroke="#5cc996" d="M1598.87,-334.052C1520.4,-324.292 1387.18,-307.536 1385,-306 1376.65,-300.112 1370.81,-290.728 1366.82,-281.605"/>
<ellipse fill="none" stroke="#5cc996" cx="1603.25" cy="-334.596" rx="4.00001" ry="4.00001"/>
<polygon fill="#5cc996" stroke="#5cc996" points="1366.72,-281.337 1367.38,-270.392 1364.94,-276.662 1363.17,-271.986 1363.17,-271.986 1363.17,-271.986 1364.94,-276.662 1358.96,-273.58 1366.72,-281.337 1366.72,-281.337"/>
</g>
<!-- PartnerPlan&#45;&gt;Credit -->
<g id="edge60" class="edge"><title>PartnerPlan&#45;&gt;Credit</title>
<path fill="none" stroke="#616585" d="M1601.33,-331.93C1575.41,-326.399 1544.3,-318.029 1518,-306 1506.68,-300.821 1506.32,-295.189 1495,-290 1464.54,-276.036 1427.59,-266.977 1399.89,-261.582"/>
<ellipse fill="none" stroke="#616585" cx="1605.28" cy="-332.747" rx="4.00001" ry="4.00001"/>
<polygon fill="#616585" stroke="#616585" points="1399.59,-261.527 1390.59,-255.268 1394.68,-260.609 1389.76,-259.691 1389.76,-259.691 1389.76,-259.691 1394.68,-260.609 1388.94,-264.115 1399.59,-261.527 1399.59,-261.527"/>
<text text-anchor="middle" x="1560.5" y="-294.3" font-family="Times,serif" font-size="14.00">training_credits</text>
</g>
<!-- PartnerPlan&#45;&gt;Credit -->
<g id="edge61" class="edge"><title>PartnerPlan&#45;&gt;Credit</title>
<path fill="none" stroke="#5a09d7" d="M1599.11,-333.811C1525.64,-324.287 1405.31,-308.407 1401,-306 1394.84,-302.557 1384.89,-290.63 1376.22,-279.175"/>
<ellipse fill="none" stroke="#5a09d7" cx="1603.41" cy="-334.368" rx="4.00001" ry="4.00001"/>
<polygon fill="#5a09d7" stroke="#5a09d7" points="1376.15,-279.086 1373.82,-268.37 1373.18,-275.066 1370.21,-271.046 1370.21,-271.046 1370.21,-271.046 1373.18,-275.066 1366.59,-273.722 1376.15,-279.086 1376.15,-279.086"/>
<text text-anchor="middle" x="1446" y="-294.3" font-family="Times,serif" font-size="14.00">machine_credits</text>
</g>
<!-- PartnerPlan&#45;&gt;Role -->
<g id="edge66" class="edge"><title>PartnerPlan&#45;&gt;Role</title>
<path fill="none" stroke="#ca90a1" d="M1597.99,-335.365C1433.14,-319.069 958.922,-272.192 822.266,-258.684"/>
<ellipse fill="none" stroke="#ca90a1" cx="1602.07" cy="-335.767" rx="4" ry="4"/>
<polygon fill="#ca90a1" stroke="#ca90a1" points="821.871,-258.645 812.362,-253.183 816.895,-258.153 811.92,-257.661 811.92,-257.661 811.92,-257.661 816.895,-258.153 811.477,-262.139 821.871,-258.645 821.871,-258.645"/>
</g>
<!-- PartnerPlan&#45;&gt;Subscription -->
<g id="edge62" class="edge"><title>PartnerPlan&#45;&gt;Subscription</title>
<path fill="none" stroke="#31cc38" d="M1687.72,-321.859C1695.52,-316.941 1703.7,-311.483 1711,-306 1722.23,-297.568 1733.9,-287.401 1743.74,-278.37"/>
<ellipse fill="none" stroke="#31cc38" cx="1684.1" cy="-324.103" rx="4.00002" ry="4.00002"/>
<polygon fill="#31cc38" stroke="#31cc38" points="1743.88,-278.243 1754.26,-274.72 1747.54,-274.835 1751.2,-271.427 1751.2,-271.427 1751.2,-271.427 1747.54,-274.835 1748.13,-268.134 1743.88,-278.243 1743.88,-278.243"/>
</g>
<!-- PartnerPlan&#45;&gt;PlanImage -->
<g id="edge63" class="edge"><title>PartnerPlan&#45;&gt;PlanImage</title>
<path fill="none" stroke="#24a3f4" d="M1714.78,-340.922C1755.2,-338.409 1808.4,-330.122 1849,-306 1860.11,-299.399 1869.44,-288.596 1876.38,-278.627"/>
<ellipse fill="none" stroke="#24a3f4" cx="1710.61" cy="-341.147" rx="4" ry="4"/>
<ellipse fill="#24a3f4" stroke="#24a3f4" cx="1878.6" cy="-275.262" rx="4.00002" ry="4.00002"/>
</g>
<!-- OAuth2Provider -->
<g id="node44" class="node"><title>OAuth2Provider</title>
<ellipse fill="none" stroke="black" cx="4736" cy="-741" rx="69.3156" ry="18"/>
<text text-anchor="middle" x="4736" y="-737.3" font-family="Times,serif" font-size="14.00">OAuth2Provider</text>
</g>
<!-- OAuth2Provider&#45;&gt;OAuth2Mapping -->
<g id="edge68" class="edge"><title>OAuth2Provider&#45;&gt;OAuth2Mapping</title>
<path fill="none" stroke="#1b2fb7" d="M4736,-714.562C4736,-702.078 4736,-687.025 4736,-674.299"/>
<ellipse fill="none" stroke="#1b2fb7" cx="4736" cy="-718.942" rx="4" ry="4"/>
<polygon fill="#1b2fb7" stroke="#1b2fb7" points="4736,-674.264 4740.5,-664.264 4736,-669.264 4736,-664.264 4736,-664.264 4736,-664.264 4736,-669.264 4731.5,-664.264 4736,-674.264 4736,-674.264"/>
</g>
<!-- AuthProvider -->
<g id="node67" class="node"><title>AuthProvider</title>
<ellipse fill="none" stroke="black" cx="4890" cy="-646" rx="58.2422" ry="18"/>
<text text-anchor="middle" x="4890" y="-642.3" font-family="Times,serif" font-size="14.00">AuthProvider</text>
</g>
<!-- OAuth2Provider&#45;&gt;AuthProvider -->
<g id="edge67" class="edge"><title>OAuth2Provider&#45;&gt;AuthProvider</title>
<path fill="none" stroke="#2c0ed9" d="M4769.14,-719.989C4795.35,-704.157 4831.75,-682.178 4857.74,-666.484"/>
<ellipse fill="none" stroke="#2c0ed9" cx="4765.55" cy="-722.156" rx="4.00002" ry="4.00002"/>
<ellipse fill="#2c0ed9" stroke="#2c0ed9" cx="4861.35" cy="-664.303" rx="4.00002" ry="4.00002"/>
</g>
<!-- Asset -->
<g id="node48" class="node"><title>Asset</title>
<ellipse fill="none" stroke="black" cx="5019" cy="-741" rx="30.3206" ry="18"/>
<text text-anchor="middle" x="5019" y="-737.3" font-family="Times,serif" font-size="14.00">Asset</text>
</g>
<!-- Project::OpenlabSync -->
<g id="node49" class="node"><title>Project::OpenlabSync</title>
<polygon fill="none" stroke="black" stroke-dasharray="1,5" points="5202.25,-759 5067.75,-759 5067.75,-723 5202.25,-723 5202.25,-759"/>
<text text-anchor="middle" x="5135" y="-737.3" font-family="Times,serif" font-size="14.00">Project::OpenlabSync</text>
</g>
<!-- DatabaseProvider -->
<g id="node50" class="node"><title>DatabaseProvider</title>
<ellipse fill="none" stroke="black" cx="4897" cy="-741" rx="73.1654" ry="18"/>
<text text-anchor="middle" x="4897" y="-737.3" font-family="Times,serif" font-size="14.00">DatabaseProvider</text>
</g>
<!-- DatabaseProvider&#45;&gt;AuthProvider -->
<g id="edge69" class="edge"><title>DatabaseProvider&#45;&gt;AuthProvider</title>
<path fill="none" stroke="#7f74f3" d="M4895.09,-714.562C4894.1,-701.454 4892.9,-685.513 4891.91,-672.408"/>
<ellipse fill="none" stroke="#7f74f3" cx="4895.42" cy="-718.954" rx="4" ry="4"/>
<ellipse fill="#7f74f3" stroke="#7f74f3" cx="4891.6" cy="-668.253" rx="4" ry="4"/>
</g>
<!-- Availability&#45;&gt;AvailabilityTag -->
<g id="edge77" class="edge"><title>Availability&#45;&gt;AvailabilityTag</title>
<path fill="none" stroke="#0c07ed" d="M2362.01,-634.238C2338.81,-628.509 2311.47,-620.458 2288,-610 2270.56,-602.227 2252.51,-591.034 2237.97,-581.113"/>
<ellipse fill="none" stroke="#0c07ed" cx="2366.14" cy="-635.232" rx="4.00001" ry="4.00001"/>
<polygon fill="#0c07ed" stroke="#0c07ed" points="2237.62,-580.865 2231.99,-571.452 2233.52,-578.004 2229.42,-575.143 2229.42,-575.143 2229.42,-575.143 2233.52,-578.004 2226.84,-578.833 2237.62,-580.865 2237.62,-580.865"/>
</g>
<!-- Availability&#45;&gt;Event -->
<g id="edge76" class="edge"><title>Availability&#45;&gt;Event</title>
<path fill="none" stroke="#a0be23" d="M2469.22,-636.785C2510.39,-630.355 2567.93,-620.725 2618,-610 2675.36,-597.715 2741.17,-580.04 2780.62,-569.052"/>
<ellipse fill="none" stroke="#a0be23" cx="2465.16" cy="-637.415" rx="4.00001" ry="4.00001"/>
<ellipse fill="#a0be23" stroke="#a0be23" cx="2784.77" cy="-567.891" rx="4.00001" ry="4.00001"/>
</g>
<!-- Availability&#45;&gt;Training -->
<g id="edge73" class="edge"><title>Availability&#45;&gt;Training</title>
<path fill="none" stroke="#4e8e9a" d="M2360.63,-633.552C2329.74,-626.851 2290.13,-618.132 2255,-610 2197.64,-596.724 2131.7,-580.561 2089.25,-570.039"/>
<polygon fill="#4e8e9a" stroke="#4e8e9a" points="2360.98,-633.628 2369.8,-640.142 2365.87,-634.686 2370.75,-635.744 2370.75,-635.744 2370.75,-635.744 2365.87,-634.686 2371.71,-631.346 2360.98,-633.628 2360.98,-633.628"/>
<polygon fill="#4e8e9a" stroke="#4e8e9a" points="2089.21,-570.03 2080.59,-563.254 2084.36,-568.826 2079.5,-567.621 2079.5,-567.621 2079.5,-567.621 2084.36,-568.826 2078.42,-571.989 2089.21,-570.03 2089.21,-570.03"/>
</g>
<!-- Availability&#45;&gt;Reservation -->
<g id="edge75" class="edge"><title>Availability&#45;&gt;Reservation</title>
<path fill="none" stroke="#4f3463" d="M2438.22,-621.601C2475.86,-582.265 2540.91,-500.467 2509,-432 2494.8,-401.546 2464.49,-377.808 2439.9,-362.535"/>
<polygon fill="#4f3463" stroke="#4f3463" points="2438.09,-621.737 2427.88,-625.739 2434.59,-625.311 2431.09,-628.885 2431.09,-628.885 2431.09,-628.885 2434.59,-625.311 2434.31,-632.032 2438.09,-621.737 2438.09,-621.737"/>
<polygon fill="#4f3463" stroke="#4f3463" points="2439.73,-362.429 2433.46,-353.433 2435.44,-359.862 2431.15,-357.295 2431.15,-357.295 2431.15,-357.295 2435.44,-359.862 2428.84,-361.156 2439.73,-362.429 2439.73,-362.429"/>
</g>
<!-- Slot -->
<g id="node61" class="node"><title>Slot</title>
<ellipse fill="none" stroke="black" cx="2927" cy="-254" rx="27" ry="18"/>
<text text-anchor="middle" x="2927" y="-250.3" font-family="Times,serif" font-size="14.00">Slot</text>
</g>
<!-- Availability&#45;&gt;Slot -->
<g id="edge74" class="edge"><title>Availability&#45;&gt;Slot</title>
<path fill="none" stroke="#3a92c9" d="M2474.09,-643.841C2643.03,-639.792 3110,-622.826 3110,-559 3110,-559 3110,-559 3110,-341 3110,-277.154 3017.63,-260.619 2964.14,-256.397"/>
<ellipse fill="none" stroke="#3a92c9" cx="2470.03" cy="-643.936" rx="4" ry="4"/>
<polygon fill="#3a92c9" stroke="#3a92c9" points="2963.98,-256.386 2954.31,-251.216 2958.99,-256.046 2954,-255.706 2954,-255.706 2954,-255.706 2958.99,-256.046 2953.7,-260.196 2963.98,-256.386 2963.98,-256.386"/>
</g>
<!-- MachinesAvailability -->
<g id="node64" class="node"><title>MachinesAvailability</title>
<ellipse fill="none" stroke="black" cx="2582" cy="-342" rx="87.1385" ry="18"/>
<text text-anchor="middle" x="2582" y="-338.3" font-family="Times,serif" font-size="14.00">MachinesAvailability</text>
</g>
<!-- Availability&#45;&gt;MachinesAvailability -->
<g id="edge70" class="edge"><title>Availability&#45;&gt;MachinesAvailability</title>
<path fill="none" stroke="#a91739" d="M2447.52,-626.013C2455.17,-621.151 2463.08,-615.679 2470,-610 2486.04,-596.837 2490.47,-593.252 2502,-576 2545.89,-510.345 2554.64,-490.301 2575,-414 2578.78,-399.836 2580.56,-383.592 2581.38,-370.219"/>
<ellipse fill="none" stroke="#a91739" cx="2444" cy="-628.189" rx="4.00002" ry="4.00002"/>
<polygon fill="#a91739" stroke="#a91739" points="2581.38,-370.194 2586.35,-360.418 2581.62,-365.199 2581.86,-360.205 2581.86,-360.205 2581.86,-360.205 2581.62,-365.199 2577.36,-359.992 2581.38,-370.194 2581.38,-370.194"/>
</g>
<!-- TrainingsAvailability -->
<g id="node74" class="node"><title>TrainingsAvailability</title>
<ellipse fill="none" stroke="black" cx="2414" cy="-450" rx="86.1637" ry="18"/>
<text text-anchor="middle" x="2414" y="-446.3" font-family="Times,serif" font-size="14.00">TrainingsAvailability</text>
</g>
<!-- Availability&#45;&gt;TrainingsAvailability -->
<g id="edge72" class="edge"><title>Availability&#45;&gt;TrainingsAvailability</title>
<path fill="none" stroke="#496612" d="M2414,-619.576C2414,-583.046 2414,-515.981 2414,-478.39"/>
<ellipse fill="none" stroke="#496612" cx="2414" cy="-623.784" rx="4" ry="4"/>
<polygon fill="#496612" stroke="#496612" points="2414,-478.178 2418.5,-468.178 2414,-473.178 2414,-468.178 2414,-468.178 2414,-468.178 2414,-473.178 2409.5,-468.178 2414,-478.178 2414,-478.178"/>
</g>
<!-- Availability&#45;&gt;Machine -->
<g id="edge71" class="edge"><title>Availability&#45;&gt;Machine</title>
<path fill="none" stroke="#5fe5a3" d="M2389.94,-621.777C2364.89,-598.589 2323.69,-563.158 2283,-540 2248.79,-520.527 2146.41,-484.727 2088.01,-464.985"/>
<polygon fill="#5fe5a3" stroke="#5fe5a3" points="2390.19,-622.009 2394.41,-632.129 2393.84,-625.427 2397.48,-628.845 2397.48,-628.845 2397.48,-628.845 2393.84,-625.427 2400.56,-625.56 2390.19,-622.009 2390.19,-622.009"/>
<polygon fill="#5fe5a3" stroke="#5fe5a3" points="2087.82,-464.92 2079.78,-457.462 2083.08,-463.323 2078.34,-461.726 2078.34,-461.726 2078.34,-461.726 2083.08,-463.323 2076.9,-465.991 2087.82,-464.92 2087.82,-464.92"/>
</g>
<!-- Subscription&#45;&gt;Invoice -->
<g id="edge78" class="edge"><title>Subscription&#45;&gt;Invoice</title>
<path fill="none" stroke="#2632e6" d="M1770.2,-227.755C1772.56,-208.942 1777.36,-182.987 1787,-162 1794.65,-145.334 1806.97,-128.957 1817.8,-116.343"/>
<ellipse fill="none" stroke="#2632e6" cx="1769.74" cy="-231.879" rx="4.00001" ry="4.00001"/>
<polygon fill="#2632e6" stroke="#2632e6" points="1818,-116.112 1828.01,-111.619 1821.32,-112.372 1824.64,-108.632 1824.64,-108.632 1824.64,-108.632 1821.32,-112.372 1821.27,-105.646 1818,-116.112 1818,-116.112"/>
</g>
<!-- Subscription&#45;&gt;OfferDay -->
<g id="edge79" class="edge"><title>Subscription&#45;&gt;OfferDay</title>
<path fill="none" stroke="#db39d6" d="M1790.13,-230.873C1798.51,-222.486 1808.09,-212.913 1816.59,-204.412"/>
<ellipse fill="none" stroke="#db39d6" cx="1787.17" cy="-233.834" rx="4.00002" ry="4.00002"/>
<polygon fill="#db39d6" stroke="#db39d6" points="1816.66,-204.344 1826.91,-200.455 1820.19,-200.809 1823.73,-197.273 1823.73,-197.273 1823.73,-197.273 1820.19,-200.809 1820.54,-194.091 1816.66,-204.344 1816.66,-204.344"/>
</g>
<!-- Training&#45;&gt;TrainingImage -->
<g id="edge80" class="edge"><title>Training&#45;&gt;TrainingImage</title>
<path fill="none" stroke="#e8cdf7" d="M2069.29,-536.399C2091,-517.996 2122.67,-491.138 2144.68,-472.473"/>
<ellipse fill="none" stroke="#e8cdf7" cx="2065.96" cy="-539.226" rx="4.00002" ry="4.00002"/>
<ellipse fill="#e8cdf7" stroke="#e8cdf7" cx="2147.84" cy="-469.789" rx="4.00002" ry="4.00002"/>
</g>
<!-- Training&#45;&gt;TrainingsPricing -->
<g id="edge85" class="edge"><title>Training&#45;&gt;TrainingsPricing</title>
<path fill="none" stroke="#f1caad" d="M2000,-548.955C1971.18,-543.1 1933.26,-534.081 1901,-522 1864.71,-508.412 1825.69,-487.511 1798.61,-471.9"/>
<ellipse fill="none" stroke="#f1caad" cx="2003.95" cy="-549.741" rx="4.00001" ry="4.00001"/>
<polygon fill="#f1caad" stroke="#f1caad" points="1798.55,-471.863 1792.18,-462.939 1794.23,-469.345 1789.91,-466.827 1789.91,-466.827 1789.91,-466.827 1794.23,-469.345 1787.64,-470.715 1798.55,-471.863 1798.55,-471.863"/>
</g>
<!-- Training&#45;&gt;Plan -->
<g id="edge87" class="edge"><title>Training&#45;&gt;Plan</title>
<path fill="none" stroke="#797f44" d="M1996.66,-549.059C1980.64,-543.979 1964.3,-535.651 1954,-522 1920.48,-477.57 1925.9,-408.141 1932.28,-370.129"/>
<polygon fill="#797f44" stroke="#797f44" points="1996.9,-549.126 2005.31,-556.154 2001.71,-550.473 2006.53,-551.82 2006.53,-551.82 2006.53,-551.82 2001.71,-550.473 2007.74,-547.487 1996.9,-549.126 1996.9,-549.126"/>
<polygon fill="#797f44" stroke="#797f44" points="1932.36,-369.682 1938.58,-360.653 1933.26,-364.763 1934.15,-359.845 1934.15,-359.845 1934.15,-359.845 1933.26,-364.763 1929.73,-359.036 1932.36,-369.682 1932.36,-369.682"/>
</g>
<!-- Training&#45;&gt;Credit -->
<g id="edge86" class="edge"><title>Training&#45;&gt;Credit</title>
<path fill="none" stroke="#a64121" d="M2000.37,-548.243C1978.98,-542.782 1953.59,-534.381 1933,-522 1884.25,-492.687 1893.72,-455.687 1842,-432 1795.99,-410.928 1664.93,-422.247 1615,-414 1518.64,-398.083 1484.91,-411.608 1402,-360 1375.23,-343.34 1366.89,-335.586 1356,-306 1353.23,-298.477 1352.79,-289.908 1353.38,-281.97"/>
<ellipse fill="none" stroke="#a64121" cx="2004.47" cy="-549.245" rx="4.00001" ry="4.00001"/>
<polygon fill="#a64121" stroke="#a64121" points="1353.38,-281.959 1359.1,-272.605 1354.01,-276.999 1354.64,-272.039 1354.64,-272.039 1354.64,-272.039 1354.01,-276.999 1350.18,-271.473 1353.38,-281.959 1353.38,-281.959"/>
</g>
<!-- Training&#45;&gt;Reservation -->
<g id="edge83" class="edge"><title>Training&#45;&gt;Reservation</title>
<path fill="none" stroke="#27c588" d="M2083.27,-543.271C2133.54,-524.65 2218.22,-491.068 2242,-468 2273.96,-436.999 2252.04,-406.798 2286,-378 2288.81,-375.618 2323.04,-365.509 2353.76,-356.764"/>
<ellipse fill="none" stroke="#27c588" cx="2079.27" cy="-544.745" rx="4.00001" ry="4.00001"/>
<polygon fill="#27c588" stroke="#27c588" points="2353.94,-356.712 2364.79,-358.313 2358.75,-355.348 2363.56,-353.984 2363.56,-353.984 2363.56,-353.984 2358.75,-355.348 2362.33,-349.655 2353.94,-356.712 2353.94,-356.712"/>
</g>
<!-- Training&#45;&gt;UserTraining -->
<g id="edge84" class="edge"><title>Training&#45;&gt;UserTraining</title>
<path fill="none" stroke="#5911b6" d="M1997.7,-552.092C1952.22,-546.783 1881.76,-537.008 1822,-522 1765.34,-507.77 1702.12,-484.414 1661.51,-468.402"/>
<ellipse fill="none" stroke="#5911b6" cx="2001.92" cy="-552.575" rx="4.00001" ry="4.00001"/>
<polygon fill="#5911b6" stroke="#5911b6" points="1661.49,-468.394 1653.86,-460.519 1656.84,-466.547 1652.2,-464.701 1652.2,-464.701 1652.2,-464.701 1656.84,-466.547 1650.53,-468.883 1661.49,-468.394 1661.49,-468.394"/>
</g>
<!-- Training&#45;&gt;TrainingsAvailability -->
<g id="edge82" class="edge"><title>Training&#45;&gt;TrainingsAvailability</title>
<path fill="none" stroke="#35ab18" d="M2089.38,-548.266C2103.33,-545.564 2118.8,-542.612 2133,-540 2178.7,-531.592 2191.29,-534.676 2236,-522 2283.4,-508.562 2335.52,-486.914 2371.04,-471.051"/>
<ellipse fill="none" stroke="#35ab18" cx="2085.29" cy="-549.061" rx="4.00001" ry="4.00001"/>
<polygon fill="#35ab18" stroke="#35ab18" points="2371.48,-470.851 2382.45,-470.844 2376.04,-468.796 2380.6,-466.741 2380.6,-466.741 2380.6,-466.741 2376.04,-468.796 2378.75,-462.639 2371.48,-470.851 2371.48,-470.851"/>
</g>
<!-- Training&#45;&gt;Machine -->
<g id="edge81" class="edge"><title>Training&#45;&gt;Machine</title>
<path fill="none" stroke="#7c1afb" d="M2063.74,-532.15C2065.48,-528.871 2066.97,-525.448 2068,-522 2072.59,-506.671 2072.43,-501.374 2068,-486 2067.02,-482.586 2065.59,-479.184 2063.93,-475.917"/>
<polygon fill="#7c1afb" stroke="#7c1afb" points="2063.6,-532.381 2054.54,-538.562 2060.99,-536.646 2058.38,-540.911 2058.38,-540.911 2058.38,-540.911 2060.99,-536.646 2062.22,-543.26 2063.6,-532.381 2063.6,-532.381"/>
<polygon fill="#7c1afb" stroke="#7c1afb" points="2063.86,-475.795 2062.69,-464.892 2061.33,-471.481 2058.8,-467.167 2058.8,-467.167 2058.8,-467.167 2061.33,-471.481 2054.92,-469.442 2063.86,-475.795 2063.86,-475.795"/>
</g>
<!-- ProjectStep&#45;&gt;ProjectStepImage -->
<g id="edge88" class="edge"><title>ProjectStep&#45;&gt;ProjectStepImage</title>
<path fill="none" stroke="#7241ed" d="M823,-423.795C823,-407.123 823,-385.335 823,-368.586"/>
<ellipse fill="none" stroke="#7241ed" cx="823" cy="-427.969" rx="4" ry="4"/>
<ellipse fill="#7241ed" stroke="#7241ed" cx="823" cy="-364.341" rx="4" ry="4"/>
</g>
<!-- Reservation&#45;&gt;Invoice -->
<g id="edge90" class="edge"><title>Reservation&#45;&gt;Invoice</title>
<path fill="none" stroke="#c8fe0a" d="M2364.56,-324.067C2260.21,-278.101 1972.87,-151.53 1873.97,-107.964"/>
<ellipse fill="none" stroke="#c8fe0a" cx="2368.27" cy="-325.701" rx="4.00002" ry="4.00002"/>
<ellipse fill="#c8fe0a" stroke="#c8fe0a" cx="1870.29" cy="-106.343" rx="4.00002" ry="4.00002"/>
</g>
<!-- Reservation&#45;&gt;Slot -->
<g id="edge89" class="edge"><title>Reservation&#45;&gt;Slot</title>
<path fill="none" stroke="#4b493a" d="M2454.32,-330.097C2464.79,-327.985 2475.73,-325.853 2486,-324 2635.86,-296.945 2815.5,-270.769 2890.9,-260.064"/>
<ellipse fill="none" stroke="#4b493a" cx="2450.35" cy="-330.906" rx="4.00001" ry="4.00001"/>
<polygon fill="#4b493a" stroke="#4b493a" points="2890.93,-260.059 2901.46,-263.113 2895.88,-259.358 2900.83,-258.658 2900.83,-258.658 2900.83,-258.658 2895.88,-259.358 2900.2,-254.202 2890.93,-260.059 2890.93,-260.059"/>
</g>
<!-- StatisticIndex&#45;&gt;StatisticType -->
<g id="edge91" class="edge"><title>StatisticIndex&#45;&gt;StatisticType</title>
<path fill="none" stroke="#f9191a" d="M3537.81,-583.984C3539.61,-594.547 3540.94,-606.881 3541.48,-617.684"/>
<ellipse fill="none" stroke="#f9191a" cx="3537.02" cy="-579.885" rx="4.00001" ry="4.00001"/>
<polygon fill="#f9191a" stroke="#f9191a" points="3541.48,-618.012 3537.23,-628.118 3541.6,-623.011 3541.73,-628.009 3541.73,-628.009 3541.73,-628.009 3541.6,-623.011 3546.22,-627.9 3541.48,-618.012 3541.48,-618.012"/>
</g>
<!-- StatisticIndex&#45;&gt;StatisticGraph -->
<g id="edge93" class="edge"><title>StatisticIndex&#45;&gt;StatisticGraph</title>
<path fill="none" stroke="#099d49" d="M3501.72,-535.734C3478.03,-517.271 3443.91,-490.676 3420.23,-472.225"/>
<ellipse fill="none" stroke="#099d49" cx="3505.19" cy="-538.442" rx="4.00002" ry="4.00002"/>
<ellipse fill="#099d49" stroke="#099d49" cx="3417" cy="-469.71" rx="4.00002" ry="4.00002"/>
</g>
<!-- StatisticField -->
<g id="node58" class="node"><title>StatisticField</title>
<ellipse fill="none" stroke="black" cx="3529" cy="-450" rx="57.2927" ry="18"/>
<text text-anchor="middle" x="3529" y="-446.3" font-family="Times,serif" font-size="14.00">StatisticField</text>
</g>
<!-- StatisticIndex&#45;&gt;StatisticField -->
<g id="edge92" class="edge"><title>StatisticIndex&#45;&gt;StatisticField</title>
<path fill="none" stroke="#d793a8" d="M3523.15,-531.743C3521.99,-515.577 3521.95,-494.617 3523.02,-478.103"/>
<ellipse fill="none" stroke="#d793a8" cx="3523.53" cy="-535.985" rx="4" ry="4"/>
<polygon fill="#d793a8" stroke="#d793a8" points="3523.04,-477.952 3528.37,-468.372 3523.46,-472.97 3523.89,-467.988 3523.89,-467.988 3523.89,-467.988 3523.46,-472.97 3519.41,-467.605 3523.04,-477.952 3523.04,-477.952"/>
</g>
<!-- StatisticField&#45;&gt;StatisticIndex -->
<g id="edge94" class="edge"><title>StatisticField&#45;&gt;StatisticIndex</title>
<path fill="none" stroke="#6a277e" d="M3534.85,-476.236C3536.05,-493.013 3536.05,-514.962 3534.85,-531.743"/>
<ellipse fill="none" stroke="#6a277e" cx="3534.47" cy="-471.973" rx="4" ry="4"/>
<ellipse fill="#6a277e" stroke="#6a277e" cx="3534.47" cy="-535.985" rx="4" ry="4"/>
</g>
<!-- WalletTransaction&#45;&gt;Invoice -->
<g id="edge95" class="edge"><title>WalletTransaction&#45;&gt;Invoice</title>
<path fill="none" stroke="#b250fd" d="M164.924,-370.418C172.412,-351.332 181,-323.996 181,-299 181,-299 181,-299 181,-179 181,-95.8145 1528.81,-92.7183 1794.75,-92.917"/>
<ellipse fill="none" stroke="#b250fd" cx="163.319" cy="-374.357" rx="4.00001" ry="4.00001"/>
<ellipse fill="#b250fd" stroke="#b250fd" cx="1799.02" cy="-92.9209" rx="4" ry="4"/>
</g>
<!-- Avoir -->
<g id="node65" class="node"><title>Avoir</title>
<ellipse fill="none" stroke="black" cx="2209" cy="-180" rx="31.2965" ry="18"/>
<text text-anchor="middle" x="2209" y="-176.3" font-family="Times,serif" font-size="14.00">Avoir</text>
</g>
<!-- Avoir&#45;&gt;InvoiceItem -->
<g id="edge96" class="edge"><title>Avoir&#45;&gt;InvoiceItem</title>
<path fill="none" stroke="#a5a6b7" d="M2208.8,-153.783C2208.02,-145.331 2206.35,-136.022 2203,-128 2188.96,-94.368 2161.36,-62.6041 2140.99,-42.1377"/>
<ellipse fill="none" stroke="#a5a6b7" cx="2209.06" cy="-157.879" rx="4" ry="4"/>
<polygon fill="#a5a6b7" stroke="#a5a6b7" points="2140.99,-42.134 2137.01,-31.9159 2137.42,-38.63 2133.85,-35.1261 2133.85,-35.1261 2133.85,-35.1261 2137.42,-38.63 2130.7,-38.3363 2140.99,-42.134 2140.99,-42.134"/>
</g>
<!-- Avoir&#45;&gt;Invoice -->
<g id="edge97" class="edge"><title>Avoir&#45;&gt;Invoice</title>
<path fill="none" stroke="#bc9f28" d="M2188.3,-158.022C2175.57,-145.628 2160.18,-131.659 2152,-128 2105.35,-107.123 1959.63,-98.0514 1885.02,-94.6919"/>
<ellipse fill="none" stroke="#bc9f28" cx="2191.44" cy="-161.12" rx="4.00002" ry="4.00002"/>
<ellipse fill="#bc9f28" stroke="#bc9f28" cx="1880.71" cy="-94.5035" rx="4" ry="4"/>
<text text-anchor="middle" x="2187" y="-132.3" font-family="Times,serif" font-size="14.00">avoir</text>
</g>
<!-- NotificationType -->
<g id="node66" class="node"><title>NotificationType</title>
<polygon fill="none" stroke="black" points="5331,-759 5221,-759 5221,-723 5331,-723 5331,-759"/>
<text text-anchor="middle" x="5276" y="-737.3" font-family="Times,serif" font-size="14.00">NotificationType</text>
</g>
<!-- Stylesheet -->
<g id="node68" class="node"><title>Stylesheet</title>
<ellipse fill="none" stroke="black" cx="5396" cy="-741" rx="46.1964" ry="18"/>
<text text-anchor="middle" x="5396" y="-737.3" font-family="Times,serif" font-size="14.00">Stylesheet</text>
</g>
<!-- MachineImage -->
<g id="node75" class="node"><title>MachineImage</title>
<ellipse fill="none" stroke="black" cx="2138" cy="-342" rx="64.0172" ry="18"/>
<text text-anchor="middle" x="2138" y="-338.3" font-family="Times,serif" font-size="14.00">MachineImage</text>
</g>
<!-- Feed -->
<g id="node76" class="node"><title>Feed</title>
<polygon fill="none" stroke="black" points="5515,-759 5461,-759 5461,-723 5515,-723 5515,-759"/>
<text text-anchor="middle" x="5488" y="-737.3" font-family="Times,serif" font-size="14.00">Feed</text>
</g>
<!-- Machine&#45;&gt;Price -->
<g id="edge101" class="edge"><title>Machine&#45;&gt;Price</title>
<path fill="none" stroke="#62168e" d="M2043.53,-423.658C2042.22,-396.517 2044.13,-353.394 2065,-324 2074.9,-310.058 2090.18,-320.648 2099,-306 2103.7,-298.187 2102.54,-288.807 2099.34,-280.234"/>
<ellipse fill="none" stroke="#62168e" cx="2043.8" cy="-427.878" rx="4" ry="4"/>
<polygon fill="#62168e" stroke="#62168e" points="2099.28,-280.095 2099.15,-269.129 2097.17,-275.559 2095.07,-271.024 2095.07,-271.024 2095.07,-271.024 2097.17,-275.559 2090.98,-272.919 2099.28,-280.095 2099.28,-280.095"/>
</g>
<!-- Machine&#45;&gt;Plan -->
<g id="edge104" class="edge"><title>Machine&#45;&gt;Plan</title>
<path fill="none" stroke="#0fab01" d="M2022.2,-425.645C2003.55,-407.34 1977.82,-382.081 1959.72,-364.32"/>
<polygon fill="#0fab01" stroke="#0fab01" points="2022.46,-425.896 2026.45,-436.112 2026.03,-429.399 2029.6,-432.901 2029.6,-432.901 2029.6,-432.901 2026.03,-429.399 2032.75,-429.689 2022.46,-425.896 2022.46,-425.896"/>
<polygon fill="#0fab01" stroke="#0fab01" points="1959.61,-364.214 1955.63,-353.998 1956.05,-360.712 1952.48,-357.21 1952.48,-357.21 1952.48,-357.21 1956.05,-360.712 1949.33,-360.421 1959.61,-364.214 1959.61,-364.214"/>
</g>
<!-- Machine&#45;&gt;MachineFile -->
<g id="edge99" class="edge"><title>Machine&#45;&gt;MachineFile</title>
<path fill="none" stroke="#505125" d="M2081.18,-432.784C2122.92,-413.551 2192.32,-381.565 2236.04,-361.416"/>
<ellipse fill="none" stroke="#505125" cx="2077.38" cy="-434.54" rx="4.00002" ry="4.00002"/>
<polygon fill="#505125" stroke="#505125" points="2236.15,-361.367 2247.11,-361.268 2240.69,-359.274 2245.23,-357.181 2245.23,-357.181 2245.23,-357.181 2240.69,-359.274 2243.35,-353.094 2236.15,-361.367 2236.15,-361.367"/>
</g>
<!-- Machine&#45;&gt;Credit -->
<g id="edge103" class="edge"><title>Machine&#45;&gt;Credit</title>
<path fill="none" stroke="#c75709" d="M1998.7,-442.191C1852.01,-420.644 1411.91,-352.626 1368,-306 1362.04,-299.672 1359.3,-290.849 1358.19,-282.318"/>
<ellipse fill="none" stroke="#c75709" cx="2002.75" cy="-442.783" rx="4.00001" ry="4.00001"/>
<polygon fill="#c75709" stroke="#c75709" points="1358.19,-282.225 1362.04,-271.959 1357.87,-277.235 1357.55,-272.245 1357.55,-272.245 1357.55,-272.245 1357.87,-277.235 1353.06,-272.531 1358.19,-282.225 1358.19,-282.225"/>
</g>
<!-- Machine&#45;&gt;Reservation -->
<g id="edge102" class="edge"><title>Machine&#45;&gt;Reservation</title>
<path fill="none" stroke="#d54ea6" d="M2085.54,-435.41C2089.4,-434.208 2093.27,-433.051 2097,-432 2131.25,-422.364 2141.4,-425.683 2175,-414 2210.3,-401.727 2215.53,-389.791 2251,-378 2289.3,-365.268 2300.72,-369.262 2340,-360 2344.58,-358.919 2349.34,-357.742 2354.09,-356.527"/>
<ellipse fill="none" stroke="#d54ea6" cx="2081.5" cy="-436.703" rx="4.00001" ry="4.00001"/>
<polygon fill="#d54ea6" stroke="#d54ea6" points="2354.1,-356.523 2364.91,-358.354 2358.94,-355.262 2363.78,-354 2363.78,-354 2363.78,-354 2358.94,-355.262 2362.64,-349.645 2354.1,-356.523 2354.1,-356.523"/>
</g>
<!-- Machine&#45;&gt;MachinesAvailability -->
<g id="edge100" class="edge"><title>Machine&#45;&gt;MachinesAvailability</title>
<path fill="none" stroke="#0f5a90" d="M2084.81,-435.247C2088.89,-434.044 2093.01,-432.932 2097,-432 2153.8,-418.721 2169.49,-423.724 2227,-414 2327.56,-396.997 2443.27,-373.023 2514.52,-357.746"/>
<ellipse fill="none" stroke="#0f5a90" cx="2080.85" cy="-436.469" rx="4.00001" ry="4.00001"/>
<polygon fill="#0f5a90" stroke="#0f5a90" points="2514.93,-357.659 2525.65,-359.957 2519.82,-356.608 2524.71,-355.557 2524.71,-355.557 2524.71,-355.557 2519.82,-356.608 2523.76,-351.158 2514.93,-357.659 2514.93,-357.659"/>
</g>
<!-- Machine&#45;&gt;MachineImage -->
<g id="edge98" class="edge"><title>Machine&#45;&gt;MachineImage</title>
<path fill="none" stroke="#dd8a85" d="M2065.33,-426.733C2080.82,-408.879 2102.49,-383.917 2118.13,-365.899"/>
<ellipse fill="none" stroke="#dd8a85" cx="2062.59" cy="-429.88" rx="4.00002" ry="4.00002"/>
<ellipse fill="#dd8a85" stroke="#dd8a85" cx="2120.97" cy="-362.622" rx="4.00002" ry="4.00002"/>
</g>
<!-- Abuse -->
<g id="node78" class="node"><title>Abuse</title>
<ellipse fill="none" stroke="black" cx="5566" cy="-741" rx="33.2209" ry="18"/>
<text text-anchor="middle" x="5566" y="-737.3" font-family="Times,serif" font-size="14.00">Abuse</text>
</g>
<!-- Profile&#45;&gt;UserAvatar -->
<g id="edge105" class="edge"><title>Profile&#45;&gt;UserAvatar</title>
<path fill="none" stroke="#5945d8" d="M460,-531.795C460,-515.123 460,-493.335 460,-476.586"/>
<ellipse fill="none" stroke="#5945d8" cx="460" cy="-535.969" rx="4" ry="4"/>
<ellipse fill="#5945d8" stroke="#5945d8" cx="460" cy="-472.341" rx="4" ry="4"/>
</g>
<!-- Profile&#45;&gt;Address -->
<g id="edge106" class="edge"><title>Profile&#45;&gt;Address</title>
<path fill="none" stroke="#5c154c" d="M438.477,-536.07C419.56,-517.673 392.148,-491.015 373.069,-472.462"/>
<ellipse fill="none" stroke="#5c154c" cx="441.515" cy="-539.024" rx="4.00002" ry="4.00002"/>
<ellipse fill="#5c154c" stroke="#5c154c" cx="369.81" cy="-469.292" rx="4.00002" ry="4.00002"/>
</g>
<!-- Setting -->
<g id="node82" class="node"><title>Setting</title>
<ellipse fill="none" stroke="black" cx="5653" cy="-741" rx="35.6194" ry="18"/>
<text text-anchor="middle" x="5653" y="-737.3" font-family="Times,serif" font-size="14.00">Setting</text>
</g>
</g>
</svg>
